<svg id="icon" viewBox="0 0 42 42" fill="currentcolor" xmlns="http://www.w3.org/2000/svg">
<path d="M41.3547 14.7261L35.5855 8.95683L31.4961 4.86749C31.4957 4.86708 31.4953 4.86659 31.4949 4.86618C31.4947 4.86601 31.4945 4.86585 31.4942 4.8656L27.2739 0.64534C26.8578 0.229195 26.3045 0 25.716 0C25.1275 0 24.5743 0.229113 24.1581 0.645258L20.4089 4.39441L18.8923 2.87774C18.2286 2.21402 17.1486 2.21402 16.4849 2.87774L15.6345 3.72816L7.22513 12.1376C6.56141 12.8013 6.56141 13.8812 7.22513 14.545L8.7418 16.0616L4.99265 19.8108C4.5765 20.2269 4.34731 20.7802 4.34731 21.3686C4.34731 21.9571 4.57642 22.5104 4.99257 22.9266L7.8662 25.8002L3.532 30.1344C3.21167 30.4548 3.21167 30.9742 3.532 31.2946C3.69221 31.4548 3.90212 31.5349 4.11204 31.5349C4.32196 31.5349 4.53196 31.4548 4.69209 31.2946L9.02629 26.9604L9.21332 27.1474C9.21332 27.1474 9.2134 27.1475 9.2134 27.1476C9.21348 27.1477 9.21357 27.1478 9.21365 27.1478L11.4528 29.387L0.240249 40.5996C-0.080083 40.92 -0.080083 41.4394 0.240249 41.7598C0.400456 41.9199 0.610374 42 0.820292 42C1.03021 42 1.24021 41.9199 1.40034 41.7597L12.6131 30.547L15.0545 32.9885L9.87597 38.167C9.55564 38.4873 9.55564 39.0068 9.87597 39.3272C10.0361 39.4874 10.2461 39.5674 10.456 39.5674C10.6659 39.5674 10.8759 39.4873 11.0361 39.3272L16.2146 34.1485L19.0735 37.0073C19.4896 37.4235 20.0428 37.6526 20.6313 37.6526C21.2198 37.6526 21.773 37.4234 22.1892 37.0073L34.7738 24.4228C35.0942 24.1024 35.0942 23.583 34.7738 23.2626C34.4535 22.9423 33.9341 22.9423 33.6137 23.2626L21.029 35.8473C20.9228 35.9536 20.7815 36.012 20.6313 36.012C20.481 36.012 20.3397 35.9536 20.2334 35.8473L16.7947 32.4087C16.7946 32.4086 16.7946 32.4085 16.7946 32.4084C16.7945 32.4083 16.7944 32.4082 16.7943 32.4082L12.3327 27.9466C12.7042 27.8391 13.0607 27.6619 13.3818 27.4137L19.7855 22.4654L20.2529 22.9328C20.4067 23.0866 20.6154 23.1731 20.833 23.1731C21.0505 23.1731 21.2592 23.0866 21.413 22.9328L21.8108 22.5351L22.6486 23.3729C23.3476 24.072 24.266 24.4215 25.1843 24.4215C26.1026 24.4215 27.0209 24.072 27.7201 23.3729C28.3974 22.6956 28.7704 21.795 28.7704 20.8372C28.7704 19.8793 28.3974 18.9788 27.7201 18.3015L26.8823 17.4636L27.2801 17.0659C27.6004 16.7455 27.6004 16.2261 27.2801 15.9058L26.8126 15.4384L31.7609 9.03468C32.0092 8.71336 32.1859 8.35669 32.2934 7.98517L34.4253 10.1171L40.1946 15.8863C40.3008 15.9926 40.3593 16.1338 40.3593 16.2841C40.3593 16.4344 40.3008 16.5756 40.1945 16.6819L38.2539 18.6224C37.9336 18.9427 37.9336 19.4622 38.2539 19.7826C38.4142 19.9428 38.6241 20.0228 38.834 20.0228C39.0439 20.0228 39.2539 19.9428 39.414 19.7826L41.3546 17.842C41.7707 17.4259 41.9998 16.8726 41.9998 16.2841C41.9998 15.6956 41.7709 15.1422 41.3547 14.7261ZM8.38521 13.3849C8.36118 13.3609 8.36118 13.3217 8.38521 13.2978L16.7946 4.88832L17.6451 4.03791C17.6495 4.03339 17.6631 4.01986 17.6886 4.01986C17.7141 4.01986 17.7278 4.03339 17.7322 4.03791L19.2489 5.55458L9.90197 14.9016L8.38521 13.3849ZM20.0375 20.3971L24.7444 15.6902L25.5399 16.4858L25.1426 16.8832C25.1424 16.8833 25.1423 16.8834 25.1421 16.8836L21.2308 20.7949C21.2307 20.7951 21.2306 20.7952 21.2304 20.7953L20.833 21.1928L20.0375 20.3971ZM26.5601 19.4615C26.9275 19.8289 27.1299 20.3175 27.1299 20.8371C27.1299 21.3568 26.9275 21.8453 26.5601 22.2127C25.8016 22.9713 24.5674 22.9713 23.8088 22.2127L22.971 21.3749L25.7223 18.6236L26.5601 19.4615ZM30.4629 8.03152L25.6431 14.2688L25.3244 13.9501C25.1706 13.7963 24.9619 13.7098 24.7444 13.7098C24.5268 13.7098 24.3181 13.7963 24.1643 13.9501L18.2974 19.817C17.977 20.1374 17.977 20.6568 18.2974 20.9771L18.6161 21.2958L12.3788 26.1156C11.7752 26.5821 10.9133 26.527 10.3738 25.9875C10.3737 25.9874 10.3737 25.9873 10.3736 25.9873L6.15282 21.7665C6.04659 21.6603 5.98802 21.519 5.98802 21.3687C5.98802 21.2184 6.0465 21.0772 6.15282 20.971L25.3183 1.80534C25.4245 1.69911 25.5658 1.64062 25.716 1.64062C25.8663 1.64062 26.0076 1.69911 26.1138 1.80534L30.3351 6.02659C30.8742 6.56603 30.9292 7.42785 30.4629 8.03152Z" fill="currentcolor"/>
<path d="M8.02344 40.3594C7.8077 40.3594 7.59605 40.4471 7.44348 40.5997C7.2909 40.7523 7.20312 40.9639 7.20312 41.1797C7.20312 41.3954 7.2909 41.6071 7.44348 41.7596C7.59605 41.9122 7.8077 42 8.02344 42C8.23918 42 8.45082 41.9122 8.6034 41.7596C8.75598 41.6071 8.84375 41.3954 8.84375 41.1797C8.84375 40.9639 8.75598 40.7523 8.6034 40.5997C8.45082 40.4471 8.23918 40.3594 8.02344 40.3594Z" fill="currentcolor"/>
<path d="M36.5088 20.6973C36.293 20.6973 36.0814 20.785 35.9288 20.9376C35.7762 21.0902 35.6885 21.3018 35.6885 21.5176C35.6885 21.7333 35.7762 21.945 35.9288 22.0975C36.0814 22.2501 36.293 22.3379 36.5088 22.3379C36.7254 22.3379 36.9362 22.2501 37.0888 22.0975C37.2421 21.945 37.3291 21.7333 37.3291 21.5176C37.3291 21.3018 37.2421 21.0902 37.0888 20.9376C36.9362 20.785 36.7254 20.6973 36.5088 20.6973Z" fill="currentcolor"/>
</svg>
