<svg id="icon" viewBox="0 0 56 56" fill="currentcolor" xmlns="http://www.w3.org/2000/svg">
<path d="M51.8984 11.6134H41.358C40.9048 11.6134 40.5377 11.9806 40.5377 12.4338C40.5377 12.8869 40.9048 13.2541 41.358 13.2541H51.8984C53.2553 13.2541 54.3594 14.3581 54.3594 15.715V43.5662C54.3594 44.9232 53.2553 46.0272 51.8984 46.0272H31.2053C31.2025 46.0272 31.1998 46.0268 31.1969 46.0268C31.1941 46.0268 31.1913 46.0272 31.1885 46.0272H24.8117C24.8089 46.0272 24.8061 46.0268 24.8033 46.0268C24.8005 46.0268 24.7977 46.0272 24.7949 46.0272H4.10156C2.74466 46.0272 1.64062 44.9232 1.64062 43.5662V15.715C1.64062 14.3581 2.74466 13.2541 4.10156 13.2541H17.6493V14.0796C17.6493 14.3539 17.6609 14.6256 17.6817 14.8947H4.42969C3.79641 14.8947 3.28125 15.4098 3.28125 16.0431V36.3882C3.28125 36.8413 3.64842 37.2085 4.10156 37.2085C4.5547 37.2085 4.92188 36.8413 4.92188 36.3882V16.5353H17.94C18.6411 19.4522 20.5605 21.8979 23.1219 23.2868V25.1246C23.1219 25.5553 22.8472 25.9368 22.4382 26.0741L14.5207 28.7363C11.9574 29.5974 10.2352 31.9916 10.2352 34.694V42.7462H4.92188V40.2164C4.92188 39.7633 4.5547 39.3961 4.10156 39.3961C3.64842 39.3961 3.28125 39.7633 3.28125 40.2164V43.2383C3.28125 43.8716 3.79641 44.3868 4.42969 44.3868H51.5703C52.2036 44.3868 52.7188 43.8716 52.7188 43.2383V16.0431C52.7188 15.4098 52.2036 14.8947 51.5703 14.8947H38.3261C38.3421 14.6589 38.3506 14.4216 38.3506 14.183V4.95808C38.3507 2.22414 36.1266 0 33.3926 0H22.6075C19.8735 0 17.6494 2.22414 17.6494 4.95808V11.6134H4.10156C1.83991 11.6134 0 13.4533 0 15.715V43.5662C0 45.8279 1.83991 47.6678 4.10156 47.6678H23.9828V51.0781H22.9465C20.8659 51.0781 19.1731 52.7709 19.1731 54.8516C19.1731 55.4848 19.6883 56 20.3215 56H35.6782C36.3115 56 36.8267 55.4848 36.8267 54.8516C36.8267 52.7709 35.1339 51.0781 33.0532 51.0781H32.017V47.6678H51.8984C54.1601 47.6678 56 45.8279 56 43.5662V15.715C56 13.4533 54.1601 11.6134 51.8984 11.6134ZM44.1241 42.7459H11.8759V34.6938C11.8759 32.6969 13.1488 30.9277 15.0435 30.2913L16.8968 29.6682C16.7906 30.2657 16.7462 30.8724 16.7693 31.4838C16.7904 32.0429 16.8663 32.597 16.9958 33.1402C15.2021 33.6112 13.8751 35.246 13.8751 37.1853V39.885C13.8751 40.6487 14.4965 41.27 15.2601 41.27H16.0266C16.4798 41.27 16.8469 40.9029 16.8469 40.4497C16.8469 39.9966 16.4798 39.6294 16.0266 39.6294H15.5157V37.1853C15.5157 35.7847 16.6546 34.6451 18.0551 34.644C18.0558 34.644 18.0565 34.6441 18.0572 34.6441C18.0581 34.6441 18.0592 34.644 18.0602 34.644C19.4601 34.6457 20.5984 35.785 20.5984 37.1852V39.6293H20.0875C19.6343 39.6293 19.2672 39.9965 19.2672 40.4496C19.2672 40.9028 19.6343 41.2699 20.0875 41.2699H20.854C21.6176 41.2699 22.239 40.6486 22.239 39.8849V37.1852C22.239 35.0866 20.685 33.3447 18.6675 33.0482C18.5166 32.5176 18.4295 31.9727 18.4087 31.4217C18.3782 30.6161 18.4888 29.8198 18.7354 29.0498L22.4178 27.8115L27.0475 32.4364C27.6228 33.011 28.5591 33.011 29.1345 32.4362L33.718 27.8574L37.7448 29.2112C38.0378 29.9779 38.1874 30.8042 38.1797 31.6214C38.1729 32.3551 38.0364 33.0952 37.7862 33.7891C35.9814 34.0658 34.5947 35.6279 34.5947 37.5075C34.5947 39.5819 36.2836 41.2696 38.3597 41.2696C40.4357 41.2696 42.1248 39.5818 42.1248 37.5075C42.1248 35.8197 41.0064 34.388 39.4714 33.913C39.6922 33.1742 39.8132 32.4029 39.8205 31.6369C39.8262 31.0384 39.7633 30.4363 39.6375 29.8475L40.9567 30.291C42.8512 30.9274 44.1241 32.6966 44.1241 34.6934V42.7459ZM32.141 27.1142L28.0911 31.1598L23.9528 27.0258C24.4583 26.5387 24.7625 25.8593 24.7625 25.1244V23.9988C25.7707 24.3353 26.8464 24.5199 27.9635 24.5237C27.9758 24.5237 27.9881 24.5238 28.0004 24.5238C29.117 24.5238 30.2064 24.3483 31.2375 24.0104V25.1244C31.2375 25.9044 31.5786 26.6231 32.141 27.1142ZM38.3585 35.3865H38.3593H38.3604C39.5315 35.3869 40.4843 36.3384 40.4843 37.5079C40.4843 38.6776 39.5312 39.6293 38.3598 39.6293C37.1884 39.6293 36.2354 38.6776 36.2354 37.5079C36.2354 36.3385 37.1877 35.3872 38.3585 35.3865ZM38.0827 16.5353H51.0781V42.7459H45.7647V34.6938C45.7647 31.9914 44.0425 29.5972 41.4794 28.7361L33.5614 26.0739C33.1527 25.9365 32.878 25.555 32.878 25.1244V23.3089C33.7612 22.8362 34.5801 22.2313 35.3096 21.5042C36.7023 20.1167 37.6499 18.403 38.0827 16.5353ZM19.2899 4.95808C19.2899 3.12878 20.7781 1.64062 22.6074 1.64062H33.3925C35.2218 1.64062 36.71 3.12878 36.71 4.95808V9.87459C35.8764 9.77966 34.8491 9.52973 33.795 8.94534C32.8666 8.43073 32.0637 7.74189 31.4087 6.89817C30.9878 6.35556 30.2111 6.22672 29.6408 6.60483C28.5178 7.34923 27.3183 7.98011 26.0754 8.48017C23.9214 9.34686 21.6424 9.82614 19.2899 9.9108V4.95808ZM19.2899 11.5538C21.8535 11.4684 24.3383 10.9477 26.6879 10.0022C27.9417 9.4978 29.1549 8.8702 30.2979 8.1352C31.0544 9.05056 31.9621 9.80514 32.9995 10.3802C34.3538 11.1309 35.672 11.4263 36.7101 11.5244V14.183C36.7101 16.5108 35.8015 18.6982 34.1517 20.3422C33.4435 21.048 32.6354 21.6161 31.7599 22.0355C31.7237 22.0496 31.6887 22.0659 31.6553 22.0848C30.516 22.6117 29.2651 22.8881 27.9693 22.8831H27.9692C23.1835 22.8667 19.2899 18.9173 19.2899 14.0795C19.2899 14.0689 19.2895 11.5624 19.2899 11.5538ZM25.6234 47.6678H30.3765V51.0781H25.6234V47.6678ZM33.0533 52.7188C34.06 52.7188 34.906 53.4197 35.1288 54.3594H20.8712C21.0938 53.4197 21.9399 52.7188 22.9467 52.7188H33.0533Z" fill="currentcolor"/>
</svg>
