<svg is="icon" viewBox="0 0 56 56" fill="currentcolor" xmlns="http://www.w3.org/2000/svg">
<g clip-path="url(#clip0_2_259)">
<path d="M46.8167 36.4274L38.5051 34.8112V32.7574C40.8391 31.165 42.1029 28.91 42.3781 26.3773C43.5897 26.2812 44.5459 25.2648 44.5459 24.0292V22.3433C46.5211 21.4845 46.2545 18.6019 44.1648 18.1157V17.465C44.1648 11.6147 39.4219 6.87183 33.5721 6.87183H32.6838C26.8336 6.87183 22.0911 11.6147 22.0911 17.4645V18.1157C20.0023 18.6014 19.734 21.4845 21.71 22.3433V24.0292C21.71 25.2648 22.6662 26.2812 23.8779 26.3773C24.118 28.587 25.1536 30.6096 26.7874 32.0161C27.1002 32.2857 27.4214 32.5327 27.7509 32.7574V34.8112L19.4392 36.4274C15.054 37.2802 11.636 39.7523 11.636 44.3135V52.6572C11.636 54.5034 13.1326 56 14.9788 56H51.2772C53.1233 56 54.6199 54.5034 54.6199 52.6572V44.3135C54.6199 39.7672 51.2229 37.2841 46.8167 36.4274ZM39.9889 36.7709C39.3933 37.637 38.4828 38.9589 37.4993 40.3824C37.0986 40.9631 36.3795 41.037 36.0984 40.8687L34.8026 40.0915C36.0663 39.3451 37.8151 38.0634 38.3457 36.4514L39.9889 36.7709ZM33.1277 39.1349C31.8819 38.5077 29.3983 36.9581 29.3915 35.4935C29.3915 35.4913 29.3915 35.4892 29.3915 35.4871V33.6631C31.7789 34.6928 34.474 34.6941 36.8644 33.6631V35.4871C36.8644 36.9542 34.3749 38.5073 33.1277 39.1349ZM23.7318 17.4645C23.7318 14.0995 25.598 11.1622 28.3499 9.63354V10.6619C28.3499 11.7463 29.9905 11.748 29.9905 10.6619V8.92645C30.7266 8.6936 31.5034 8.55389 32.3074 8.52057V12.5768C32.3074 13.6612 33.9481 13.6629 33.9481 12.5768V8.52057C34.7521 8.55389 35.5293 8.6936 36.2654 8.92645V10.6619C36.2654 11.7463 37.9061 11.748 37.9061 10.6619V9.63354C40.658 11.1622 42.5242 14.0995 42.5242 17.4645V18.0576H23.7318V17.4645ZM22.5978 19.6982H43.6581C44.4442 19.6982 44.4434 20.8864 43.6581 20.8864H22.5978C21.8113 20.8864 21.8121 19.6982 22.5978 19.6982ZM25.4664 25.5468C25.457 25.1007 25.0925 24.744 24.6461 24.744C24.5093 24.7102 23.3502 24.9572 23.3502 24.0292V22.5274H42.9053V24.0292C42.9053 24.9554 41.7154 24.7179 41.6094 24.744C41.1634 24.744 40.799 25.1007 40.7891 25.5468C40.7451 27.5975 39.8735 29.5022 38.3983 30.7728C35.2653 33.4705 30.9907 33.4709 27.8577 30.7728C26.382 29.5022 25.5104 27.5975 25.4664 25.5468ZM27.9098 36.4514C28.4409 38.0634 30.1891 39.3451 31.4534 40.0915C30.1545 40.787 30.2464 40.9951 29.6564 40.9255C29.2894 40.8815 28.96 40.6772 28.7498 40.373C27.7688 38.9529 26.8613 37.6348 26.2666 36.7709L27.9098 36.4514ZM18.445 54.3594H14.9783C14.0384 54.3594 13.2762 53.5972 13.2762 52.6572V44.3135C13.2762 41.8552 14.393 40.1556 16.8428 38.9815C16.942 39.4182 18.445 43.4979 18.445 49.1987V54.3594ZM32.3074 54.3594H20.0856V49.1987C20.0856 43.022 18.5262 39.0447 18.3728 38.3714C19.3307 38.0531 18.6193 38.2983 24.5106 37.1123C26.2038 39.5728 29.3637 44.1636 31.2265 46.8112C31.934 47.8165 32.3074 48.9974 32.3074 50.2266V54.3594ZM33.1277 46.7958C32.9645 46.4758 32.7778 46.1656 32.5685 45.8674C31.9387 44.9728 31.1214 43.7987 30.2686 42.5678C30.522 42.5118 30.7693 42.4144 31.0013 42.2756L33.1277 41.0002L35.2546 42.2756C35.4861 42.4144 35.7339 42.5118 35.9873 42.5678C35.1345 43.7979 34.3172 44.9719 33.6874 45.8674C33.4777 46.1656 33.291 46.4758 33.1277 46.7958ZM52.9793 52.6572C52.9793 53.5972 52.2175 54.3594 51.2772 54.3594H47.8105V51.2644C47.8105 50.1801 46.1699 50.1783 46.1699 51.2644V54.3594H33.9481V50.2266C33.9481 48.9974 34.3219 47.8165 35.029 46.8116C36.0886 45.3056 40.4512 39.0101 41.7453 37.1123C47.6336 38.2979 46.9235 38.0527 47.8827 38.3714C47.7635 38.876 46.3831 42.6276 46.1925 47.9494C46.1532 49.0363 47.793 49.0897 47.8318 48.0084C48.0164 42.8583 49.2798 39.5446 49.4127 38.9815C51.8625 40.1556 52.9793 41.8552 52.9793 44.3131V52.6572Z" fill="currentcolor"/>
<path d="M6.13156 7.51762C5.86515 7.44496 5.59028 7.60203 5.51762 7.86844L4.33359 12.2099C4.26093 12.4763 4.418 12.7512 4.68441 12.8238C4.95083 12.8965 5.2257 12.7394 5.29835 12.473L6.35082 8.61394L10.2099 9.66641C10.4763 9.73907 10.7512 9.582 10.8238 9.31559C10.8965 9.04917 10.7394 8.7743 10.473 8.70165L6.13156 7.51762ZM18.4341 28.7519L6.43412 7.75193L5.56588 8.24807L17.5659 29.2481L18.4341 28.7519Z" fill="currentcolor"/>
<path d="M14.0981 7.50971C13.8273 7.45555 13.5639 7.63116 13.5097 7.90194L12.6272 12.3146C12.573 12.5853 12.7486 12.8487 13.0194 12.9029C13.2902 12.9571 13.5536 12.7815 13.6078 12.5107L14.3922 8.58835L18.3146 9.37281C18.5853 9.42697 18.8487 9.25136 18.9029 8.98058C18.9571 8.7098 18.7815 8.44639 18.5107 8.39223L14.0981 7.50971ZM20.416 16.7226L14.416 7.72265L13.584 8.27735L19.584 17.2774L20.416 16.7226Z" fill="currentcolor"/>
<path d="M7.11581 20.5136C6.84718 20.4496 6.57756 20.6156 6.5136 20.8842L5.4713 25.2618C5.40734 25.5304 5.57326 25.8001 5.8419 25.864C6.11053 25.928 6.38015 25.7621 6.44411 25.4934L7.37059 21.6022L11.2618 22.5287C11.5305 22.5927 11.8001 22.4267 11.864 22.1581C11.928 21.8895 11.7621 21.6198 11.4934 21.5559L7.11581 20.5136ZM15.4258 33.738L7.42583 20.738L6.57417 21.262L14.5742 34.262L15.4258 33.738Z" fill="currentcolor"/>
</g>
<defs>
<clipPath id="clip0_2_259">
<rect width="56" height="56" fill="currentcolor"/>
</clipPath>
</defs>
</svg>
