<svg id="icon" viewBox="0 0 56 56" fill="currentcolor" xmlns="http://www.w3.org/2000/svg">
<g clip-path="url(#clip0_2_84)">
<path d="M20.4788 34.83H17.1949C16.1721 34.83 15.3398 33.9981 15.3398 32.9749V31.1445C15.3398 31.0364 15.2634 30.9429 15.1501 30.9117C14.0115 30.6015 12.9135 30.1452 11.8868 29.556C11.7937 29.5026 11.6839 29.5133 11.6143 29.5829L10.3069 30.8903C9.95654 31.2407 9.49084 31.4333 8.99524 31.4333C8.50006 31.4333 8.03394 31.2407 7.68359 30.8903L5.36151 28.5682C5.01117 28.2179 4.81805 27.7518 4.81805 27.2566C4.81805 26.761 5.01117 26.2949 5.36151 25.9449L6.66846 24.6376C6.73853 24.5679 6.74921 24.4581 6.69537 24.365C6.10663 23.3383 5.65033 22.2403 5.34015 21.1017C5.30896 20.9885 5.21539 20.912 5.1073 20.912H3.27698C2.25415 20.912 1.42188 20.0797 1.42188 19.0569V15.7731C1.42188 14.7502 2.25415 13.918 3.27698 13.918H5.1073C5.21539 13.918 5.30896 13.8419 5.34015 13.7283C5.65033 12.5901 6.10663 11.4921 6.6958 10.465C6.74921 10.3718 6.73853 10.262 6.66888 10.1924L5.36151 8.88501C5.01117 8.5351 4.81805 8.06897 4.81805 7.57336C4.81805 7.07819 5.01117 6.61206 5.36151 6.26172L7.68359 3.93964C8.03394 3.58929 8.49963 3.39661 8.99524 3.39661C9.49084 3.39661 9.95697 3.58929 10.3073 3.94006L11.6143 5.24701C11.6839 5.31665 11.7933 5.32733 11.8868 5.27393C12.9135 4.68475 14.0111 4.22888 15.1497 3.91827C15.2638 3.88708 15.3398 3.79352 15.3398 3.68542V1.8551C15.3398 0.832275 16.1721 0 17.1949 0H20.4788C21.5016 0 22.3339 0.832275 22.3339 1.8551V3.68542C22.3339 3.79352 22.4099 3.88708 22.5236 3.91785C23.6617 4.22845 24.7598 4.68475 25.7864 5.27393C25.88 5.32733 25.9894 5.31665 26.0594 5.24701L27.3664 3.93964C28.0914 3.21503 29.2651 3.2146 29.9901 3.94006L30.2358 4.18573C31.0027 4.95221 29.8436 6.11346 29.0758 5.3457C28.9246 5.21497 28.7306 4.89581 28.5268 5.10004L27.2194 6.40698C26.6281 6.99829 25.7031 7.11749 24.97 6.69666C24.0642 6.17712 23.0956 5.77466 22.092 5.50079C21.2683 5.27649 20.6928 4.52966 20.6928 3.685V1.8551C20.6928 1.73676 20.5967 1.64062 20.4783 1.64062H17.1945C17.0766 1.64062 16.9805 1.73676 16.9805 1.8551V3.68542C16.9805 4.53009 16.405 5.27649 15.5812 5.50122C14.5772 5.77509 13.6086 6.17712 12.7029 6.69666C11.9702 7.11749 11.0452 6.99829 10.4539 6.40698L9.14691 5.10004C9.09479 5.04791 9.03583 5.03723 8.99524 5.03723C8.95465 5.03723 8.89569 5.04791 8.84399 5.10004L6.52148 7.42212C6.46979 7.47382 6.45868 7.5332 6.45868 7.57336C6.45868 7.61395 6.46979 7.67334 6.52148 7.72504L7.82886 9.03241C8.42017 9.62372 8.53937 10.5483 8.11853 11.2814C7.599 12.1876 7.19653 13.1558 6.92267 14.1598C6.69836 14.9835 5.95154 15.5586 5.1073 15.5586H3.27698C3.15863 15.5586 3.0625 15.6552 3.0625 15.7731V19.0569C3.0625 19.1752 3.15863 19.2714 3.27698 19.2714H5.1073C5.95154 19.2714 6.69836 19.8464 6.9231 20.6702C7.19653 21.6746 7.599 22.6428 8.11853 23.5485C8.53937 24.2817 8.42017 25.2062 7.82886 25.7975L6.52191 27.1049C6.46979 27.1566 6.45911 27.216 6.45911 27.2566C6.45911 27.2968 6.47021 27.3561 6.52191 27.4083L8.84399 29.7299C8.92773 29.8137 9.0636 29.8141 9.14734 29.7299L10.4543 28.423C11.0456 27.8317 11.9706 27.7125 12.7037 28.1333C13.6095 28.6528 14.5776 29.0553 15.5817 29.3292C16.4054 29.5535 16.9809 30.3003 16.9809 31.145V32.9749C16.9809 33.0932 17.077 33.1893 17.1949 33.1893H20.4788C20.5971 33.1893 20.6932 33.0932 20.6932 32.9749V31.145C20.6932 30.3003 21.2687 29.5535 22.0925 29.3292C23.1405 29.0438 23.5703 30.6267 22.524 30.9117C22.4103 30.9429 22.3339 31.0364 22.3339 31.145V32.9749C22.3339 33.9977 21.5016 34.83 20.4788 34.83Z" fill="currentcolor"/>
<path d="M11.1055 17.4149C11.1055 11.9906 16.5597 8.27226 21.5858 10.1872C22.5988 10.5738 22.0165 12.1072 21.0013 11.7206C17.0348 10.2085 12.7457 13.1531 12.7457 17.4149C12.7457 20.8816 15.6655 23.7023 19.2005 23.495C20.2814 23.4297 20.3827 25.069 19.2971 25.1331C14.8396 25.3954 11.1055 21.8407 11.1055 17.4149Z" fill="currentcolor"/>
<path d="M46.8167 36.4274L38.5051 34.8112V32.7574C40.8391 31.165 42.1029 28.91 42.3781 26.3773C43.5897 26.2812 44.5459 25.2648 44.5459 24.0292V22.3433C46.5211 21.4845 46.2545 18.6019 44.1648 18.1157V17.465C44.1648 11.6147 39.4219 6.87183 33.5721 6.87183H32.6838C26.8336 6.87183 22.0911 11.6147 22.0911 17.4645V18.1157C20.0023 18.6014 19.734 21.4845 21.71 22.3433V24.0292C21.71 25.2648 22.6662 26.2812 23.8779 26.3773C24.118 28.587 25.1536 30.6096 26.7874 32.0161C27.1002 32.2857 27.4214 32.5327 27.7509 32.7574V34.8112L19.4392 36.4274C15.054 37.2802 11.636 39.7523 11.636 44.3135V52.6572C11.636 54.5034 13.1326 56 14.9788 56H51.2772C53.1233 56 54.6199 54.5034 54.6199 52.6572V44.3135C54.6199 39.7672 51.2229 37.2841 46.8167 36.4274ZM39.9889 36.7709C39.3933 37.637 38.4828 38.9589 37.4993 40.3824C37.0986 40.9631 36.3795 41.037 36.0984 40.8687L34.8026 40.0915C36.0663 39.3451 37.8151 38.0634 38.3457 36.4514L39.9889 36.7709ZM33.1277 39.1349C31.8819 38.5077 29.3983 36.9581 29.3915 35.4935C29.3915 35.4913 29.3915 35.4892 29.3915 35.4871V33.6631C31.7789 34.6928 34.474 34.6941 36.8644 33.6631V35.4871C36.8644 36.9542 34.3749 38.5073 33.1277 39.1349ZM23.7318 17.4645C23.7318 14.0995 25.598 11.1622 28.3499 9.63354V10.6619C28.3499 11.7463 29.9905 11.748 29.9905 10.6619V8.92645C30.7266 8.6936 31.5034 8.55389 32.3074 8.52057V12.5768C32.3074 13.6612 33.9481 13.6629 33.9481 12.5768V8.52057C34.7521 8.55389 35.5293 8.6936 36.2654 8.92645V10.6619C36.2654 11.7463 37.9061 11.748 37.9061 10.6619V9.63354C40.658 11.1622 42.5242 14.0995 42.5242 17.4645V18.0576H23.7318V17.4645ZM22.5978 19.6982H43.6581C44.4442 19.6982 44.4434 20.8864 43.6581 20.8864H22.5978C21.8113 20.8864 21.8121 19.6982 22.5978 19.6982ZM25.4664 25.5468C25.457 25.1007 25.0925 24.744 24.6461 24.744C24.5093 24.7102 23.3502 24.9572 23.3502 24.0292V22.5274H42.9053V24.0292C42.9053 24.9554 41.7154 24.7179 41.6094 24.744C41.1634 24.744 40.799 25.1007 40.7891 25.5468C40.7451 27.5975 39.8735 29.5022 38.3983 30.7728C35.2653 33.4705 30.9907 33.4709 27.8577 30.7728C26.382 29.5022 25.5104 27.5975 25.4664 25.5468ZM27.9098 36.4514C28.4409 38.0634 30.1891 39.3451 31.4534 40.0915C30.1545 40.787 30.2464 40.9951 29.6564 40.9255C29.2894 40.8815 28.96 40.6772 28.7498 40.373C27.7688 38.9529 26.8613 37.6348 26.2666 36.7709L27.9098 36.4514ZM18.445 54.3594H14.9783C14.0384 54.3594 13.2762 53.5972 13.2762 52.6572V44.3135C13.2762 41.8552 14.393 40.1556 16.8428 38.9815C16.942 39.4182 18.445 43.4979 18.445 49.1987V54.3594ZM32.3074 54.3594H20.0856V49.1987C20.0856 43.022 18.5262 39.0447 18.3728 38.3714C19.3307 38.0531 18.6193 38.2983 24.5106 37.1123C26.2038 39.5728 29.3637 44.1636 31.2265 46.8112C31.934 47.8165 32.3074 48.9974 32.3074 50.2266V54.3594ZM33.1277 46.7958C32.9645 46.4758 32.7778 46.1656 32.5685 45.8674C31.9387 44.9728 31.1214 43.7987 30.2686 42.5678C30.522 42.5118 30.7693 42.4144 31.0013 42.2756L33.1277 41.0002L35.2546 42.2756C35.4861 42.4144 35.7339 42.5118 35.9873 42.5678C35.1345 43.7979 34.3172 44.9719 33.6874 45.8674C33.4777 46.1656 33.291 46.4758 33.1277 46.7958ZM52.9793 52.6572C52.9793 53.5972 52.2175 54.3594 51.2772 54.3594H47.8105V51.2644C47.8105 50.1801 46.1699 50.1783 46.1699 51.2644V54.3594H33.9481V50.2266C33.9481 48.9974 34.3219 47.8165 35.029 46.8116C36.0886 45.3056 40.4512 39.0101 41.7453 37.1123C47.6336 38.2979 46.9235 38.0527 47.8827 38.3714C47.7635 38.876 46.3831 42.6276 46.1925 47.9494C46.1532 49.0363 47.793 49.0897 47.8318 48.0084C48.0164 42.8583 49.2798 39.5446 49.4127 38.9815C51.8625 40.1556 52.9793 41.8552 52.9793 44.3131V52.6572Z" fill="currentcolor"/>
</g>
<defs>
<clipPath id="clip0_2_84">
<rect width="56" height="56" fill="currentcolor"/>
</clipPath>
</defs>
</svg>
