<svg id="icon" viewBox="0 0 52 45" fill="none" xmlns="http://www.w3.org/2000/svg">
<path d="M27.7321 2L50.2487 41C51.0185 42.3333 50.0563 44 48.5167 44H3.48334C1.94374 44 0.981488 42.3333 1.75129 41L24.268 2C25.0378 0.666666 26.9622 0.666665 27.7321 2Z" stroke="currentcolor" stroke-width="2"/>
<path d="M18 31L23.237 23.5C26.117 19.375 28.604 16 28.765 16C28.925 16 28.684 17.012 28.228 18.25C27.772 19.488 27.099 21.738 26.733 23.25C26.103 25.857 26.252 26 29.601 26H33.135L27.921 32.967C25.053 36.799 22.559 39.786 22.379 39.606C22.198 39.425 22.513 38.061 23.078 36.574C24.783 32.09 24.387 31 21.053 31H18Z" fill="currentcolor"/>
</svg>
