<svg id="icon" viewBox="0 0 58 58" fill="currentcolor" xmlns="http://www.w3.org/2000/svg">
<g clip-path="url(#clip0_2_264)">
<path d="M45.9296 46.2408C45.4362 45.8636 44.731 45.9582 44.3541 46.4513C43.9771 46.9445 44.0714 47.6499 44.5646 48.0269L46.4853 49.4949C46.6884 49.6501 46.9285 49.7258 47.1673 49.7258C47.4747 49.7258 47.78 49.6002 48.0008 49.3564L51.6721 45.3027C52.0888 44.8426 52.0537 44.1318 51.5935 43.7152C51.1335 43.2985 50.4226 43.3337 50.006 43.7937L47.0288 47.0811L45.9296 46.2408Z" fill="currentcolor"/>
<path d="M57.8633 40.2411C57.8505 39.668 57.4084 39.1966 56.8376 39.1467C54.1638 38.9131 50.8736 37.117 48.4549 34.5714C48.2427 34.3481 47.9484 34.2217 47.6404 34.2216C47.6403 34.2216 47.6402 34.2216 47.6401 34.2216C47.3323 34.2216 47.038 34.3478 46.8258 34.5708C45.7401 35.7119 44.48 36.7018 43.1795 37.4685C40.8977 34.9211 38.0892 33.0444 34.7975 31.863C34.7688 31.8514 34.7398 31.8411 34.7101 31.8318C34.4538 31.741 34.1943 31.6544 33.9321 31.5719C36.7159 28.7955 38.5884 25.1469 38.5884 21.8739V20.108C39.9044 19.535 40.8272 18.2216 40.8272 16.6961C40.8272 15.1114 39.8298 13.756 38.4302 13.2227C37.8525 7.61409 33.901 2.89934 28.4731 1.33952C28.3127 0.575575 27.634 0 26.8231 0H22.7503C21.9682 0 21.3108 0.5359 21.1211 1.25939C18.4512 1.97141 16.0124 3.49121 14.184 5.60424C12.3281 7.74896 11.174 10.4273 10.8809 13.2233C9.48059 13.7569 8.48286 15.112 8.48286 16.6962C8.48286 18.2223 9.40708 19.5361 10.7248 20.1087V21.874C10.7248 25.144 12.5976 28.7939 15.3813 31.5722C15.1268 31.6522 14.8746 31.736 14.6255 31.8239C14.5765 31.8378 14.5288 31.855 14.4824 31.8753C10.7981 33.2044 7.72217 35.4044 5.31331 38.4426C2.99663 41.3646 1.3497 44.9731 0.418398 49.1686C0.0869445 50.6679 -0.162348 52.5521 0.859998 53.8251C1.85863 55.0685 3.64548 55.2279 5.09077 55.2279H12.4431C13.0639 55.2279 13.567 54.7246 13.567 54.1039C13.567 53.4833 13.0639 52.98 12.4431 52.98H5.09077C3.74619 52.98 2.91244 52.7907 2.61269 52.4174C2.29517 52.022 2.29539 51.0922 2.61302 49.6547C3.78115 44.3932 6.63733 37.9547 13.5189 34.7039C13.3073 38.5009 15.3647 40.9828 16.6724 42.558C16.8726 42.7992 17.1644 42.9458 17.4774 42.9626C17.7902 42.9799 18.0961 42.8645 18.3208 42.646L24.6552 36.4859L30.9926 42.6463C31.2028 42.8506 31.4841 42.9642 31.7759 42.9642C31.7961 42.9642 31.8162 42.9637 31.8365 42.9626C32.1495 42.9457 32.4414 42.7988 32.6415 42.5573C33.9474 40.9807 36.0018 38.4973 35.792 34.7083C37.7885 35.6553 39.5524 36.9219 41.0693 38.4997C40.1635 38.8502 39.2729 39.0742 38.4424 39.1469C37.8719 39.1966 37.4301 39.6677 37.4167 40.2403C37.3226 44.2588 37.9924 47.1378 39.8044 50.5075C39.8197 50.5361 40.432 51.6337 41.3862 52.9802H22.6186C21.9978 52.9802 21.4946 53.4835 21.4946 54.1042C21.4946 54.7248 21.9978 55.2281 22.6186 55.2281H43.1712C44.5263 56.7257 46.1244 58.0002 47.6399 58.0002C51.2964 58.0002 55.4352 50.5825 55.475 50.5083C57.2841 47.138 57.9537 44.2595 57.8633 40.2411ZM36.136 12.9801H29.9477C28.7786 9.92594 28.5574 7.40751 28.5177 3.7105C32.5717 5.14432 35.5188 8.72141 36.136 12.9801ZM23.3117 2.2479H26.2616C26.2687 6.59849 26.379 9.54504 27.5567 12.9801H22.0188C23.1946 9.54492 23.3047 6.59804 23.3117 2.2479ZM21.0567 3.62182C21.0196 7.36749 20.8047 9.90144 19.6284 12.9802H13.1767C13.8178 8.66611 16.919 4.99203 21.0567 3.62182ZM12.2021 15.228H19.7211C19.7873 15.2817 19.8514 15.2885 19.9051 15.228H37.1111C37.9207 15.228 38.5793 15.8865 38.5793 16.6962C38.5793 17.5075 37.9208 18.1676 37.1111 18.1676H12.2021C11.3909 18.1676 10.7308 17.5075 10.7308 16.6962C10.7308 15.8866 11.3907 15.228 12.2021 15.228ZM12.9727 21.874V20.4154H36.3404V21.874C36.3404 26.1592 32.189 31.4589 27.4563 33.2158C25.3854 33.9853 23.9151 33.9847 21.8394 33.2133C17.116 31.4493 12.9727 26.1504 12.9727 21.874ZM17.6373 40.175C16.474 38.6564 15.3539 36.6625 15.8923 33.7682C16.388 33.6081 16.9003 33.4621 17.4315 33.333C18.5649 34.1645 19.7873 34.8465 21.0546 35.3198C21.4625 35.4713 21.8549 35.5962 22.2389 35.7L17.6373 40.175ZM31.6748 40.1744L27.0704 35.6987C27.4494 35.5958 27.8367 35.4725 28.2389 35.3231C29.5124 34.8503 30.7408 34.167 31.8795 33.3328C32.4041 33.4604 32.9172 33.6051 33.4178 33.7672C33.9574 36.6574 32.8377 38.6533 31.6748 40.1744ZM53.494 49.4457C52.1649 51.9264 49.0521 55.7521 47.6399 55.7521C46.2278 55.7521 43.115 51.9264 41.7851 49.4441C40.2998 46.6824 39.6902 44.3793 39.6572 41.2435C40.8697 41.0127 42.132 40.5602 43.3733 39.9283C43.4169 39.9093 43.4594 39.887 43.5011 39.862C44.9506 39.1086 46.3681 38.1116 47.6395 36.9266C50.0333 39.1599 52.9476 40.7349 55.6218 41.2436C55.5864 44.3799 54.977 46.6834 53.494 49.4457Z" fill="currentcolor"/>
<path d="M17.5307 52.98C16.9099 52.98 16.4067 53.4833 16.4067 54.1039C16.4067 54.7246 16.9099 55.2279 17.5307 55.2279H17.5371C18.1579 55.2279 18.6578 54.7246 18.6578 54.1039C18.6578 53.4833 18.1514 52.98 17.5307 52.98Z" fill="currentcolor"/>
</g>
<defs>
<clipPath id="clip0_2_264">
<rect width="58" height="58" fill="currentcolor"/>
</clipPath>
</defs>
</svg>
