<svg id="icon" viewBox="0 0 59 59" fill="currentcolor" xmlns="http://www.w3.org/2000/svg">
<path d="M48.5197 47.8042C48.0424 47.8042 47.6554 48.1911 47.6554 48.6684V56.7941C47.6554 57.0571 47.4413 57.2713 47.1782 57.2713H42.5323V40.2515C42.5323 39.7742 42.1454 39.3872 41.6681 39.3872C41.1908 39.3872 40.8038 39.7742 40.8038 40.2515V57.2714H31.4485L34.1615 54.2868C34.4578 53.9607 34.5976 53.4962 34.5353 53.0438C34.5341 53.035 34.5327 53.0263 34.5312 53.0175L31.9473 37.7527L32.6435 36.7048C33.0284 36.9781 33.3249 37.2413 33.8809 37.2413C34.4464 37.2413 34.9752 36.9248 35.2354 36.4037V36.4036L37.9607 30.9415L44.1691 33.3458C44.3937 33.4422 47.6552 34.9109 47.6552 38.7893V44.6351C47.6551 45.1123 48.042 45.4994 48.5194 45.4994C48.9967 45.4994 49.3837 45.1124 49.3837 44.6351V38.7893C49.3837 33.6793 45.0084 31.8219 44.8221 31.7452C44.8167 31.7429 44.8112 31.7407 44.8057 31.7387L34.4728 27.737V25.3137C36.114 24.0373 37.2519 22.1453 37.5376 19.9867C38.3559 19.9291 39.1151 19.6235 39.7352 19.0903C40.545 18.3939 41.0096 17.3805 41.0096 16.3102C41.0096 15.4219 40.6891 14.5738 40.118 13.9129V10.7114C40.1179 4.80516 35.3129 0 29.4067 0C23.5004 0 18.6954 4.80516 18.6954 10.7114V13.9968C18.1182 14.651 17.8043 15.4563 17.8043 16.31C17.8043 17.3807 18.2687 18.3941 19.0787 19.0905C19.6983 19.6235 20.4571 19.9287 21.2751 19.9865C21.5631 22.1855 22.7342 24.1481 24.5152 25.4416V27.737L14.1935 31.7385C14.1881 31.7406 14.1827 31.7428 14.1773 31.745C13.9909 31.8216 9.61572 33.6791 9.61572 38.789V56.7938C9.61572 58.0101 10.6052 58.9997 11.8215 58.9997H20.0558C20.5331 58.9997 20.9201 58.6127 20.9201 58.1354C20.9201 57.6581 20.5331 57.2711 20.0558 57.2711H18.1963V40.2515C18.1963 39.7742 17.8093 39.3872 17.332 39.3872C16.8547 39.3872 16.4678 39.7742 16.4678 40.2515V57.2714H11.8217C11.5586 57.2714 11.3445 57.0573 11.3445 56.7942V38.7892C11.3445 34.8978 14.6278 33.4324 14.8295 33.3462L21.033 30.9412L23.7586 36.4036C24.0193 36.9259 24.5488 37.2413 25.1132 37.2413C25.6665 37.2413 25.9601 36.9822 26.3506 36.7048L27.0468 37.7527L24.4631 53.0176C24.4616 53.0262 24.4603 53.0349 24.4591 53.0437C24.3966 53.4958 24.5364 53.9606 24.8329 54.2869L27.5458 57.2715H24.0894C23.6121 57.2715 23.2251 57.6584 23.2251 58.1357C23.2251 58.613 23.6121 59 24.0894 59H47.1783C48.3946 59 49.3841 58.0104 49.3841 56.7942V48.6685C49.3839 48.1911 48.997 47.8042 48.5197 47.8042ZM36.3418 30.3146L33.801 35.4068C33.7379 35.362 32.3913 34.4053 30.7453 33.2365C31.4596 32.3548 30.624 33.3862 33.8837 29.3626L36.3418 30.3146ZM31.2332 35.7034L30.5743 36.6952H28.4191L27.7602 35.7034L29.4968 34.4701L31.2332 35.7034ZM26.2436 28.0159V26.3985C27.2936 26.8217 28.4158 27.018 29.5116 27.018C30.6447 27.018 31.7559 26.7764 32.7442 26.3443V28.0229L29.4968 32.0314L26.2436 28.0159ZM39.281 16.3102C39.2809 16.8763 39.0356 17.412 38.6081 17.7797C38.3254 18.0229 37.984 18.1783 37.6101 18.2392V14.3815C38.6034 14.5428 39.281 15.3667 39.281 16.3102ZM21.2037 18.2392C20.1991 18.0761 19.5328 17.2455 19.5328 16.31C19.5328 15.3861 20.2988 14.6341 21.2037 14.4249V18.2392ZM21.2501 12.6638C20.9748 12.6954 20.6593 12.7699 20.4241 12.8499V10.7114C20.4241 5.75826 24.4536 1.72863 29.4068 1.72863C34.3599 1.72863 38.3894 5.75826 38.3894 10.7114V12.7906C38.1382 12.7142 37.8776 12.6637 37.6102 12.6399C37.6102 11.806 37.6174 11.9669 34.8893 9.0338C34.3875 8.49473 33.5576 8.3818 32.926 8.79446C29.915 10.7614 26.2419 11.7495 22.8528 11.5062C22.1094 11.4505 21.4323 11.9401 21.2501 12.6638ZM22.9323 18.9196V13.5276V13.2435C26.663 13.462 30.5744 12.3537 33.7343 10.3301C34.9855 11.6735 35.6631 12.3781 35.8816 12.6462C35.8816 13.3242 35.8816 18.1434 35.8816 18.9195C35.8816 22.4281 33.0207 25.2892 29.5117 25.2892C25.5714 25.2893 22.9323 22.2326 22.9323 18.9196ZM25.1926 35.4068L22.6518 30.3146L25.1055 29.3643L28.2446 33.239C26.6483 34.3726 25.3375 35.3039 25.1926 35.4068ZM26.1842 53.2039L28.6859 38.4236H30.3073L32.8089 53.2039L29.4966 56.848L26.1842 53.2039Z" fill="currentcolor"/>
</svg>
