<svg id="icon" viewBox="0 0 59 59" fill="currentcolor" xmlns="http://www.w3.org/2000/svg">
<path d="M32.3544 21.8875V18.0812H36.1607V12.3716H32.3544V8.56519H26.6448V12.3716H22.8384V18.0812H26.6448V21.8875H32.3544ZM24.7416 16.178V14.2748H28.548V10.4684H30.4512V14.2748H34.2576V16.178H30.4512V19.9844H28.548V16.178H24.7416Z" fill="currentcolor"/>
<path d="M18.5876 36.7146L19.385 37.2359L22.5023 32.4543L21.7068 31.9348C17.6481 29.2826 15.2255 24.815 15.2255 19.9845C15.2255 12.1139 21.6288 5.71056 29.4994 5.71056C37.3701 5.71056 43.7734 12.1139 43.7734 19.9845C43.7734 24.815 41.3507 29.2826 37.292 31.9348L36.4965 32.4543L39.6139 37.2359L40.4112 36.7146C46.0915 33.0025 49.483 26.7475 49.483 19.9845C49.483 8.96588 40.519 0.000976562 29.4994 0.000976562C18.4798 0.000976562 9.51587 8.96588 9.51587 19.9845C9.51587 26.7475 12.9073 33.0025 18.5876 36.7146ZM29.4994 1.90417C39.4694 1.90417 47.5798 10.0146 47.5798 19.9845C47.5798 25.7856 44.8212 31.1732 40.1542 34.58L39.1144 32.9844C43.2404 29.9345 45.6766 25.143 45.6766 19.9845C45.6766 11.0642 38.4197 3.80737 29.4994 3.80737C20.5791 3.80737 13.3223 11.0642 13.3223 19.9845C13.3223 25.143 15.7584 29.9345 19.8845 32.9844L18.8446 34.58C14.1777 31.1732 11.4191 25.7856 11.4191 19.9845C11.4191 10.0146 19.5295 1.90417 29.4994 1.90417Z" fill="currentcolor"/>
<path d="M57.0959 40.9196H49.4831C48.4334 40.9196 47.5799 41.7731 47.5799 42.8228V44.726H43.0226C42.4567 44.726 41.9093 44.5606 41.4391 44.2465L34.2338 39.4429C34.8606 38.5299 35.2091 37.4454 35.2091 36.3005C35.2091 35.4405 35.0056 34.5781 34.6209 33.8091L29.4995 23.5664L24.3782 33.8091C23.9935 34.5781 23.7899 35.4395 23.7899 36.3005C23.7899 36.3823 23.8081 36.4622 23.8108 36.544C23.2133 37.2256 22.8383 38.1075 22.8383 39.0828V39.3551C22.8383 40.6533 23.4837 41.8586 24.5626 42.5784L30.8605 46.7765L29.9409 47.696C29.4024 48.2355 28.6859 48.5324 27.9225 48.5324H19.5412L18.052 46.2969C16.7775 44.3854 15.9393 42.268 15.5615 40.0005C15.2827 38.3273 13.8488 37.1132 12.1528 37.1132H12.0195C10.1144 37.1132 8.56438 38.6633 8.56438 40.5692C8.56438 40.8889 8.60898 41.2081 8.69773 41.5181L9.49507 44.3092L6.21094 41.0241C5.52977 40.3439 4.6237 39.968 3.6131 39.968C2.64756 39.968 1.74057 40.3448 1.05707 41.026C0.3759 41.7095 0 42.6174 0 43.6308C0 44.5917 0.374041 45.494 1.05057 46.1715L8.57274 53.6927C9.50529 54.6253 10.6818 55.2553 11.9758 55.5142L24.0014 57.9187C24.4312 58.0047 24.8712 58.0483 25.307 58.0483H47.8452C48.1756 58.6147 48.7829 58.9999 49.484 58.9999H57.0968C58.1464 58.9999 59 58.1464 59 57.0967V42.8228C58.9991 41.7731 58.1464 40.9196 57.0959 40.9196ZM29.4995 27.8216L32.9184 34.6599C33.1716 35.1663 33.3059 35.7341 33.3059 36.3005C33.3059 37.0625 33.0573 37.7735 32.6368 38.3789L28.8602 35.861C28.2217 35.4344 27.4783 35.21 26.7121 35.21C26.4124 35.21 26.1234 35.2518 25.8428 35.3164C25.9055 35.092 25.9756 34.8685 26.0807 34.6599L29.4995 27.8216ZM10.5275 40.9967C10.4876 40.8569 10.4676 40.7133 10.4676 40.5692C10.4676 39.7129 11.1641 39.0164 12.0195 39.0164H12.1528C12.9149 39.0164 13.5593 39.5619 13.6839 40.3132C14.1067 42.8474 15.043 45.2162 16.4676 47.3526L17.2542 48.5324H14.9003C14.1378 48.5324 13.4213 48.2355 12.881 47.696L12.2662 47.0813L10.5275 40.9967ZM24.374 56.0527L12.3499 53.6481C11.4257 53.4637 10.5856 53.0134 9.91929 52.3471L2.39712 44.8259C2.0793 44.5081 1.9032 44.082 1.9032 43.5829C1.9032 43.1262 2.08116 42.6955 2.40362 42.3725C3.01835 41.7587 4.18601 41.6923 4.86439 42.3707L11.5344 49.0425C12.4344 49.9398 13.6286 50.4356 14.8994 50.4356H27.9225C29.1933 50.4356 30.3884 49.9398 31.2875 49.0416L31.9385 48.3906L33.3542 52.6394L35.1599 52.0372L33.1535 46.0182L25.6188 40.9949C25.07 40.6283 24.7415 40.0163 24.7415 39.3551V39.0828C24.7415 37.9965 25.6258 37.1132 26.7112 37.1132C27.1015 37.1132 27.4792 37.2275 27.8036 37.4445L40.382 45.83C41.1673 46.3522 42.0798 46.6292 43.0226 46.6292H47.5799V56.1451H25.307C24.9948 56.1451 24.6807 56.1145 24.374 56.0527ZM55.1927 57.0967V53.2904H53.2895V57.0967H49.4831V42.8228H53.2895V51.3872H55.1927V42.8228H57.0959L57.0968 57.0967H55.1927Z" fill="currentcolor"/>
</svg>
