<svg id="icon" viewBox="0 0 55 55" fill="currentcolor" xmlns="http://www.w3.org/2000/svg">
<path d="M37.1306 25.8669C37.1268 25.8669 37.1231 25.8669 37.1193 25.8669H32.5134V21.2497C32.5196 20.3184 31.7697 19.5583 30.8385 19.5521C30.8346 19.5521 30.8308 19.5521 30.8271 19.5521H24.1728C23.2416 19.5521 22.4866 20.3071 22.4866 21.2383V25.8556H17.8806C16.9494 25.8494 16.1893 26.5991 16.1831 27.5304C16.1831 27.538 16.1831 27.5455 16.1831 27.5532V34.1962C16.1831 35.1274 16.9381 35.8824 17.8693 35.8824H22.4866V40.4883C22.4804 41.4196 23.2303 42.1796 24.1615 42.1859C24.1653 42.1859 24.1691 42.1859 24.1728 42.1859H30.8158C31.7471 42.1859 32.502 41.4309 32.502 40.4997V35.8824H37.1193C38.0506 35.8886 38.8106 35.1387 38.8169 34.2075C38.8169 34.2037 38.8169 34.1998 38.8169 34.1962V27.5532C38.8169 26.6219 38.062 25.8669 37.1306 25.8669ZM36.5535 33.619H31.3817C30.7567 33.619 30.25 34.1257 30.25 34.7507V39.9225H24.75V34.7507C24.75 34.1257 24.2433 33.619 23.6183 33.619H18.4465V28.1303H23.6183C24.2433 28.1303 24.75 27.6236 24.75 26.9986V21.8155H30.2387V26.9873C30.2387 27.6123 30.7454 28.119 31.3704 28.119H36.5535V33.619Z" fill="currentcolor"/>
<path d="M47.1914 11.0871H37.8663V7.10358C37.925 5.28581 36.4989 3.76454 34.6811 3.70583C34.5885 3.70286 34.4958 3.70371 34.4033 3.70852H20.5967C18.7804 3.61388 17.2312 5.00954 17.1364 6.82575C17.1316 6.91827 17.1306 7.01093 17.1337 7.10358V11.0645H7.80864C4.20988 11.0645 0 13.1128 0 18.8731V43.4873C0 49.2476 4.20988 51.296 7.80864 51.296H47.1914C50.7901 51.296 55 49.2476 55 43.4873V18.8958C55 13.1355 50.8014 11.0871 47.1914 11.0871ZM19.3971 7.10358C19.3971 6.77539 19.3971 5.89268 20.608 5.89268H34.4033C35.6142 5.89268 35.6142 6.76408 35.6142 7.10358V11.0645H19.3971V7.10358ZM52.7366 43.4873C52.7366 48.4894 48.8663 49.0326 47.1914 49.0326H7.80864C6.14506 49.0326 2.26337 48.4894 2.26337 43.4873V18.8958C2.26337 13.8937 6.13375 13.3505 7.80864 13.3505H47.1914C48.8549 13.3505 52.7366 13.8937 52.7366 18.8958V43.4873Z" fill="currentcolor"/>
</svg>
