<svg id="icon" viewBox="0 0 49 42" fill="currentcolor" xmlns="http://www.w3.org/2000/svg">
<path fill-rule="evenodd" clip-rule="evenodd" d="M16.8174 0.0725175C16.5832 0.187608 16.3224 0.631231 13.1959 6.23215C12.7725 6.99071 12.0172 8.33898 11.5175 9.22832C10.2751 11.4395 9.86999 12.1623 6.48006 18.2168C4.85445 21.1202 3.5006 23.6317 3.47144 23.7979C3.42973 24.0357 3.47397 24.1522 3.67911 24.3449L3.93963 24.5896H17.1441H30.3484L30.6152 24.3924C31.0146 24.0974 30.9555 23.8039 30.2419 22.5384C29.8898 21.9141 29.28 20.8254 28.8866 20.1191C25.5433 14.1153 23.7134 10.8375 23.3911 10.2746C23.1813 9.9084 22.6656 8.98815 22.2451 8.2296C19.5922 3.44449 17.8011 0.276352 17.6927 0.176955C17.4911 -0.0077605 17.0804 -0.0568406 16.8174 0.0725175ZM17.9779 3.54512C18.408 4.3167 18.9765 5.3333 19.2413 5.80413C19.7229 6.66046 20.7965 8.58628 23.0326 12.6049C23.6876 13.782 24.3934 15.0447 24.601 15.4109C25.7498 17.4365 28.857 23.0526 28.857 23.1033C28.857 23.136 23.5944 23.1629 17.1623 23.1629C10.7302 23.1629 5.46764 23.1353 5.46764 23.1015C5.46764 23.0677 5.71206 22.6077 6.01085 22.079C6.30965 21.5503 6.82857 20.6256 7.16392 20.024C7.49927 19.4224 8.98029 16.7687 10.455 14.1268C15.4253 5.22335 16.3728 3.52381 16.7526 2.83175C16.9608 2.45252 17.1457 2.14215 17.1635 2.14215C17.1813 2.14215 17.5479 2.77354 17.9779 3.54512ZM21.4655 4.1396C21.3402 4.25735 21.263 4.45662 21.263 4.66273C21.263 4.86885 21.3402 5.06812 21.4655 5.18587C21.6632 5.37154 21.803 5.37611 27.2369 5.37611H32.8058V17.2115V29.0469L17.1623 29.0447L1.51879 29.0424V17.2568V5.47122H7.02581C12.1669 5.47122 12.5477 5.4599 12.7567 5.30097C13.0375 5.08743 13.0628 4.49875 12.8029 4.22891C12.6307 4.05028 12.4329 4.04448 6.52248 4.04448H0.419692L0.209896 4.29511L0 4.54574V20.6594V36.7731L0.248575 37.0066C0.488544 37.2321 0.545042 37.2401 1.90608 37.2401H3.31521L3.38366 37.8091C3.58404 39.4727 4.68708 40.9525 6.23391 41.6324C7.56387 42.217 9.35988 42.0947 10.6126 41.3341C11.914 40.5439 12.8591 38.9596 12.8591 37.5683V37.2401H13.5073H14.1555L14.2283 37.8292C14.4353 39.5044 15.5139 40.9445 17.0854 41.6439C17.7326 41.9318 17.8335 41.9483 18.9391 41.9483C20.0909 41.9483 20.1202 41.9428 20.8948 41.5834C21.8361 41.1466 22.5969 40.4681 23.0571 39.6551C23.4244 39.0063 23.6931 38.1382 23.6931 37.6006V37.2401H30.0214H36.3497V37.6481C36.3497 38.9814 37.3005 40.5637 38.5517 41.3126C39.4197 41.8322 40.2155 42.0225 41.3171 41.974C42.1712 41.9364 42.3749 41.8909 43.049 41.5862C44.6332 40.8705 45.7551 39.2611 45.7637 37.6919L45.7661 37.2401H47.0205C48.7198 37.2401 48.7291 37.2328 48.8226 35.8458C48.8609 35.2787 48.9231 31.3262 48.9609 27.0626C49.0275 19.5328 49.0237 19.297 48.8328 18.8351C48.474 17.9671 44.9778 12.4895 44.5425 12.1133C43.8004 11.4722 43.7239 11.4636 38.7617 11.4636H34.3246V7.95709C34.3246 4.55373 34.3184 4.44321 34.1147 4.19999L33.9049 3.94936H27.7864C21.803 3.94936 21.6636 3.95355 21.4655 4.1396ZM16.1737 6.25593C15.9029 6.44911 15.7997 6.83091 15.9073 7.242C15.9603 7.44517 16.031 8.18917 16.0641 8.89541C16.1691 11.1305 15.8447 12.153 14.5851 13.5561C13.3707 14.9091 12.9567 15.7834 12.8061 17.3132C12.7263 18.1233 12.927 19.115 13.3169 19.8378C14.13 21.3453 16.218 22.3406 17.9395 22.0415C18.9156 21.8719 19.9289 21.3553 20.7364 20.6154C21.5998 19.8243 22.0261 19.0527 22.1787 18.0047C22.4494 16.146 21.5532 13.2196 19.6314 9.6864C18.1338 6.93307 16.917 5.72575 16.1737 6.25593ZM18.9444 11.5552C21.1838 16.0791 21.3701 18.4405 19.5924 19.7695C18.5309 20.5629 17.5141 20.8264 16.5793 20.5502C15.7453 20.3038 15.1001 19.7958 14.699 19.0699C14.3629 18.4615 14.3594 18.4428 14.3995 17.4083C14.4498 16.1071 14.5933 15.7994 15.7702 14.4685C16.237 13.9405 16.7284 13.309 16.8624 13.0652C17.2479 12.3636 17.5101 11.3188 17.5827 10.1962L17.6497 9.15945L17.886 9.52679C18.0159 9.72882 18.4923 10.6417 18.9444 11.5552ZM43.4769 13.1693C43.8163 13.3664 43.8547 13.4227 46.1041 17.0322L47.5887 19.4145V22.2398V25.0652H40.9566H34.3246V19.0253V12.9854H38.7425C42.9322 12.9854 43.1766 12.9949 43.4769 13.1693ZM36.3147 15.7275C36.1648 15.8831 36.1471 16.2934 36.1471 19.6203V23.3393L36.4185 23.5398C36.6847 23.7365 36.7591 23.7397 40.3132 23.7131C43.6329 23.6883 43.9517 23.6717 44.1172 23.5162C44.2781 23.3651 44.298 23.1462 44.298 21.5188V19.6911L43.1518 17.7651C42.5214 16.7059 41.9372 15.7749 41.8536 15.6963C41.7263 15.5768 41.2776 15.5536 39.092 15.5536C36.6924 15.5536 36.4688 15.5675 36.3147 15.7275ZM40.94 16.9825C40.9653 17.0074 41.4009 17.737 41.908 18.6038L42.8298 20.1798V21.2433V22.3068H40.1972H37.5647V19.6594C37.5647 18.2033 37.5847 16.9931 37.6092 16.9701C37.6697 16.9133 40.8818 16.9253 40.94 16.9825ZM47.4874 27.7998V29.0601H40.906H34.3246V27.8394C34.3246 27.168 34.3436 26.6009 34.3668 26.5791C34.39 26.5574 37.3516 26.5395 40.9482 26.5395H47.4874V27.7998ZM47.4874 33.1976V35.8133H46.6315H45.7757L45.5652 35.3664C45.251 34.6992 44.619 33.9834 43.9621 33.5504C41.5744 31.9771 38.258 32.841 37.0296 35.3565L36.8065 35.8133H30.1979H23.5892L23.3169 35.2732C22.9015 34.4488 21.9959 33.5991 21.0792 33.1735C20.3208 32.8213 20.2972 32.8172 19.0914 32.8172C17.9083 32.8172 17.8494 32.8271 17.1623 33.142C16.2872 33.5431 15.3651 34.3901 14.9012 35.2188L14.5685 35.8133H13.6265H12.6844L12.3606 35.1955C11.5617 33.6712 10.0043 32.7696 8.16986 32.7696C6.34914 32.7696 4.81456 33.6865 3.98905 35.2676L3.70412 35.8133H2.61151H1.51879V33.1976V30.5819H24.5031H47.4874V33.1976ZM9.56532 34.4285C10.186 34.7139 10.8109 35.3256 11.1583 35.9882C11.3488 36.3513 11.3909 36.5868 11.3909 37.2891C11.3909 38.0668 11.3598 38.2059 11.0568 38.7847C9.86443 41.0618 6.58273 41.0411 5.29763 38.7482C5.03974 38.288 5.0121 38.147 5.0121 37.2876C5.012 36.478 5.04653 36.2757 5.24417 35.9279C5.71176 35.1053 6.61837 34.3814 7.42505 34.1868C8.00654 34.0465 8.97118 34.1555 9.56532 34.4285ZM20.2745 34.3657C20.9288 34.6376 21.5791 35.2334 21.9281 35.8809C22.1975 36.3808 22.2249 36.5194 22.2248 37.3827C22.2248 38.2302 22.1954 38.3857 21.9552 38.8095C21.3917 39.8033 20.4499 40.3812 19.2764 40.4532C17.3293 40.5727 15.7827 39.1718 15.7827 37.2885C15.7827 35.9157 16.7559 34.663 18.157 34.2324C18.7149 34.0609 19.6886 34.1223 20.2745 34.3657ZM42.4488 34.3657C43.1053 34.6385 43.7893 35.2649 44.1188 35.8949C44.3684 36.3728 44.3992 36.5358 44.3991 37.3827C44.3991 38.2299 44.3696 38.3859 44.1298 38.8095C43.7535 39.4742 43.2888 39.8869 42.549 40.2135C41.9818 40.464 41.8303 40.4902 41.1315 40.4587C39.849 40.401 38.8248 39.7558 38.2866 38.6668C37.0116 36.0868 39.7588 33.2479 42.4488 34.3657Z" fill="currentcolor"/>
</svg>
