<svg id="arrow" width="10" height="10" viewBox="0 0 10 10" fill="currentcolor" xmlns="http://www.w3.org/2000/svg">
    <path fill-rule="evenodd" clip-rule="evenodd" d="M9.8873 0.112621C10.001 0.226297 10.032 0.39871 9.96501 0.544876L5.73427 9.7756C5.65893 9.93997 5.47927 10.0297 5.30262 9.99112C5.12596 9.95256 5.00001 9.79616 5.00001 9.61535V5.00335H0.384652C0.20386 5.00335 0.0474731 4.87743 0.00889604 4.70081C-0.0296811 4.52418 0.0599665 4.34453 0.224295 4.26915L9.45502 0.0350343C9.60116 -0.0320022 9.77359 -0.00105534 9.8873 0.112621ZM2.14563 4.23412H5.19232C5.34533 4.23412 5.49207 4.29491 5.60026 4.4031C5.70846 4.51129 5.76924 4.65804 5.76924 4.81104V7.85309L8.83409 1.16614L2.14563 4.23412Z" fill="currentcolor" />
</svg>
