<svg width="112" height="31" viewBox="0 0 112 31" fill="none" xmlns="http://www.w3.org/2000/svg">
<rect x="0.5" y="0.5" width="111" height="29.5904" rx="2.5" stroke="#269EB7"/>
<path d="M25.2309 20.9708C24.5199 20.9708 23.9263 20.8718 23.4499 20.6739C22.9808 20.4687 22.629 20.2049 22.3944 19.8824C22.1599 19.5599 22.0243 19.2117 21.9877 18.8379V18.816C21.9877 18.7573 22.0097 18.7097 22.0536 18.673C22.1049 18.6364 22.1636 18.6181 22.2295 18.6181H23.6368C23.7907 18.6181 23.9043 18.684 23.9776 18.816C24.1608 19.2044 24.5639 19.3986 25.1869 19.3986C25.5827 19.3986 25.8942 19.3253 26.1214 19.1788C26.3559 19.0248 26.4732 18.8123 26.4732 18.5411C26.4732 18.2626 26.3669 18.0501 26.1543 17.9035C25.9418 17.7569 25.645 17.6836 25.2638 17.6836H24.4503C24.377 17.6836 24.311 17.6579 24.2524 17.6066C24.2011 17.548 24.1755 17.4784 24.1755 17.3978V16.5072C24.1755 16.4266 24.2011 16.3607 24.2524 16.3094C24.311 16.2507 24.377 16.2214 24.4503 16.2214H25.2419C25.557 16.2214 25.8062 16.1554 25.9894 16.0235C26.1727 15.8916 26.2643 15.6937 26.2643 15.4299C26.2643 15.1953 26.169 15.0048 25.9784 14.8582C25.7952 14.7116 25.535 14.6383 25.1979 14.6383C24.8754 14.6383 24.6152 14.6896 24.4173 14.7922C24.2268 14.8948 24.1058 15.0414 24.0545 15.232C24.0179 15.3053 23.9776 15.3566 23.9336 15.3859C23.8896 15.4152 23.8273 15.4299 23.7467 15.4299H22.2955C22.2295 15.4299 22.1709 15.4079 22.1196 15.3639C22.0756 15.3126 22.0573 15.2539 22.0646 15.188C22.1013 14.8069 22.2295 14.4587 22.4494 14.1436C22.6766 13.8211 23.0211 13.5609 23.4828 13.363C23.9519 13.1578 24.5382 13.0552 25.2419 13.0552C25.8502 13.0552 26.3852 13.1541 26.847 13.352C27.3087 13.5499 27.6642 13.8174 27.9134 14.1546C28.1626 14.4844 28.2872 14.8472 28.2872 15.243C28.2872 15.9686 27.9977 16.4926 27.4186 16.8151C27.7998 16.9983 28.0783 17.2548 28.2542 17.5846C28.4301 17.9071 28.518 18.2553 28.518 18.6291C28.518 19.0908 28.3824 19.5012 28.1113 19.8604C27.8474 20.2122 27.4663 20.487 26.9679 20.6849C26.4768 20.8755 25.8978 20.9708 25.2309 20.9708Z" fill="#269EB7"/>
<path d="M31.3311 20.9708C30.9426 20.9708 30.5872 20.8975 30.2647 20.7509C29.9495 20.597 29.7003 20.3917 29.5171 20.1352C29.3412 19.8714 29.2532 19.5819 29.2532 19.2667C29.2532 18.761 29.4585 18.3542 29.8689 18.0464C30.2867 17.7386 30.8583 17.526 31.5839 17.4087L32.9582 17.1999V17.0459C32.9582 16.7674 32.8995 16.5622 32.7823 16.4303C32.665 16.2984 32.4671 16.2324 32.1886 16.2324C32.02 16.2324 31.8808 16.2617 31.7708 16.3204C31.6609 16.379 31.5473 16.4596 31.43 16.5622C31.3274 16.6502 31.2505 16.7088 31.1992 16.7381C31.1772 16.7968 31.1369 16.8261 31.0782 16.8261H29.8799C29.8066 16.8261 29.7443 16.8041 29.693 16.7601C29.649 16.7088 29.6307 16.6502 29.638 16.5842C29.6454 16.3863 29.7406 16.1664 29.9239 15.9246C30.1144 15.6827 30.4003 15.4738 30.7814 15.2979C31.1698 15.122 31.6462 15.0341 32.2106 15.0341C33.1121 15.0341 33.779 15.2356 34.2115 15.6387C34.6439 16.0345 34.8601 16.5695 34.8601 17.2438V20.586C34.8601 20.6593 34.8345 20.7252 34.7832 20.7839C34.7319 20.8352 34.6659 20.8608 34.5853 20.8608H33.31C33.2367 20.8608 33.1707 20.8352 33.1121 20.7839C33.0608 20.7252 33.0351 20.6593 33.0351 20.586V20.2012C32.8739 20.4284 32.6467 20.6153 32.3535 20.7619C32.0677 20.9011 31.7269 20.9708 31.3311 20.9708ZM31.8478 19.7175C32.1849 19.7175 32.4561 19.6075 32.6613 19.3876C32.8739 19.1678 32.9802 18.8453 32.9802 18.4202V18.2663L32.0457 18.4312C31.3861 18.5484 31.0562 18.7793 31.0562 19.1238C31.0562 19.307 31.1332 19.4536 31.2871 19.5635C31.441 19.6662 31.6279 19.7175 31.8478 19.7175Z" fill="#269EB7"/>
<path d="M36.3755 20.8608C36.2949 20.8608 36.229 20.8352 36.1777 20.7839C36.1264 20.7326 36.1007 20.6666 36.1007 20.586V15.4189C36.1007 15.3382 36.1264 15.2723 36.1777 15.221C36.229 15.1697 36.2949 15.144 36.3755 15.144H41.4107C41.4914 15.144 41.5573 15.1697 41.6086 15.221C41.6673 15.2723 41.6966 15.3382 41.6966 15.4189V20.586C41.6966 20.6666 41.6673 20.7326 41.6086 20.7839C41.5573 20.8352 41.4914 20.8608 41.4107 20.8608H40.1135C40.0402 20.8608 39.9742 20.8352 39.9156 20.7839C39.8643 20.7252 39.8386 20.6593 39.8386 20.586V16.5842H37.9477V20.586C37.9477 20.6593 37.922 20.7252 37.8707 20.7839C37.8194 20.8352 37.7534 20.8608 37.6728 20.8608H36.3755Z" fill="#269EB7"/>
<path d="M48.5775 15.144C48.6507 15.144 48.713 15.1697 48.7643 15.221C48.8157 15.2723 48.8413 15.3346 48.8413 15.4079V20.586C48.8413 20.6593 48.8157 20.7252 48.7643 20.7839C48.713 20.8352 48.6471 20.8608 48.5665 20.8608H47.2692C47.1959 20.8608 47.1299 20.8352 47.0713 20.7839C47.02 20.7252 46.9943 20.6593 46.9943 20.586V17.5077L44.7626 20.6849C44.682 20.8022 44.5793 20.8608 44.4548 20.8608H43.2894C43.2161 20.8608 43.1538 20.8352 43.1025 20.7839C43.0512 20.7326 43.0255 20.6703 43.0255 20.597V15.4189C43.0255 15.3382 43.0512 15.2723 43.1025 15.221C43.1538 15.1697 43.2198 15.144 43.3004 15.144H44.5977C44.6783 15.144 44.7443 15.1697 44.7956 15.221C44.8469 15.2723 44.8725 15.3382 44.8725 15.4189V18.4861L47.0933 15.3199C47.1739 15.2026 47.2765 15.144 47.4011 15.144H48.5775Z" fill="#269EB7"/>
<path d="M52.6638 20.9708C51.8356 20.9708 51.165 20.7509 50.6519 20.3111C50.1389 19.864 49.864 19.2447 49.8274 18.4532L49.8164 18.0134L49.8274 17.5627C49.8567 16.7711 50.1279 16.1518 50.6409 15.7047C51.1613 15.2576 51.8356 15.0341 52.6638 15.0341C53.2868 15.0341 53.8108 15.1477 54.2359 15.3749C54.6684 15.5948 54.9872 15.8623 55.1924 16.1774C55.405 16.4853 55.5186 16.7674 55.5332 17.024C55.5405 17.0973 55.5149 17.1632 55.4563 17.2219C55.405 17.2732 55.339 17.2988 55.2584 17.2988H53.8622C53.7815 17.2988 53.7192 17.2805 53.6753 17.2438C53.6313 17.2072 53.591 17.1522 53.5543 17.0789C53.4664 16.8517 53.3528 16.6905 53.2135 16.5952C53.0816 16.4999 52.9094 16.4523 52.6968 16.4523C52.0958 16.4523 51.7843 16.8407 51.7623 17.6176L51.7513 18.0354L51.7623 18.3982C51.777 18.794 51.8613 19.0871 52.0152 19.2777C52.1764 19.4609 52.4036 19.5526 52.6968 19.5526C52.924 19.5526 53.1036 19.5049 53.2355 19.4096C53.3674 19.3144 53.4737 19.1531 53.5543 18.9259C53.591 18.8526 53.6313 18.7976 53.6753 18.761C53.7192 18.7243 53.7815 18.706 53.8622 18.706H55.2584C55.3317 18.706 55.394 18.7317 55.4453 18.783C55.5039 18.827 55.5332 18.8856 55.5332 18.9589C55.5332 19.1934 55.4306 19.4683 55.2254 19.7834C55.0275 20.0986 54.7123 20.3771 54.2799 20.619C53.8475 20.8535 53.3088 20.9708 52.6638 20.9708Z" fill="#269EB7"/>
<path d="M58.236 20.9708C57.8475 20.9708 57.4921 20.8975 57.1696 20.7509C56.8544 20.597 56.6052 20.3917 56.422 20.1352C56.2461 19.8714 56.1582 19.5819 56.1582 19.2667C56.1582 18.761 56.3634 18.3542 56.7738 18.0464C57.1916 17.7386 57.7633 17.526 58.4888 17.4087L59.8631 17.1999V17.0459C59.8631 16.7674 59.8044 16.5622 59.6872 16.4303C59.5699 16.2984 59.372 16.2324 59.0935 16.2324C58.9249 16.2324 58.7857 16.2617 58.6757 16.3204C58.5658 16.379 58.4522 16.4596 58.3349 16.5622C58.2323 16.6502 58.1554 16.7088 58.1041 16.7381C58.0821 16.7968 58.0418 16.8261 57.9831 16.8261H56.7848C56.7115 16.8261 56.6492 16.8041 56.5979 16.7601C56.5539 16.7088 56.5356 16.6502 56.5429 16.5842C56.5503 16.3863 56.6455 16.1664 56.8288 15.9246C57.0193 15.6827 57.3052 15.4738 57.6863 15.2979C58.0747 15.122 58.5511 15.0341 59.1155 15.0341C60.017 15.0341 60.684 15.2356 61.1164 15.6387C61.5488 16.0345 61.765 16.5695 61.765 17.2438V20.586C61.765 20.6593 61.7394 20.7252 61.6881 20.7839C61.6368 20.8352 61.5708 20.8608 61.4902 20.8608H60.2149C60.1416 20.8608 60.0756 20.8352 60.017 20.7839C59.9657 20.7252 59.94 20.6593 59.94 20.586V20.2012C59.7788 20.4284 59.5516 20.6153 59.2584 20.7619C58.9726 20.9011 58.6318 20.9708 58.236 20.9708ZM58.7527 19.7175C59.0898 19.7175 59.361 19.6075 59.5662 19.3876C59.7788 19.1678 59.8851 18.8453 59.8851 18.4202V18.2663L58.9506 18.4312C58.291 18.5484 57.9611 18.7793 57.9611 19.1238C57.9611 19.307 58.0381 19.4536 58.192 19.5635C58.3459 19.6662 58.5328 19.7175 58.7527 19.7175Z" fill="#269EB7"/>
<path d="M64.7316 20.8608C64.6584 20.8608 64.5924 20.8352 64.5338 20.7839C64.4825 20.7252 64.4568 20.6593 64.4568 20.586V16.5842H62.7857C62.7124 16.5842 62.6465 16.5586 62.5878 16.5072C62.5365 16.4486 62.5109 16.3827 62.5109 16.3094V15.4189C62.5109 15.3382 62.5365 15.2723 62.5878 15.221C62.6465 15.1697 62.7124 15.144 62.7857 15.144H67.9528C68.0335 15.144 68.0994 15.1697 68.1507 15.221C68.202 15.2723 68.2277 15.3382 68.2277 15.4189V16.3094C68.2277 16.3827 68.202 16.4486 68.1507 16.5072C68.0994 16.5586 68.0335 16.5842 67.9528 16.5842H66.2818V20.586C66.2818 20.6593 66.2561 20.7252 66.2048 20.7839C66.1535 20.8352 66.0876 20.8608 66.0069 20.8608H64.7316Z" fill="#269EB7"/>
<path d="M69.3035 20.8608C69.2228 20.8608 69.1569 20.8352 69.1056 20.7839C69.0543 20.7326 69.0286 20.6666 69.0286 20.586V15.4189C69.0286 15.3382 69.0543 15.2723 69.1056 15.221C69.1569 15.1697 69.2228 15.144 69.3035 15.144H70.6117C70.6924 15.144 70.7583 15.1697 70.8096 15.221C70.8609 15.2723 70.8866 15.3382 70.8866 15.4189V16.903H71.931C72.6639 16.903 73.2319 17.0826 73.635 17.4417C74.0455 17.7935 74.2507 18.2809 74.2507 18.9039C74.2507 19.5342 74.0418 20.018 73.6241 20.3551C73.2063 20.6922 72.6199 20.8608 71.865 20.8608H69.3035ZM71.7661 19.5965C72.0519 19.5965 72.2608 19.5416 72.3927 19.4316C72.5247 19.3217 72.5906 19.1458 72.5906 18.9039C72.5906 18.6547 72.5247 18.4678 72.3927 18.3432C72.2608 18.2186 72.0519 18.1563 71.7661 18.1563H70.8536V19.5965H71.7661Z" fill="#269EB7"/>
<path d="M77.7973 20.9708C76.969 20.9708 76.2984 20.7509 75.7854 20.3111C75.2723 19.864 74.9975 19.2447 74.9608 18.4532L74.9498 18.0134L74.9608 17.5627C74.9901 16.7711 75.2613 16.1518 75.7744 15.7047C76.2948 15.2576 76.969 15.0341 77.7973 15.0341C78.4202 15.0341 78.9443 15.1477 79.3694 15.3749C79.8018 15.5948 80.1206 15.8623 80.3258 16.1774C80.5384 16.4853 80.652 16.7674 80.6667 17.024C80.674 17.0973 80.6483 17.1632 80.5897 17.2219C80.5384 17.2732 80.4724 17.2988 80.3918 17.2988H78.9956C78.915 17.2988 78.8527 17.2805 78.8087 17.2438C78.7647 17.2072 78.7244 17.1522 78.6878 17.0789C78.5998 16.8517 78.4862 16.6905 78.3469 16.5952C78.215 16.4999 78.0428 16.4523 77.8302 16.4523C77.2292 16.4523 76.9177 16.8407 76.8958 17.6176L76.8848 18.0354L76.8958 18.3982C76.9104 18.794 76.9947 19.0871 77.1486 19.2777C77.3099 19.4609 77.5371 19.5526 77.8302 19.5526C78.0574 19.5526 78.237 19.5049 78.3689 19.4096C78.5009 19.3144 78.6071 19.1531 78.6878 18.9259C78.7244 18.8526 78.7647 18.7976 78.8087 18.761C78.8527 18.7243 78.915 18.706 78.9956 18.706H80.3918C80.4651 18.706 80.5274 18.7317 80.5787 18.783C80.6373 18.827 80.6667 18.8856 80.6667 18.9589C80.6667 19.1934 80.564 19.4683 80.3588 19.7834C80.1609 20.0986 79.8458 20.3771 79.4134 20.619C78.9809 20.8535 78.4422 20.9708 77.7973 20.9708Z" fill="#269EB7"/>
<path d="M86.6786 15.144C86.7592 15.144 86.8252 15.1697 86.8765 15.221C86.9278 15.2723 86.9534 15.3382 86.9534 15.4189V20.586C86.9534 20.6593 86.9278 20.7252 86.8765 20.7839C86.8252 20.8352 86.7592 20.8608 86.6786 20.8608H85.3373C85.264 20.8608 85.1981 20.8352 85.1394 20.7839C85.0881 20.7252 85.0625 20.6593 85.0625 20.586V19.0248H84.2709L83.3584 20.6959C83.2998 20.8059 83.2118 20.8608 83.0946 20.8608H81.7863C81.713 20.8608 81.6544 20.8388 81.6104 20.7949C81.5664 20.7509 81.5444 20.6996 81.5444 20.6409C81.5444 20.5823 81.5628 20.531 81.5994 20.487L82.6988 18.684C82.3836 18.5228 82.1454 18.3066 81.9842 18.0354C81.823 17.7569 81.7423 17.4344 81.7423 17.0679C81.7423 16.445 81.9476 15.9686 82.358 15.6387C82.7684 15.3089 83.3438 15.144 84.084 15.144H86.6786ZM85.0955 16.4083H84.183C83.9118 16.4083 83.7102 16.4596 83.5783 16.5622C83.4537 16.6648 83.3914 16.8334 83.3914 17.0679C83.3914 17.2878 83.4537 17.4601 83.5783 17.5846C83.7029 17.7019 83.8898 17.7606 84.139 17.7606H85.0955V16.4083Z" fill="#269EB7"/>
</svg>
