<svg width="292" height="63" viewBox="0 0 292 63" fill="none" xmlns="http://www.w3.org/2000/svg">
<path d="M65.25 30.9529C65.25 30.8713 65.25 30.7785 65.2463 30.6709C65.2426 30.3703 65.2352 30.0326 65.2277 29.6727C65.198 28.6373 65.1461 27.6057 65.0645 26.6334C64.9531 25.2937 64.7898 24.1768 64.5672 23.3381C64.3322 22.4629 63.8717 21.6646 63.2315 21.0232C62.5914 20.3817 61.7941 19.9196 60.9193 19.6828C59.8691 19.4008 57.8133 19.2264 54.9187 19.1187C53.542 19.0668 52.0687 19.0334 50.5955 19.0148C50.0797 19.0074 49.601 19.0037 49.1705 19H48.0795C47.649 19.0037 47.1703 19.0074 46.6545 19.0148C45.1813 19.0334 43.708 19.0668 42.3313 19.1187C39.4367 19.2301 37.3771 19.4045 36.3307 19.6828C35.4556 19.919 34.658 20.381 34.0178 21.0225C33.3776 21.664 32.9172 22.4626 32.6828 23.3381C32.4564 24.1768 32.2969 25.2937 32.1855 26.6334C32.1039 27.6057 32.052 28.6373 32.0223 29.6727C32.0111 30.0326 32.0074 30.3703 32.0037 30.6709C32.0037 30.7785 32 30.8713 32 30.9529V31.1607C32 31.2424 32 31.3352 32.0037 31.4428C32.0074 31.7434 32.0148 32.0811 32.0223 32.441C32.052 33.4764 32.1039 34.508 32.1855 35.4803C32.2969 36.8199 32.4602 37.9369 32.6828 38.7756C33.1578 40.5531 34.5531 41.9559 36.3307 42.4309C37.3771 42.7129 39.4367 42.8873 42.3313 42.9949C43.708 43.0469 45.1813 43.0803 46.6545 43.0988C47.1703 43.1062 47.649 43.11 48.0795 43.1137H49.1705C49.601 43.11 50.0797 43.1062 50.5955 43.0988C52.0687 43.0803 53.542 43.0469 54.9187 42.9949C57.8133 42.8836 59.8729 42.7092 60.9193 42.4309C62.6969 41.9559 64.0922 40.5568 64.5672 38.7756C64.7936 37.9369 64.9531 36.8199 65.0645 35.4803C65.1461 34.508 65.198 33.4764 65.2277 32.441C65.2389 32.0811 65.2426 31.7434 65.2463 31.4428C65.2463 31.3352 65.25 31.2424 65.25 31.1607V30.9529ZM62.5781 31.1459C62.5781 31.2238 62.5781 31.3092 62.5744 31.4094C62.5707 31.6988 62.5633 32.018 62.5559 32.3631C62.5299 33.3502 62.4779 34.3373 62.4 35.2539C62.2998 36.4488 62.1588 37.4285 61.9844 38.0854C61.7543 38.9426 61.0789 39.6217 60.2254 39.848C59.4461 40.0559 57.483 40.2228 54.8148 40.323C53.4641 40.375 52.0094 40.4084 50.5584 40.427C50.05 40.4344 49.5787 40.4381 49.1557 40.4381H48.0943L46.6916 40.427C45.2406 40.4084 43.7896 40.375 42.4352 40.323C39.767 40.2191 37.8002 40.0559 37.0246 39.848C36.1711 39.618 35.4957 38.9426 35.2656 38.0854C35.0912 37.4285 34.9502 36.4488 34.85 35.2539C34.7721 34.3373 34.7238 33.3502 34.6941 32.3631C34.683 32.018 34.6793 31.6951 34.6756 31.4094C34.6756 31.3092 34.6719 31.2201 34.6719 31.1459V30.9678C34.6719 30.8898 34.6719 30.8045 34.6756 30.7043C34.6793 30.4148 34.6867 30.0957 34.6941 29.7506C34.7201 28.7635 34.7721 27.7764 34.85 26.8598C34.9502 25.6648 35.0912 24.6852 35.2656 24.0283C35.4957 23.1711 36.1711 22.492 37.0246 22.2656C37.8039 22.0578 39.767 21.8908 42.4352 21.7906C43.7859 21.7387 45.2406 21.7053 46.6916 21.6867C47.2 21.6793 47.6713 21.6756 48.0943 21.6756H49.1557L50.5584 21.6867C52.0094 21.7053 53.4604 21.7387 54.8148 21.7906C57.483 21.8945 59.4498 22.0578 60.2254 22.2656C61.0789 22.4957 61.7543 23.1711 61.9844 24.0283C62.1588 24.6852 62.2998 25.6648 62.4 26.8598C62.4779 27.7764 62.5262 28.7635 62.5559 29.7506C62.567 30.0957 62.5707 30.4186 62.5744 30.7043C62.5744 30.8045 62.5781 30.8936 62.5781 30.9678V31.1459ZM45.3223 36.0295L53.9316 31.0197L45.3223 26.0842V36.0295Z" fill="#269EB7"/>
<path d="M76.77 34C76.6527 34 76.5567 33.9627 76.482 33.888C76.4073 33.8133 76.37 33.7173 76.37 33.6V23.2C76.37 23.0827 76.4073 22.9867 76.482 22.912C76.5673 22.8373 76.6633 22.8 76.77 22.8H85.65C85.7673 22.8 85.8633 22.8373 85.938 22.912C86.0127 22.9867 86.05 23.0827 86.05 23.2V33.6C86.05 33.7173 86.0127 33.8133 85.938 33.888C85.8633 33.9627 85.7673 34 85.65 34H83.586C83.4687 34 83.3727 33.9627 83.298 33.888C83.2233 33.8133 83.186 33.7173 83.186 33.6V25.36H79.25V33.6C79.25 33.7173 79.2073 33.8133 79.122 33.888C79.0473 33.9627 78.9513 34 78.834 34H76.77ZM92.0519 34.16C90.7292 34.16 89.7105 33.8453 88.9959 33.216C88.2812 32.5867 87.8919 31.7013 87.8279 30.56C87.8172 30.4213 87.8119 30.1813 87.8119 29.84C87.8119 29.4987 87.8172 29.2587 87.8279 29.12C87.8919 27.9893 88.2919 27.1093 89.0279 26.48C89.7639 25.84 90.7719 25.52 92.0519 25.52C93.3425 25.52 94.3559 25.84 95.0919 26.48C95.8279 27.1093 96.2279 27.9893 96.2919 29.12C96.3025 29.2587 96.3079 29.4987 96.3079 29.84C96.3079 30.1813 96.3025 30.4213 96.2919 30.56C96.2279 31.7013 95.8385 32.5867 95.1239 33.216C94.4092 33.8453 93.3852 34.16 92.0519 34.16ZM92.0519 32.208C92.5212 32.208 92.8679 32.0693 93.0919 31.792C93.3159 31.504 93.4439 31.0667 93.4759 30.48C93.4865 30.3733 93.4919 30.16 93.4919 29.84C93.4919 29.52 93.4865 29.3067 93.4759 29.2C93.4439 28.624 93.3105 28.192 93.0759 27.904C92.8519 27.616 92.5105 27.472 92.0519 27.472C91.1665 27.472 90.6972 28.048 90.6439 29.2L90.6279 29.84L90.6439 30.48C90.6652 31.0667 90.7879 31.504 91.0119 31.792C91.2465 32.0693 91.5932 32.208 92.0519 32.208ZM97.7211 35.76C97.6145 35.76 97.5185 35.7227 97.4331 35.648C97.3585 35.5733 97.3211 35.4773 97.3211 35.36V32.304C97.3211 32.1867 97.3585 32.0907 97.4331 32.016C97.5185 31.9413 97.6145 31.904 97.7211 31.904H97.8811C98.2758 31.8933 98.5478 31.6 98.6971 31.024C98.8571 30.448 98.9371 29.552 98.9371 28.336V26.08C98.9371 25.9627 98.9745 25.8667 99.0491 25.792C99.1345 25.7173 99.2305 25.68 99.3371 25.68H105.625C105.742 25.68 105.838 25.7173 105.913 25.792C105.998 25.8667 106.041 25.9627 106.041 26.08V31.888H106.713C106.83 31.888 106.926 31.9253 107.001 32C107.076 32.0747 107.113 32.1707 107.113 32.288V35.36C107.113 35.4773 107.076 35.5733 107.001 35.648C106.926 35.7227 106.83 35.76 106.713 35.76H104.825C104.718 35.76 104.622 35.7227 104.537 35.648C104.462 35.5733 104.425 35.4773 104.425 35.36V34H100.025V35.36C100.025 35.4773 99.9878 35.5733 99.9131 35.648C99.8385 35.7227 99.7425 35.76 99.6251 35.76H97.7211ZM103.337 31.888V27.776H101.513V28.624C101.513 30.16 101.321 31.2533 100.937 31.904L103.337 31.888ZM108.797 34C108.68 34 108.584 33.9627 108.509 33.888C108.434 33.8133 108.397 33.7173 108.397 33.6V26.08C108.397 25.9627 108.434 25.8667 108.509 25.792C108.584 25.7173 108.68 25.68 108.797 25.68H116.125C116.242 25.68 116.338 25.7173 116.413 25.792C116.498 25.8667 116.541 25.9627 116.541 26.08V33.6C116.541 33.7173 116.498 33.8133 116.413 33.888C116.338 33.9627 116.242 34 116.125 34H114.237C114.13 34 114.034 33.9627 113.949 33.888C113.874 33.8027 113.837 33.7067 113.837 33.6V27.776H111.085V33.6C111.085 33.7067 111.048 33.8027 110.973 33.888C110.898 33.9627 110.802 34 110.685 34H108.797ZM126.555 25.68C126.662 25.68 126.753 25.7173 126.827 25.792C126.902 25.8667 126.939 25.9573 126.939 26.064V33.6C126.939 33.7067 126.902 33.8027 126.827 33.888C126.753 33.9627 126.657 34 126.539 34H124.651C124.545 34 124.449 33.9627 124.363 33.888C124.289 33.8027 124.251 33.7067 124.251 33.6V29.12L121.003 33.744C120.886 33.9147 120.737 34 120.555 34H118.859C118.753 34 118.662 33.9627 118.587 33.888C118.513 33.8133 118.475 33.7227 118.475 33.616V26.08C118.475 25.9627 118.513 25.8667 118.587 25.792C118.662 25.7173 118.758 25.68 118.875 25.68H120.763C120.881 25.68 120.977 25.7173 121.051 25.792C121.126 25.8667 121.163 25.9627 121.163 26.08V30.544L124.395 25.936C124.513 25.7653 124.662 25.68 124.843 25.68H126.555ZM132.502 34.16C131.297 34.16 130.321 33.84 129.574 33.2C128.828 32.5493 128.428 31.648 128.374 30.496L128.358 29.856L128.374 29.2C128.417 28.048 128.812 27.1467 129.558 26.496C130.316 25.8453 131.297 25.52 132.502 25.52C133.409 25.52 134.172 25.6853 134.79 26.016C135.42 26.336 135.884 26.7253 136.182 27.184C136.492 27.632 136.657 28.0427 136.678 28.416C136.689 28.5227 136.652 28.6187 136.566 28.704C136.492 28.7787 136.396 28.816 136.278 28.816H134.246C134.129 28.816 134.038 28.7893 133.974 28.736C133.91 28.6827 133.852 28.6027 133.798 28.496C133.67 28.1653 133.505 27.9307 133.302 27.792C133.11 27.6533 132.86 27.584 132.55 27.584C131.676 27.584 131.222 28.1493 131.19 29.28L131.174 29.888L131.19 30.416C131.212 30.992 131.334 31.4187 131.558 31.696C131.793 31.9627 132.124 32.096 132.55 32.096C132.881 32.096 133.142 32.0267 133.334 31.888C133.526 31.7493 133.681 31.5147 133.798 31.184C133.852 31.0773 133.91 30.9973 133.974 30.944C134.038 30.8907 134.129 30.864 134.246 30.864H136.278C136.385 30.864 136.476 30.9013 136.55 30.976C136.636 31.04 136.678 31.1253 136.678 31.232C136.678 31.5733 136.529 31.9733 136.23 32.432C135.942 32.8907 135.484 33.296 134.854 33.648C134.225 33.9893 133.441 34.16 132.502 34.16ZM140.612 34.16C140.047 34.16 139.529 34.0533 139.06 33.84C138.601 33.616 138.239 33.3173 137.972 32.944C137.716 32.56 137.588 32.1387 137.588 31.68C137.588 30.944 137.887 30.352 138.484 29.904C139.092 29.456 139.924 29.1467 140.98 28.976L142.98 28.672V28.448C142.98 28.0427 142.895 27.744 142.724 27.552C142.553 27.36 142.265 27.264 141.86 27.264C141.615 27.264 141.412 27.3067 141.252 27.392C141.092 27.4773 140.927 27.5947 140.756 27.744C140.607 27.872 140.495 27.9573 140.42 28C140.388 28.0853 140.329 28.128 140.244 28.128H138.5C138.393 28.128 138.303 28.096 138.228 28.032C138.164 27.9573 138.137 27.872 138.148 27.776C138.159 27.488 138.297 27.168 138.564 26.816C138.841 26.464 139.257 26.16 139.812 25.904C140.377 25.648 141.071 25.52 141.892 25.52C143.204 25.52 144.175 25.8133 144.804 26.4C145.433 26.976 145.748 27.7547 145.748 28.736V33.6C145.748 33.7067 145.711 33.8027 145.636 33.888C145.561 33.9627 145.465 34 145.348 34H143.492C143.385 34 143.289 33.9627 143.204 33.888C143.129 33.8027 143.092 33.7067 143.092 33.6V33.04C142.857 33.3707 142.527 33.6427 142.1 33.856C141.684 34.0587 141.188 34.16 140.612 34.16ZM141.364 32.336C141.855 32.336 142.249 32.176 142.548 31.856C142.857 31.536 143.012 31.0667 143.012 30.448V30.224L141.652 30.464C140.692 30.6347 140.212 30.9707 140.212 31.472C140.212 31.7387 140.324 31.952 140.548 32.112C140.772 32.2613 141.044 32.336 141.364 32.336ZM150.065 34C149.959 34 149.863 33.9627 149.777 33.888C149.703 33.8027 149.665 33.7067 149.665 33.6V27.776H147.233C147.127 27.776 147.031 27.7387 146.945 27.664C146.871 27.5787 146.833 27.4827 146.833 27.376V26.08C146.833 25.9627 146.871 25.8667 146.945 25.792C147.031 25.7173 147.127 25.68 147.233 25.68H154.753C154.871 25.68 154.967 25.7173 155.041 25.792C155.116 25.8667 155.153 25.9627 155.153 26.08V27.376C155.153 27.4827 155.116 27.5787 155.041 27.664C154.967 27.7387 154.871 27.776 154.753 27.776H152.321V33.6C152.321 33.7067 152.284 33.8027 152.209 33.888C152.135 33.9627 152.039 34 151.921 34H150.065ZM156.719 34C156.602 34 156.506 33.9627 156.431 33.888C156.356 33.8133 156.319 33.7173 156.319 33.6V26.08C156.319 25.9627 156.356 25.8667 156.431 25.792C156.506 25.7173 156.602 25.68 156.719 25.68H158.623C158.74 25.68 158.836 25.7173 158.911 25.792C158.986 25.8667 159.023 25.9627 159.023 26.08V28.24H160.543C161.61 28.24 162.436 28.5013 163.023 29.024C163.62 29.536 163.919 30.2453 163.919 31.152C163.919 32.0693 163.615 32.7733 163.007 33.264C162.399 33.7547 161.546 34 160.447 34H156.719ZM160.303 32.16C160.719 32.16 161.023 32.08 161.215 31.92C161.407 31.76 161.503 31.504 161.503 31.152C161.503 30.7893 161.407 30.5173 161.215 30.336C161.023 30.1547 160.719 30.064 160.303 30.064H158.975V32.16H160.303ZM169.081 34.16C167.875 34.16 166.899 33.84 166.153 33.2C165.406 32.5493 165.006 31.648 164.953 30.496L164.937 29.856L164.953 29.2C164.995 28.048 165.39 27.1467 166.137 26.496C166.894 25.8453 167.875 25.52 169.081 25.52C169.987 25.52 170.75 25.6853 171.369 26.016C171.998 26.336 172.462 26.7253 172.76 27.184C173.07 27.632 173.235 28.0427 173.257 28.416C173.267 28.5227 173.23 28.6187 173.145 28.704C173.07 28.7787 172.974 28.816 172.857 28.816H170.825C170.707 28.816 170.617 28.7893 170.553 28.736C170.489 28.6827 170.43 28.6027 170.377 28.496C170.249 28.1653 170.083 27.9307 169.881 27.792C169.689 27.6533 169.438 27.584 169.129 27.584C168.254 27.584 167.801 28.1493 167.769 29.28L167.753 29.888L167.769 30.416C167.79 30.992 167.913 31.4187 168.137 31.696C168.371 31.9627 168.702 32.096 169.129 32.096C169.459 32.096 169.721 32.0267 169.913 31.888C170.105 31.7493 170.259 31.5147 170.377 31.184C170.43 31.0773 170.489 30.9973 170.553 30.944C170.617 30.8907 170.707 30.864 170.825 30.864H172.857C172.963 30.864 173.054 30.9013 173.128 30.976C173.214 31.04 173.257 31.1253 173.257 31.232C173.257 31.5733 173.107 31.9733 172.809 32.432C172.521 32.8907 172.062 33.296 171.433 33.648C170.803 33.9893 170.019 34.16 169.081 34.16ZM182.006 25.68C182.123 25.68 182.219 25.7173 182.294 25.792C182.369 25.8667 182.406 25.9627 182.406 26.08V33.6C182.406 33.7067 182.369 33.8027 182.294 33.888C182.219 33.9627 182.123 34 182.006 34H180.054C179.947 34 179.851 33.9627 179.766 33.888C179.691 33.8027 179.654 33.7067 179.654 33.6V31.328H178.502L177.174 33.76C177.089 33.92 176.961 34 176.79 34H174.886C174.779 34 174.694 33.968 174.63 33.904C174.566 33.84 174.534 33.7653 174.534 33.68C174.534 33.5947 174.561 33.52 174.614 33.456L176.214 30.832C175.755 30.5973 175.409 30.2827 175.174 29.888C174.939 29.4827 174.822 29.0133 174.822 28.48C174.822 27.5733 175.121 26.88 175.718 26.4C176.315 25.92 177.153 25.68 178.23 25.68H182.006ZM179.702 27.52H178.374C177.979 27.52 177.686 27.5947 177.494 27.744C177.313 27.8933 177.222 28.1387 177.222 28.48C177.222 28.8 177.313 29.0507 177.494 29.232C177.675 29.4027 177.947 29.488 178.31 29.488H179.702V27.52ZM188.157 34C188.039 34 187.943 33.9627 187.868 33.888C187.794 33.8133 187.757 33.7173 187.757 33.6V26.08C187.757 25.9627 187.794 25.8667 187.868 25.792C187.943 25.7173 188.039 25.68 188.157 25.68H190.045C190.162 25.68 190.258 25.7173 190.333 25.792C190.407 25.8667 190.445 25.9627 190.445 26.08V28.736H193.325V26.08C193.325 25.9627 193.362 25.8667 193.437 25.792C193.511 25.7173 193.607 25.68 193.725 25.68H195.613C195.73 25.68 195.826 25.7173 195.901 25.792C195.975 25.8667 196.013 25.9627 196.013 26.08V33.6C196.013 33.7067 195.975 33.8027 195.901 33.888C195.826 33.9627 195.73 34 195.613 34H193.725C193.607 34 193.511 33.9627 193.437 33.888C193.362 33.8133 193.325 33.7173 193.325 33.6V30.832H190.445V33.6C190.445 33.7067 190.407 33.8027 190.333 33.888C190.258 33.9627 190.162 34 190.045 34H188.157ZM200.456 34.16C199.89 34.16 199.373 34.0533 198.904 33.84C198.445 33.616 198.082 33.3173 197.816 32.944C197.56 32.56 197.432 32.1387 197.432 31.68C197.432 30.944 197.73 30.352 198.328 29.904C198.936 29.456 199.768 29.1467 200.824 28.976L202.824 28.672V28.448C202.824 28.0427 202.738 27.744 202.568 27.552C202.397 27.36 202.109 27.264 201.704 27.264C201.458 27.264 201.256 27.3067 201.096 27.392C200.936 27.4773 200.77 27.5947 200.6 27.744C200.45 27.872 200.338 27.9573 200.264 28C200.232 28.0853 200.173 28.128 200.088 28.128H198.344C198.237 28.128 198.146 28.096 198.072 28.032C198.008 27.9573 197.981 27.872 197.992 27.776C198.002 27.488 198.141 27.168 198.408 26.816C198.685 26.464 199.101 26.16 199.656 25.904C200.221 25.648 200.914 25.52 201.736 25.52C203.048 25.52 204.018 25.8133 204.648 26.4C205.277 26.976 205.592 27.7547 205.592 28.736V33.6C205.592 33.7067 205.554 33.8027 205.48 33.888C205.405 33.9627 205.309 34 205.192 34H203.336C203.229 34 203.133 33.9627 203.048 33.888C202.973 33.8027 202.936 33.7067 202.936 33.6V33.04C202.701 33.3707 202.37 33.6427 201.944 33.856C201.528 34.0587 201.032 34.16 200.456 34.16ZM201.208 32.336C201.698 32.336 202.093 32.176 202.392 31.856C202.701 31.536 202.856 31.0667 202.856 30.448V30.224L201.496 30.464C200.536 30.6347 200.056 30.9707 200.056 31.472C200.056 31.7387 200.168 31.952 200.392 32.112C200.616 32.2613 200.888 32.336 201.208 32.336ZM219.187 33.472C219.23 33.5147 219.251 33.584 219.251 33.68C219.251 33.7653 219.219 33.84 219.155 33.904C219.091 33.968 219.006 34 218.899 34H216.643C216.451 34 216.297 33.9147 216.179 33.744L214.307 30.832H213.459V33.6C213.459 33.7173 213.417 33.8133 213.331 33.888C213.257 33.9627 213.161 34 213.043 34H211.203C211.086 34 210.99 33.9627 210.915 33.888C210.841 33.8133 210.803 33.7173 210.803 33.6V26.08C210.803 25.9627 210.841 25.8667 210.915 25.792C210.99 25.7173 211.086 25.68 211.203 25.68H213.043C213.161 25.68 213.257 25.7173 213.331 25.792C213.417 25.8667 213.459 25.9627 213.459 26.08V28.736H214.339L216.051 25.936C216.169 25.7653 216.318 25.68 216.499 25.68H218.547C218.643 25.68 218.723 25.712 218.787 25.776C218.862 25.84 218.899 25.9147 218.899 26C218.899 26.0747 218.873 26.1493 218.819 26.224L216.643 29.712L219.187 33.472ZM223.003 34.16C222.437 34.16 221.92 34.0533 221.451 33.84C220.992 33.616 220.629 33.3173 220.363 32.944C220.107 32.56 219.979 32.1387 219.979 31.68C219.979 30.944 220.277 30.352 220.875 29.904C221.483 29.456 222.315 29.1467 223.371 28.976L225.371 28.672V28.448C225.371 28.0427 225.285 27.744 225.115 27.552C224.944 27.36 224.656 27.264 224.251 27.264C224.005 27.264 223.803 27.3067 223.643 27.392C223.483 27.4773 223.317 27.5947 223.147 27.744C222.997 27.872 222.885 27.9573 222.811 28C222.779 28.0853 222.72 28.128 222.635 28.128H220.891C220.784 28.128 220.693 28.096 220.618 28.032C220.555 27.9573 220.528 27.872 220.539 27.776C220.549 27.488 220.688 27.168 220.955 26.816C221.232 26.464 221.648 26.16 222.203 25.904C222.768 25.648 223.461 25.52 224.283 25.52C225.595 25.52 226.565 25.8133 227.195 26.4C227.824 26.976 228.139 27.7547 228.139 28.736V33.6C228.139 33.7067 228.101 33.8027 228.027 33.888C227.952 33.9627 227.856 34 227.739 34H225.883C225.776 34 225.68 33.9627 225.595 33.888C225.52 33.8027 225.483 33.7067 225.483 33.6V33.04C225.248 33.3707 224.917 33.6427 224.491 33.856C224.075 34.0587 223.579 34.16 223.003 34.16ZM223.755 32.336C224.245 32.336 224.64 32.176 224.939 31.856C225.248 31.536 225.403 31.0667 225.403 30.448V30.224L224.043 30.464C223.083 30.6347 222.603 30.9707 222.603 31.472C222.603 31.7387 222.715 31.952 222.939 32.112C223.163 32.2613 223.435 32.336 223.755 32.336ZM230.344 34C230.227 34 230.131 33.9627 230.056 33.888C229.981 33.8133 229.944 33.7173 229.944 33.6V26.08C229.944 25.9627 229.981 25.8667 230.056 25.792C230.131 25.7173 230.227 25.68 230.344 25.68H232.232C232.349 25.68 232.445 25.7173 232.52 25.792C232.595 25.8667 232.632 25.9627 232.632 26.08V28.736H235.512V26.08C235.512 25.9627 235.549 25.8667 235.624 25.792C235.699 25.7173 235.795 25.68 235.912 25.68H237.8C237.917 25.68 238.013 25.7173 238.088 25.792C238.163 25.8667 238.2 25.9627 238.2 26.08V33.6C238.2 33.7067 238.163 33.8027 238.088 33.888C238.013 33.9627 237.917 34 237.8 34H235.912C235.795 34 235.699 33.9627 235.624 33.888C235.549 33.8133 235.512 33.7173 235.512 33.6V30.832H232.632V33.6C232.632 33.7067 232.595 33.8027 232.52 33.888C232.445 33.9627 232.349 34 232.232 34H230.344ZM242.643 34.16C242.078 34.16 241.56 34.0533 241.091 33.84C240.632 33.616 240.27 33.3173 240.003 32.944C239.747 32.56 239.619 32.1387 239.619 31.68C239.619 30.944 239.918 30.352 240.515 29.904C241.123 29.456 241.955 29.1467 243.011 28.976L245.011 28.672V28.448C245.011 28.0427 244.926 27.744 244.755 27.552C244.584 27.36 244.296 27.264 243.891 27.264C243.646 27.264 243.443 27.3067 243.283 27.392C243.123 27.4773 242.958 27.5947 242.787 27.744C242.638 27.872 242.526 27.9573 242.451 28C242.419 28.0853 242.36 28.128 242.275 28.128H240.531C240.424 28.128 240.334 28.096 240.259 28.032C240.195 27.9573 240.168 27.872 240.179 27.776C240.19 27.488 240.328 27.168 240.595 26.816C240.872 26.464 241.288 26.16 241.843 25.904C242.408 25.648 243.102 25.52 243.923 25.52C245.235 25.52 246.206 25.8133 246.835 26.4C247.464 26.976 247.779 27.7547 247.779 28.736V33.6C247.779 33.7067 247.742 33.8027 247.667 33.888C247.592 33.9627 247.496 34 247.379 34H245.523C245.416 34 245.32 33.9627 245.235 33.888C245.16 33.8027 245.123 33.7067 245.123 33.6V33.04C244.888 33.3707 244.558 33.6427 244.131 33.856C243.715 34.0587 243.219 34.16 242.643 34.16ZM243.395 32.336C243.886 32.336 244.28 32.176 244.579 31.856C244.888 31.536 245.043 31.0667 245.043 30.448V30.224L243.683 30.464C242.723 30.6347 242.243 30.9707 242.243 31.472C242.243 31.7387 242.355 31.952 242.579 32.112C242.803 32.2613 243.075 32.336 243.395 32.336ZM249.457 34C249.339 34 249.238 33.9627 249.153 33.888C249.078 33.8027 249.041 33.7013 249.041 33.584V32.192C249.041 32.0853 249.073 32 249.137 31.936C249.211 31.8613 249.307 31.8133 249.425 31.792C249.734 31.76 249.969 31.6213 250.129 31.376C250.289 31.12 250.401 30.752 250.465 30.272C250.529 29.792 250.561 29.1467 250.561 28.336V26.08C250.561 25.9627 250.598 25.8667 250.673 25.792C250.758 25.7173 250.854 25.68 250.961 25.68H257.233C257.35 25.68 257.446 25.7173 257.521 25.792C257.606 25.8667 257.649 25.9627 257.649 26.08V33.6C257.649 33.7173 257.606 33.8133 257.521 33.888C257.446 33.9627 257.35 34 257.233 34H255.345C255.238 34 255.142 33.9627 255.057 33.888C254.982 33.8027 254.945 33.7067 254.945 33.6V27.776H253.121V28.624C253.121 30.0213 253.014 31.104 252.801 31.872C252.587 32.6293 252.219 33.1733 251.697 33.504C251.185 33.8347 250.438 34 249.457 34Z" fill="#269EB7"/>
<rect x="0.5" y="0.5" width="290.25" height="61.1137" rx="2.5" stroke="#269EB7"/>
</svg>
