<svg width="348" height="57" viewBox="0 0 348 57" fill="none" xmlns="http://www.w3.org/2000/svg">
<rect x="0.5" y="0.5" width="347" height="56" rx="2.5" fill="white"/>
<path d="M78.9214 34.16C77.8867 34.16 77.0227 34.016 76.3294 33.728C75.6467 33.4293 75.1347 33.0453 74.7934 32.576C74.452 32.1067 74.2547 31.6 74.2014 31.056V31.024C74.2014 30.9387 74.2334 30.8693 74.2974 30.816C74.372 30.7627 74.4574 30.736 74.5534 30.736H76.6014C76.8254 30.736 76.9907 30.832 77.0974 31.024C77.364 31.5893 77.9507 31.872 78.8574 31.872C79.4334 31.872 79.8867 31.7653 80.2174 31.552C80.5587 31.328 80.7294 31.0187 80.7294 30.624C80.7294 30.2187 80.5747 29.9093 80.2654 29.696C79.956 29.4827 79.524 29.376 78.9694 29.376H77.7854C77.6787 29.376 77.5827 29.3387 77.4974 29.264C77.4227 29.1787 77.3854 29.0773 77.3854 28.96V27.664C77.3854 27.5467 77.4227 27.4507 77.4974 27.376C77.5827 27.2907 77.6787 27.248 77.7854 27.248H78.9374C79.396 27.248 79.7587 27.152 80.0254 26.96C80.292 26.768 80.4254 26.48 80.4254 26.096C80.4254 25.7547 80.2867 25.4773 80.0094 25.264C79.7427 25.0507 79.364 24.944 78.8734 24.944C78.404 24.944 78.0254 25.0187 77.7374 25.168C77.46 25.3173 77.284 25.5307 77.2094 25.808C77.156 25.9147 77.0974 25.9893 77.0334 26.032C76.9694 26.0747 76.8787 26.096 76.7614 26.096H74.6494C74.5534 26.096 74.468 26.064 74.3934 26C74.3294 25.9253 74.3027 25.84 74.3134 25.744C74.3667 25.1893 74.5534 24.6827 74.8734 24.224C75.204 23.7547 75.7054 23.376 76.3774 23.088C77.06 22.7893 77.9134 22.64 78.9374 22.64C79.8227 22.64 80.6014 22.784 81.2734 23.072C81.9454 23.36 82.4627 23.7493 82.8254 24.24C83.188 24.72 83.3694 25.248 83.3694 25.824C83.3694 26.88 82.948 27.6427 82.1054 28.112C82.66 28.3787 83.0654 28.752 83.3214 29.232C83.5774 29.7013 83.7054 30.208 83.7054 30.752C83.7054 31.424 83.508 32.0213 83.1134 32.544C82.7294 33.056 82.1747 33.456 81.4494 33.744C80.7347 34.0213 79.892 34.16 78.9214 34.16ZM87.7994 34.16C87.234 34.16 86.7167 34.0533 86.2474 33.84C85.7887 33.616 85.426 33.3173 85.1594 32.944C84.9034 32.56 84.7754 32.1387 84.7754 31.68C84.7754 30.944 85.074 30.352 85.6714 29.904C86.2794 29.456 87.1114 29.1467 88.1674 28.976L90.1674 28.672V28.448C90.1674 28.0427 90.082 27.744 89.9114 27.552C89.7407 27.36 89.4527 27.264 89.0474 27.264C88.802 27.264 88.5994 27.3067 88.4394 27.392C88.2794 27.4773 88.114 27.5947 87.9434 27.744C87.794 27.872 87.682 27.9573 87.6074 28C87.5754 28.0853 87.5167 28.128 87.4314 28.128H85.6874C85.5807 28.128 85.49 28.096 85.4154 28.032C85.3514 27.9573 85.3247 27.872 85.3354 27.776C85.346 27.488 85.4847 27.168 85.7514 26.816C86.0287 26.464 86.4447 26.16 86.9994 25.904C87.5647 25.648 88.258 25.52 89.0794 25.52C90.3914 25.52 91.362 25.8133 91.9914 26.4C92.6207 26.976 92.9354 27.7547 92.9354 28.736V33.6C92.9354 33.7067 92.898 33.8027 92.8234 33.888C92.7487 33.9627 92.6527 34 92.5354 34H90.6794C90.5727 34 90.4767 33.9627 90.3914 33.888C90.3167 33.8027 90.2794 33.7067 90.2794 33.6V33.04C90.0447 33.3707 89.714 33.6427 89.2874 33.856C88.8714 34.0587 88.3754 34.16 87.7994 34.16ZM88.5514 32.336C89.042 32.336 89.4367 32.176 89.7354 31.856C90.0447 31.536 90.1994 31.0667 90.1994 30.448V30.224L88.8394 30.464C87.8794 30.6347 87.3994 30.9707 87.3994 31.472C87.3994 31.7387 87.5114 31.952 87.7354 32.112C87.9594 32.2613 88.2314 32.336 88.5514 32.336ZM95.1409 34C95.0235 34 94.9275 33.9627 94.8529 33.888C94.7782 33.8133 94.7409 33.7173 94.7409 33.6V26.08C94.7409 25.9627 94.7782 25.8667 94.8529 25.792C94.9275 25.7173 95.0235 25.68 95.1409 25.68H102.469C102.586 25.68 102.682 25.7173 102.757 25.792C102.842 25.8667 102.885 25.9627 102.885 26.08V33.6C102.885 33.7173 102.842 33.8133 102.757 33.888C102.682 33.9627 102.586 34 102.469 34H100.581C100.474 34 100.378 33.9627 100.293 33.888C100.218 33.8027 100.181 33.7067 100.181 33.6V27.776H97.4289V33.6C97.4289 33.7067 97.3915 33.8027 97.3169 33.888C97.2422 33.9627 97.1462 34 97.0289 34H95.1409ZM112.899 25.68C113.006 25.68 113.096 25.7173 113.171 25.792C113.246 25.8667 113.283 25.9573 113.283 26.064V33.6C113.283 33.7067 113.246 33.8027 113.171 33.888C113.096 33.9627 113 34 112.883 34H110.995C110.888 34 110.792 33.9627 110.707 33.888C110.632 33.8027 110.595 33.7067 110.595 33.6V29.12L107.347 33.744C107.23 33.9147 107.08 34 106.899 34H105.203C105.096 34 105.006 33.9627 104.931 33.888C104.856 33.8133 104.819 33.7227 104.819 33.616V26.08C104.819 25.9627 104.856 25.8667 104.931 25.792C105.006 25.7173 105.102 25.68 105.219 25.68H107.107C107.224 25.68 107.32 25.7173 107.395 25.792C107.47 25.8667 107.507 25.9627 107.507 26.08V30.544L110.739 25.936C110.856 25.7653 111.006 25.68 111.187 25.68H112.899ZM118.846 34.16C117.641 34.16 116.665 33.84 115.918 33.2C115.171 32.5493 114.771 31.648 114.718 30.496L114.702 29.856L114.718 29.2C114.761 28.048 115.155 27.1467 115.902 26.496C116.659 25.8453 117.641 25.52 118.846 25.52C119.753 25.52 120.515 25.6853 121.134 26.016C121.763 26.336 122.227 26.7253 122.526 27.184C122.835 27.632 123.001 28.0427 123.022 28.416C123.033 28.5227 122.995 28.6187 122.91 28.704C122.835 28.7787 122.739 28.816 122.622 28.816H120.59C120.473 28.816 120.382 28.7893 120.318 28.736C120.254 28.6827 120.195 28.6027 120.142 28.496C120.014 28.1653 119.849 27.9307 119.646 27.792C119.454 27.6533 119.203 27.584 118.894 27.584C118.019 27.584 117.566 28.1493 117.534 29.28L117.518 29.888L117.534 30.416C117.555 30.992 117.678 31.4187 117.902 31.696C118.137 31.9627 118.467 32.096 118.894 32.096C119.225 32.096 119.486 32.0267 119.678 31.888C119.87 31.7493 120.025 31.5147 120.142 31.184C120.195 31.0773 120.254 30.9973 120.318 30.944C120.382 30.8907 120.473 30.864 120.59 30.864H122.622C122.729 30.864 122.819 30.9013 122.894 30.976C122.979 31.04 123.022 31.1253 123.022 31.232C123.022 31.5733 122.873 31.9733 122.574 32.432C122.286 32.8907 121.827 33.296 121.198 33.648C120.569 33.9893 119.785 34.16 118.846 34.16ZM126.956 34.16C126.39 34.16 125.873 34.0533 125.404 33.84C124.945 33.616 124.582 33.3173 124.316 32.944C124.06 32.56 123.932 32.1387 123.932 31.68C123.932 30.944 124.23 30.352 124.828 29.904C125.436 29.456 126.268 29.1467 127.324 28.976L129.324 28.672V28.448C129.324 28.0427 129.238 27.744 129.068 27.552C128.897 27.36 128.609 27.264 128.204 27.264C127.958 27.264 127.756 27.3067 127.596 27.392C127.436 27.4773 127.27 27.5947 127.1 27.744C126.95 27.872 126.838 27.9573 126.764 28C126.732 28.0853 126.673 28.128 126.588 28.128H124.844C124.737 28.128 124.646 28.096 124.572 28.032C124.508 27.9573 124.481 27.872 124.492 27.776C124.502 27.488 124.641 27.168 124.908 26.816C125.185 26.464 125.601 26.16 126.156 25.904C126.721 25.648 127.414 25.52 128.236 25.52C129.548 25.52 130.518 25.8133 131.148 26.4C131.777 26.976 132.092 27.7547 132.092 28.736V33.6C132.092 33.7067 132.054 33.8027 131.98 33.888C131.905 33.9627 131.809 34 131.692 34H129.836C129.729 34 129.633 33.9627 129.548 33.888C129.473 33.8027 129.436 33.7067 129.436 33.6V33.04C129.201 33.3707 128.87 33.6427 128.444 33.856C128.028 34.0587 127.532 34.16 126.956 34.16ZM127.708 32.336C128.198 32.336 128.593 32.176 128.892 31.856C129.201 31.536 129.356 31.0667 129.356 30.448V30.224L127.996 30.464C127.036 30.6347 126.556 30.9707 126.556 31.472C126.556 31.7387 126.668 31.952 126.892 32.112C127.116 32.2613 127.388 32.336 127.708 32.336ZM136.409 34C136.302 34 136.206 33.9627 136.121 33.888C136.046 33.8027 136.009 33.7067 136.009 33.6V27.776H133.577C133.47 27.776 133.374 27.7387 133.289 27.664C133.214 27.5787 133.177 27.4827 133.177 27.376V26.08C133.177 25.9627 133.214 25.8667 133.289 25.792C133.374 25.7173 133.47 25.68 133.577 25.68H141.097C141.214 25.68 141.31 25.7173 141.385 25.792C141.46 25.8667 141.497 25.9627 141.497 26.08V27.376C141.497 27.4827 141.46 27.5787 141.385 27.664C141.31 27.7387 141.214 27.776 141.097 27.776H138.665V33.6C138.665 33.7067 138.628 33.8027 138.553 33.888C138.478 33.9627 138.382 34 138.265 34H136.409ZM143.063 34C142.945 34 142.849 33.9627 142.775 33.888C142.7 33.8133 142.663 33.7173 142.663 33.6V26.08C142.663 25.9627 142.7 25.8667 142.775 25.792C142.849 25.7173 142.945 25.68 143.063 25.68H144.967C145.084 25.68 145.18 25.7173 145.255 25.792C145.329 25.8667 145.367 25.9627 145.367 26.08V28.24H146.887C147.953 28.24 148.78 28.5013 149.367 29.024C149.964 29.536 150.263 30.2453 150.263 31.152C150.263 32.0693 149.959 32.7733 149.351 33.264C148.743 33.7547 147.889 34 146.791 34H143.063ZM146.647 32.16C147.063 32.16 147.367 32.08 147.559 31.92C147.751 31.76 147.847 31.504 147.847 31.152C147.847 30.7893 147.751 30.5173 147.559 30.336C147.367 30.1547 147.063 30.064 146.647 30.064H145.319V32.16H146.647ZM155.424 34.16C154.219 34.16 153.243 33.84 152.496 33.2C151.75 32.5493 151.35 31.648 151.296 30.496L151.28 29.856L151.296 29.2C151.339 28.048 151.734 27.1467 152.48 26.496C153.238 25.8453 154.219 25.52 155.424 25.52C156.331 25.52 157.094 25.6853 157.712 26.016C158.342 26.336 158.806 26.7253 159.104 27.184C159.414 27.632 159.579 28.0427 159.6 28.416C159.611 28.5227 159.574 28.6187 159.488 28.704C159.414 28.7787 159.318 28.816 159.2 28.816H157.168C157.051 28.816 156.96 28.7893 156.896 28.736C156.832 28.6827 156.774 28.6027 156.72 28.496C156.592 28.1653 156.427 27.9307 156.224 27.792C156.032 27.6533 155.782 27.584 155.472 27.584C154.598 27.584 154.144 28.1493 154.112 29.28L154.096 29.888L154.112 30.416C154.134 30.992 154.256 31.4187 154.48 31.696C154.715 31.9627 155.046 32.096 155.472 32.096C155.803 32.096 156.064 32.0267 156.256 31.888C156.448 31.7493 156.603 31.5147 156.72 31.184C156.774 31.0773 156.832 30.9973 156.896 30.944C156.96 30.8907 157.051 30.864 157.168 30.864H159.2C159.307 30.864 159.398 30.9013 159.472 30.976C159.558 31.04 159.6 31.1253 159.6 31.232C159.6 31.5733 159.451 31.9733 159.152 32.432C158.864 32.8907 158.406 33.296 157.776 33.648C157.147 33.9893 156.363 34.16 155.424 34.16ZM168.35 25.68C168.467 25.68 168.563 25.7173 168.638 25.792C168.712 25.8667 168.75 25.9627 168.75 26.08V33.6C168.75 33.7067 168.712 33.8027 168.638 33.888C168.563 33.9627 168.467 34 168.35 34H166.398C166.291 34 166.195 33.9627 166.11 33.888C166.035 33.8027 165.998 33.7067 165.998 33.6V31.328H164.846L163.518 33.76C163.432 33.92 163.304 34 163.134 34H161.23C161.123 34 161.038 33.968 160.974 33.904C160.91 33.84 160.878 33.7653 160.878 33.68C160.878 33.5947 160.904 33.52 160.958 33.456L162.558 30.832C162.099 30.5973 161.752 30.2827 161.518 29.888C161.283 29.4827 161.166 29.0133 161.166 28.48C161.166 27.5733 161.464 26.88 162.062 26.4C162.659 25.92 163.496 25.68 164.574 25.68H168.35ZM166.046 27.52H164.718C164.323 27.52 164.03 27.5947 163.838 27.744C163.656 27.8933 163.566 28.1387 163.566 28.48C163.566 28.8 163.656 29.0507 163.838 29.232C164.019 29.4027 164.291 29.488 164.654 29.488H166.046V27.52ZM174.5 34C174.383 34 174.287 33.9627 174.212 33.888C174.138 33.8133 174.1 33.7173 174.1 33.6V26.08C174.1 25.9627 174.138 25.8667 174.212 25.792C174.287 25.7173 174.383 25.68 174.5 25.68H176.388C176.506 25.68 176.602 25.7173 176.676 25.792C176.751 25.8667 176.788 25.9627 176.788 26.08V28.736H179.668V26.08C179.668 25.9627 179.706 25.8667 179.78 25.792C179.855 25.7173 179.951 25.68 180.068 25.68H181.956C182.074 25.68 182.17 25.7173 182.244 25.792C182.319 25.8667 182.356 25.9627 182.356 26.08V33.6C182.356 33.7067 182.319 33.8027 182.244 33.888C182.17 33.9627 182.074 34 181.956 34H180.068C179.951 34 179.855 33.9627 179.78 33.888C179.706 33.8133 179.668 33.7173 179.668 33.6V30.832H176.788V33.6C176.788 33.7067 176.751 33.8027 176.676 33.888C176.602 33.9627 176.506 34 176.388 34H174.5ZM186.799 34.16C186.234 34.16 185.717 34.0533 185.247 33.84C184.789 33.616 184.426 33.3173 184.159 32.944C183.903 32.56 183.775 32.1387 183.775 31.68C183.775 30.944 184.074 30.352 184.671 29.904C185.279 29.456 186.111 29.1467 187.167 28.976L189.167 28.672V28.448C189.167 28.0427 189.082 27.744 188.911 27.552C188.741 27.36 188.453 27.264 188.047 27.264C187.802 27.264 187.599 27.3067 187.439 27.392C187.279 27.4773 187.114 27.5947 186.943 27.744C186.794 27.872 186.682 27.9573 186.607 28C186.575 28.0853 186.517 28.128 186.431 28.128H184.687C184.581 28.128 184.49 28.096 184.415 28.032C184.351 27.9573 184.325 27.872 184.335 27.776C184.346 27.488 184.485 27.168 184.751 26.816C185.029 26.464 185.445 26.16 185.999 25.904C186.565 25.648 187.258 25.52 188.079 25.52C189.391 25.52 190.362 25.8133 190.991 26.4C191.621 26.976 191.935 27.7547 191.935 28.736V33.6C191.935 33.7067 191.898 33.8027 191.823 33.888C191.749 33.9627 191.653 34 191.535 34H189.679C189.573 34 189.477 33.9627 189.391 33.888C189.317 33.8027 189.279 33.7067 189.279 33.6V33.04C189.045 33.3707 188.714 33.6427 188.287 33.856C187.871 34.0587 187.375 34.16 186.799 34.16ZM187.551 32.336C188.042 32.336 188.437 32.176 188.735 31.856C189.045 31.536 189.199 31.0667 189.199 30.448V30.224L187.839 30.464C186.879 30.6347 186.399 30.9707 186.399 31.472C186.399 31.7387 186.511 31.952 186.735 32.112C186.959 32.2613 187.231 32.336 187.551 32.336ZM201.083 34.16C199.76 34.16 198.742 33.8453 198.027 33.216C197.312 32.5867 196.923 31.7013 196.859 30.56C196.848 30.4213 196.843 30.1813 196.843 29.84C196.843 29.4987 196.848 29.2587 196.859 29.12C196.923 27.9893 197.323 27.1093 198.059 26.48C198.795 25.84 199.803 25.52 201.083 25.52C202.374 25.52 203.387 25.84 204.123 26.48C204.859 27.1093 205.259 27.9893 205.323 29.12C205.334 29.2587 205.339 29.4987 205.339 29.84C205.339 30.1813 205.334 30.4213 205.323 30.56C205.259 31.7013 204.87 32.5867 204.155 33.216C203.44 33.8453 202.416 34.16 201.083 34.16ZM201.083 32.208C201.552 32.208 201.899 32.0693 202.123 31.792C202.347 31.504 202.475 31.0667 202.507 30.48C202.518 30.3733 202.523 30.16 202.523 29.84C202.523 29.52 202.518 29.3067 202.507 29.2C202.475 28.624 202.342 28.192 202.107 27.904C201.883 27.616 201.542 27.472 201.083 27.472C200.198 27.472 199.728 28.048 199.675 29.2L199.659 29.84L199.675 30.48C199.696 31.0667 199.819 31.504 200.043 31.792C200.278 32.0693 200.624 32.208 201.083 32.208ZM215.152 29.648C215.174 29.904 215.184 30.1013 215.184 30.24C215.184 30.3787 215.174 30.5653 215.152 30.8C215.088 31.8667 214.699 32.6933 213.984 33.28C213.27 33.8667 212.251 34.16 210.928 34.16C209.499 34.16 208.448 33.8187 207.776 33.136C207.115 32.4427 206.752 31.3493 206.688 29.856L206.672 28.88L206.688 27.92C206.731 26.448 206.976 25.3387 207.424 24.592C207.872 23.8453 208.539 23.2853 209.424 22.912C210.32 22.5387 211.723 22.1387 213.632 21.712C213.664 21.7013 213.696 21.696 213.728 21.696C213.814 21.696 213.888 21.7173 213.952 21.76C214.048 21.824 214.102 21.9147 214.112 22.032L214.384 23.504L214.4 23.6C214.4 23.696 214.368 23.776 214.304 23.84C214.251 23.904 214.182 23.9467 214.096 23.968C212.667 24.256 211.664 24.4907 211.088 24.672C210.512 24.8533 210.08 25.1253 209.792 25.488C209.504 25.84 209.334 26.3893 209.28 27.136C209.526 26.88 209.835 26.6773 210.208 26.528C210.592 26.368 210.998 26.288 211.424 26.288C212.587 26.288 213.483 26.5813 214.112 27.168C214.742 27.7547 215.088 28.5813 215.152 29.648ZM212.336 30.736C212.347 30.6507 212.352 30.4853 212.352 30.24C212.352 29.984 212.347 29.808 212.336 29.712C212.283 28.6133 211.846 28.064 211.024 28.064C210.064 28.064 209.558 28.6133 209.504 29.712L209.488 30.24L209.504 30.736C209.526 31.2907 209.648 31.7067 209.872 31.984C210.107 32.2507 210.459 32.384 210.928 32.384C211.387 32.384 211.728 32.2507 211.952 31.984C212.187 31.7067 212.315 31.2907 212.336 30.736ZM224.661 25.68C224.757 25.68 224.837 25.7173 224.901 25.792C224.975 25.856 225.013 25.9307 225.013 26.016C225.013 26.0907 224.997 26.16 224.965 26.224L221.925 33.552C221.583 34.352 221.258 34.9973 220.949 35.488C220.65 35.9787 220.287 36.3627 219.861 36.64C219.445 36.9173 218.938 37.056 218.341 37.056H217.557C217.439 37.056 217.343 37.0187 217.269 36.944C217.194 36.8693 217.157 36.7733 217.157 36.656V35.36C217.157 35.2427 217.194 35.1467 217.269 35.072C217.343 34.9973 217.439 34.96 217.557 34.96H218.117C218.394 34.96 218.607 34.88 218.757 34.72C218.906 34.56 219.077 34.256 219.269 33.808L219.349 33.6L216.165 26.224C216.133 26.1387 216.117 26.0747 216.117 26.032C216.138 25.936 216.181 25.856 216.245 25.792C216.319 25.7173 216.405 25.68 216.501 25.68H218.293C218.517 25.68 218.671 25.792 218.757 26.016L220.565 30.64L222.469 26.016C222.554 25.792 222.714 25.68 222.949 25.68H224.661ZM231.521 34C231.414 34 231.318 33.9627 231.233 33.888C231.158 33.8027 231.121 33.7067 231.121 33.6V31.168C230.63 31.5627 229.905 31.76 228.945 31.76C227.91 31.76 227.132 31.4987 226.609 30.976C226.086 30.4533 225.825 29.6373 225.825 28.528V26.08C225.825 25.9627 225.862 25.8667 225.937 25.792C226.012 25.7173 226.108 25.68 226.225 25.68H228.177C228.294 25.68 228.39 25.7173 228.465 25.792C228.54 25.8667 228.577 25.9627 228.577 26.08V28.4C228.577 28.7733 228.668 29.04 228.849 29.2C229.03 29.3493 229.334 29.424 229.761 29.424C230.177 29.424 230.508 29.36 230.753 29.232C230.998 29.104 231.121 28.912 231.121 28.656V26.08C231.121 25.9627 231.158 25.8667 231.233 25.792C231.318 25.7173 231.414 25.68 231.521 25.68H233.569C233.686 25.68 233.782 25.7173 233.857 25.792C233.932 25.8667 233.969 25.9627 233.969 26.08V33.6C233.969 33.7067 233.932 33.8027 233.857 33.888C233.782 33.9627 233.686 34 233.569 34H231.521ZM239.768 34.16C238.488 34.16 237.48 33.8133 236.744 33.12C236.008 32.4267 235.624 31.4187 235.592 30.096V29.536C235.635 28.2773 236.024 27.296 236.76 26.592C237.507 25.8773 238.504 25.52 239.752 25.52C240.659 25.52 241.422 25.7067 242.04 26.08C242.67 26.4427 243.139 26.944 243.448 27.584C243.768 28.224 243.928 28.96 243.928 29.792V30.176C243.928 30.2827 243.891 30.3787 243.816 30.464C243.742 30.5387 243.646 30.576 243.528 30.576H238.408V30.688C238.43 31.1893 238.552 31.5947 238.776 31.904C239 32.2133 239.326 32.368 239.752 32.368C240.019 32.368 240.238 32.3147 240.408 32.208C240.579 32.0907 240.734 31.952 240.872 31.792C240.968 31.6747 241.043 31.6053 241.096 31.584C241.16 31.552 241.256 31.536 241.384 31.536H243.368C243.464 31.536 243.544 31.568 243.608 31.632C243.683 31.6853 243.72 31.76 243.72 31.856C243.72 32.1333 243.56 32.4533 243.24 32.816C242.931 33.1787 242.478 33.4933 241.88 33.76C241.283 34.0267 240.579 34.16 239.768 34.16ZM241.112 28.992V28.96C241.112 28.4373 240.99 28.0267 240.744 27.728C240.51 27.4187 240.179 27.264 239.752 27.264C239.336 27.264 239.006 27.4187 238.76 27.728C238.526 28.0267 238.408 28.4373 238.408 28.96V28.992H241.112ZM245.828 34C245.711 34 245.615 33.9627 245.54 33.888C245.466 33.8133 245.428 33.7173 245.428 33.6V26.08C245.428 25.9627 245.466 25.8667 245.54 25.792C245.615 25.7173 245.711 25.68 245.828 25.68H247.716C247.834 25.68 247.93 25.7173 248.004 25.792C248.079 25.8667 248.116 25.9627 248.116 26.08V28.736H250.996V26.08C250.996 25.9627 251.034 25.8667 251.108 25.792C251.183 25.7173 251.279 25.68 251.396 25.68H253.284C253.402 25.68 253.498 25.7173 253.572 25.792C253.647 25.8667 253.684 25.9627 253.684 26.08V33.6C253.684 33.7067 253.647 33.8027 253.572 33.888C253.498 33.9627 253.402 34 253.284 34H251.396C251.279 34 251.183 33.9627 251.108 33.888C251.034 33.8133 250.996 33.7173 250.996 33.6V30.832H248.116V33.6C248.116 33.7067 248.079 33.8027 248.004 33.888C247.93 33.9627 247.834 34 247.716 34H245.828ZM263.712 25.68C263.818 25.68 263.909 25.7173 263.984 25.792C264.058 25.8667 264.095 25.9573 264.095 26.064V33.6C264.095 33.7067 264.058 33.8027 263.984 33.888C263.909 33.9627 263.813 34 263.696 34H261.808C261.701 34 261.605 33.9627 261.52 33.888C261.445 33.8027 261.408 33.7067 261.408 33.6V29.12L258.16 33.744C258.042 33.9147 257.893 34 257.712 34H256.016C255.909 34 255.818 33.9627 255.743 33.888C255.669 33.8133 255.632 33.7227 255.632 33.616V26.08C255.632 25.9627 255.669 25.8667 255.743 25.792C255.818 25.7173 255.914 25.68 256.032 25.68H257.92C258.037 25.68 258.133 25.7173 258.208 25.792C258.282 25.8667 258.32 25.9627 258.32 26.08V30.544L261.552 25.936C261.669 25.7653 261.818 25.68 262 25.68H263.712ZM269.675 34.16C268.395 34.16 267.387 33.8133 266.651 33.12C265.915 32.4267 265.531 31.4187 265.499 30.096V29.536C265.541 28.2773 265.931 27.296 266.667 26.592C267.413 25.8773 268.411 25.52 269.659 25.52C270.565 25.52 271.328 25.7067 271.947 26.08C272.576 26.4427 273.045 26.944 273.355 27.584C273.675 28.224 273.835 28.96 273.835 29.792V30.176C273.835 30.2827 273.797 30.3787 273.723 30.464C273.648 30.5387 273.552 30.576 273.435 30.576H268.315V30.688C268.336 31.1893 268.459 31.5947 268.683 31.904C268.907 32.2133 269.232 32.368 269.659 32.368C269.925 32.368 270.144 32.3147 270.315 32.208C270.485 32.0907 270.64 31.952 270.779 31.792C270.875 31.6747 270.949 31.6053 271.003 31.584C271.067 31.552 271.163 31.536 271.291 31.536H273.275C273.371 31.536 273.451 31.568 273.515 31.632C273.589 31.6853 273.627 31.76 273.627 31.856C273.627 32.1333 273.467 32.4533 273.147 32.816C272.837 33.1787 272.384 33.4933 271.787 33.76C271.189 34.0267 270.485 34.16 269.675 34.16ZM271.019 28.992V28.96C271.019 28.4373 270.896 28.0267 270.651 27.728C270.416 27.4187 270.085 27.264 269.659 27.264C269.243 27.264 268.912 27.4187 268.667 27.728C268.432 28.0267 268.315 28.4373 268.315 28.96V28.992H271.019Z" fill="#269EB7"/>
<rect x="0.5" y="0.5" width="347" height="56" rx="2.5" stroke="#269EB7"/>
</svg>
