<svg width="41" height="59" viewBox="0 0 41 59" fill="none" xmlns="http://www.w3.org/2000/svg">
<path d="M39.5199 47.8042C39.0426 47.8042 38.6556 48.1911 38.6556 48.6684V56.7941C38.6556 57.0571 38.4415 57.2713 38.1785 57.2713H33.5326V40.2515C33.5326 39.7742 33.1456 39.3872 32.6683 39.3872C32.191 39.3872 31.804 39.7742 31.804 40.2515V57.2714H22.4487L25.1617 54.2868C25.4581 53.9607 25.5979 53.4962 25.5355 53.0438C25.5344 53.035 25.533 53.0263 25.5315 53.0175L22.9476 37.7527L23.6437 36.7048C24.0286 36.9781 24.3251 37.2413 24.8811 37.2413C25.4467 37.2413 25.9755 36.9248 26.2357 36.4037V36.4036L28.961 30.9415L35.1693 33.3458C35.3939 33.4422 38.6554 34.9109 38.6554 38.7893V44.6351C38.6553 45.1123 39.0423 45.4994 39.5197 45.4994C39.997 45.4994 40.3839 45.1124 40.3839 44.6351V38.7893C40.3839 33.6793 36.0086 31.8219 35.8224 31.7452C35.817 31.7429 35.8114 31.7407 35.8059 31.7387L25.4731 27.737V25.3137C27.1142 24.0373 28.2522 22.1453 28.5378 19.9867C29.3561 19.9291 30.1154 19.6235 30.7355 19.0903C31.5452 18.3939 32.0098 17.3805 32.0098 16.3102C32.0098 15.4219 31.6894 14.5738 31.1183 13.9129V10.7114C31.1182 4.80516 26.3131 0 20.4069 0C14.5007 0 9.69563 4.80516 9.69563 10.7114V13.9968C9.11842 14.651 8.80452 15.4563 8.80452 16.31C8.80452 17.3807 9.26892 18.3941 10.0789 19.0905C10.6985 19.6235 11.4573 19.9287 12.2754 19.9865C12.5634 22.1855 13.7345 24.1481 15.5154 25.4416V27.737L5.19377 31.7385C5.18835 31.7406 5.18294 31.7428 5.17752 31.745C4.99119 31.8216 0.615967 33.6791 0.615967 38.789V56.7938C0.615967 58.0101 1.60548 58.9997 2.82178 58.9997H11.0561C11.5334 58.9997 11.9203 58.6127 11.9203 58.1354C11.9203 57.6581 11.5334 57.2711 11.0561 57.2711H9.19655V40.2515C9.19655 39.7742 8.80959 39.3872 8.33229 39.3872C7.85499 39.3872 7.46803 39.7742 7.46803 40.2515V57.2714H2.8219C2.55882 57.2714 2.34471 57.0573 2.34471 56.7942V38.7892C2.34471 34.8978 5.62809 33.4324 5.82975 33.3462L12.0333 30.9412L14.7588 36.4036C15.0196 36.9259 15.5491 37.2413 16.1135 37.2413C16.6667 37.2413 16.9604 36.9822 17.3509 36.7048L18.047 37.7527L15.4633 53.0176C15.4618 53.0262 15.4606 53.0349 15.4593 53.0437C15.3968 53.4958 15.5366 53.9606 15.8331 54.2869L18.5461 57.2715H15.0896C14.6123 57.2715 14.2254 57.6584 14.2254 58.1357C14.2254 58.613 14.6123 59 15.0896 59H38.1786C39.3949 59 40.3844 58.0104 40.3844 56.7942V48.6685C40.3842 48.1911 39.9972 47.8042 39.5199 47.8042ZM27.342 30.3146L24.8012 35.4068C24.7381 35.362 23.3916 34.4053 21.7456 33.2365C22.4598 32.3548 21.6242 33.3862 24.884 29.3626L27.342 30.3146ZM22.2335 35.7034L21.5746 36.6952H19.4193L18.7604 35.7034L20.497 34.4701L22.2335 35.7034ZM17.2438 28.0159V26.3985C18.2938 26.8217 19.416 27.018 20.5119 27.018C21.645 27.018 22.7562 26.7764 23.7444 26.3443V28.0229L20.497 32.0314L17.2438 28.0159ZM30.2812 16.3102C30.2811 16.8763 30.0359 17.412 29.6084 17.7797C29.3257 18.0229 28.9843 18.1783 28.6103 18.2392V14.3815C29.6036 14.5428 30.2812 15.3667 30.2812 16.3102ZM12.2039 18.2392C11.1993 18.0761 10.533 17.2455 10.533 16.31C10.533 15.3861 11.299 14.6341 12.2039 14.4249V18.2392ZM12.2504 12.6638C11.9751 12.6954 11.6596 12.7699 11.4244 12.8499V10.7114C11.4244 5.75826 15.4539 1.72863 20.407 1.72863C25.3601 1.72863 29.3896 5.75826 29.3896 10.7114V12.7906C29.1384 12.7142 28.8779 12.6637 28.6104 12.6399C28.6104 11.806 28.6177 11.9669 25.8895 9.0338C25.3878 8.49473 24.5579 8.3818 23.9263 8.79446C20.9152 10.7614 17.2421 11.7495 13.8531 11.5062C13.1097 11.4505 12.4326 11.9401 12.2504 12.6638ZM13.9326 18.9196V13.5276V13.2435C17.6633 13.462 21.5747 12.3537 24.7345 10.3301C25.9857 11.6735 26.6633 12.3781 26.8818 12.6462C26.8818 13.3242 26.8818 18.1434 26.8818 18.9195C26.8818 22.4281 24.021 25.2892 20.512 25.2892C16.5717 25.2893 13.9326 22.2326 13.9326 18.9196ZM16.1929 35.4068L13.6521 30.3146L16.1058 29.3643L19.2449 33.239C17.6485 34.3726 16.3377 35.3039 16.1929 35.4068ZM17.1845 53.2039L19.6861 38.4236H21.3076L23.8092 53.2039L20.4969 56.848L17.1845 53.2039Z" fill="#152536"/>
</svg>
