<svg width="44" height="50" viewBox="0 0 44 50" fill="none" xmlns="http://www.w3.org/2000/svg">
<path d="M35.8167 30.4274L27.5051 28.8112V26.7574C29.8391 25.165 31.1029 22.91 31.3781 20.3773C32.5897 20.2812 33.5459 19.2648 33.5459 18.0292V16.3433C35.5211 15.4845 35.2545 12.6019 33.1648 12.1157V11.465C33.1648 5.61469 28.4219 0.871826 22.5721 0.871826H21.6838C15.8336 0.871826 11.0911 5.61469 11.0911 11.4645V12.1157C9.00232 12.6014 8.73401 15.4845 10.71 16.3433V18.0292C10.71 19.2648 11.6662 20.2812 12.8779 20.3773C13.118 22.587 14.1536 24.6096 15.7874 26.0161C16.1002 26.2857 16.4214 26.5327 16.7509 26.7574V28.8112L8.43921 30.4274C4.05396 31.2802 0.635986 33.7523 0.635986 38.3135V46.6572C0.635986 48.5034 2.13263 50 3.97876 50H40.2772C42.1233 50 43.6199 48.5034 43.6199 46.6572V38.3135C43.6199 33.7672 40.2229 31.2841 35.8167 30.4274ZM28.9889 30.7709C28.3933 31.637 27.4828 32.9589 26.4993 34.3824C26.0986 34.9631 25.3795 35.037 25.0984 34.8687L23.8026 34.0915C25.0663 33.3451 26.8151 32.0634 27.3457 30.4514L28.9889 30.7709ZM22.1277 33.1349C20.8819 32.5077 18.3983 30.9581 18.3915 29.4935C18.3915 29.4913 18.3915 29.4892 18.3915 29.4871V27.6631C20.7789 28.6928 23.474 28.6941 25.8644 27.6631V29.4871C25.8644 30.9542 23.3749 32.5073 22.1277 33.1349ZM12.7318 11.4645C12.7318 8.09955 14.598 5.16223 17.3499 3.63354V4.66193C17.3499 5.74628 18.9905 5.74799 18.9905 4.66193V2.92645C19.7266 2.6936 20.5034 2.55389 21.3074 2.52057V6.57684C21.3074 7.66119 22.9481 7.6629 22.9481 6.57684V2.52057C23.7521 2.55389 24.5293 2.6936 25.2654 2.92645V4.66193C25.2654 5.74628 26.9061 5.74799 26.9061 4.66193V3.63354C29.658 5.16223 31.5242 8.09955 31.5242 11.4645V12.0576H12.7318V11.4645ZM11.5978 13.6982H32.6581C33.4442 13.6982 33.4434 14.8864 32.6581 14.8864H11.5978C10.8113 14.8864 10.8121 13.6982 11.5978 13.6982ZM14.4664 19.5468C14.457 19.1007 14.0925 18.744 13.6461 18.744C13.5093 18.7102 12.3502 18.9572 12.3502 18.0292V16.5274H31.9053V18.0292C31.9053 18.9554 30.7154 18.7179 30.6094 18.744C30.1634 18.744 29.799 19.1007 29.7891 19.5468C29.7451 21.5975 28.8735 23.5022 27.3983 24.7728C24.2653 27.4705 19.9907 27.4709 16.8577 24.7728C15.382 23.5022 14.5104 21.5975 14.4664 19.5468ZM16.9098 30.4514C17.4409 32.0634 19.1891 33.3451 20.4534 34.0915C19.1545 34.787 19.2464 34.9951 18.6564 34.9255C18.2894 34.8815 17.96 34.6772 17.7498 34.373C16.7688 32.9529 15.8613 31.6348 15.2666 30.7709L16.9098 30.4514ZM7.44501 48.3594H3.97833C3.03839 48.3594 2.27618 47.5972 2.27618 46.6572V38.3135C2.27618 35.8552 3.39301 34.1556 5.84283 32.9815C5.94196 33.4182 7.44501 37.4979 7.44501 43.1987V48.3594ZM21.3074 48.3594H9.08563V43.1987C9.08563 37.022 7.52618 33.0447 7.3728 32.3714C8.33069 32.0531 7.61932 32.2983 13.5106 31.1123C15.2038 33.5728 18.3637 38.1636 20.2265 40.8112C20.934 41.8165 21.3074 42.9974 21.3074 44.2266V48.3594ZM22.1277 40.7958C21.9645 40.4758 21.7778 40.1656 21.5685 39.8674C20.9387 38.9728 20.1214 37.7987 19.2686 36.5678C19.522 36.5118 19.7693 36.4144 20.0013 36.2756L22.1277 35.0002L24.2546 36.2756C24.4861 36.4144 24.7339 36.5118 24.9873 36.5678C24.1345 37.7979 23.3172 38.9719 22.6874 39.8674C22.4777 40.1656 22.291 40.4758 22.1277 40.7958ZM41.9793 46.6572C41.9793 47.5972 41.2175 48.3594 40.2772 48.3594H36.8105V45.2644C36.8105 44.1801 35.1699 44.1783 35.1699 45.2644V48.3594H22.9481V44.2266C22.9481 42.9974 23.3219 41.8165 24.029 40.8116C25.0886 39.3056 29.4512 33.0101 30.7453 31.1123C36.6336 32.2979 35.9235 32.0527 36.8827 32.3714C36.7635 32.876 35.3831 36.6276 35.1925 41.9494C35.1532 43.0363 36.793 43.0897 36.8318 42.0084C37.0164 36.8583 38.2798 33.5446 38.4127 32.9815C40.8625 34.1556 41.9793 35.8552 41.9793 38.3131V46.6572Z" fill="#152536"/>
</svg>
