<svg width="45" height="63" viewBox="0 0 45 63" fill="none" xmlns="http://www.w3.org/2000/svg">
<path d="M43.9998 62H22.5H1.00023L1.00193 54.6269C1.00241 52.0698 1.03712 49.8666 1.0984 48.2105C1.12906 47.3816 1.16611 46.6973 1.20806 46.1777C1.25251 45.6269 1.29712 45.3411 1.32171 45.253L43.9998 62ZM43.9998 62L43.9981 54.6269C43.9976 52.3333 43.9618 50.1244 43.9047 48.4152C43.8762 47.5598 43.8425 46.8358 43.8057 46.2916C43.7873 46.019 43.7687 45.7987 43.7503 45.6332C43.7341 45.4868 43.7216 45.4176 43.7184 45.3994C43.7176 45.3949 43.7173 45.3935 43.7177 45.395C43.2067 43.5703 41.9304 41.9544 40.3171 41.0695C39.4992 40.6209 39.1414 40.45 38.4844 40.3413C37.7411 40.2184 36.6467 40.1831 34.3709 40.1331L34.3708 40.1331L29.8157 40.0327M43.9998 62L28.7873 38.5712M27.8595 9.47904C27.8595 9.47897 27.8595 9.4789 27.8595 9.47882C27.9848 8.11024 28.0893 5.63597 28.0893 4.00305V1.74003L27.4292 1.54992C27.4291 1.54992 27.4291 1.54991 27.4291 1.54991C26.5985 1.31077 25.1237 1.12319 23.5423 1.04261C21.9675 0.962359 20.4129 0.994503 19.4367 1.14754C18.485 1.29677 17.3491 1.56683 16.9342 1.72334L16.6854 1.81726L16.863 5.62664C16.863 5.62665 16.863 5.62665 16.863 5.62666C16.9807 8.14916 17.1456 10.5479 17.2209 11.0013L17.2209 11.0016L17.2214 11.0042C17.2335 11.0776 17.2698 11.2957 17.2162 11.5301C17.1899 11.6449 17.0928 11.9843 16.7326 12.1961C16.3322 12.4316 15.9501 12.3173 15.7916 12.2468C15.6326 12.1761 15.5246 12.0807 15.4763 12.0357C15.4178 11.9811 15.3699 11.9263 15.3342 11.8827C15.2627 11.7953 15.1951 11.697 15.1346 11.6027C14.8961 11.2313 14.5699 10.6101 14.2045 9.83904C13.1946 7.70856 12.715 6.71568 12.4076 6.24535C12.4035 6.23918 12.3996 6.23321 12.3958 6.22744C12.3511 6.24957 12.296 6.28114 12.2307 6.32512C12.0618 6.43866 11.8573 6.61248 11.6245 6.85297C11.1587 7.33401 10.6439 8.01472 10.1425 8.81961C9.13371 10.4389 8.26688 12.4182 7.96134 14.0132L27.8595 9.47904ZM27.8595 9.47904L27.6252 12.0307L29.5266 12.5462L30.7962 9.83485L30.7963 9.83473C31.7713 7.75186 32.2499 6.75862 32.5636 6.27893C32.5765 6.25916 32.5885 6.2413 32.5996 6.22518C32.6451 6.2474 32.7017 6.27962 32.7693 6.32512C32.9382 6.43866 33.1427 6.61248 33.3755 6.85297C33.8413 7.33401 34.3561 8.01472 34.8575 8.81961C35.8663 10.4389 36.7331 12.4182 37.0387 14.0132C37.0387 14.0133 37.0387 14.0133 37.0387 14.0133L38.0208 13.8252M27.8595 9.47904L39.0521 16.7902M15.2472 11.3247C15.2494 11.3497 15.252 11.3538 15.2479 11.329L15.2472 11.3247ZM15.2472 11.3247C15.2474 11.3261 15.2476 11.3275 15.2479 11.3288L15.2472 11.3247ZM38.0208 13.8252C38.3439 15.5123 38.4956 15.7904 39.0928 15.7904C39.987 15.7904 40.1786 16.333 40.1786 18.868C40.1786 21.7293 39.8829 22.1701 37.9646 22.1701H36.4162L36.2057 24.8017M38.0208 13.8252C37.35 10.3231 34.3112 5.44517 32.6459 5.197L38.0208 13.8252ZM36.2057 24.8017L35.2089 24.7219M36.2057 24.8017L35.2089 24.722L35.2089 24.7219M36.2057 24.8017C35.7615 30.3466 34.2276 34.3403 31.4148 37.2753M35.2089 24.7219L35.4194 22.0904L35.4931 21.1701H36.4162H37.9646C38.4275 21.1701 38.6872 21.1407 38.842 21.0959C38.9454 21.066 38.9558 21.0443 38.9594 21.0369C38.9598 21.0362 38.9601 21.0356 38.9604 21.0351C38.9908 20.9897 39.0608 20.846 39.1107 20.4621C39.1596 20.0865 39.1786 19.5769 39.1786 18.868C39.1786 17.6759 39.13 17.0834 39.0521 16.7902M35.2089 24.7219C34.7763 30.1213 33.2964 33.8668 30.6929 36.5833M39.0521 16.7902C39.066 16.7904 39.0796 16.7904 39.0928 16.7904C39.1581 16.7904 39.1837 16.7959 39.1835 16.7958C39.1833 16.7958 39.1515 16.7891 39.1069 16.7611C39.102 16.758 39.0973 16.7549 39.0928 16.7518C39.0343 16.7112 39.0122 16.6714 39.012 16.6715C39.0119 16.6715 39.0179 16.6829 39.028 16.7113C39.0363 16.7349 39.0443 16.761 39.0521 16.7902ZM30.6929 36.5833L30.6929 36.5833L31.4148 37.2753M30.6929 36.5833L29.0102 38.3386L28.7873 38.5712M30.6929 36.5833L31.4148 37.2753M31.4148 37.2753L30.6711 38.0511L29.7542 38.0309L29.7321 39.0306L30.454 39.7226L31.0887 39.0605L34.3929 39.1333L28.7873 38.5712M28.7873 38.5712C28.7413 38.5738 28.7038 38.5786 28.6786 38.5823C28.5837 38.5961 28.4947 38.6195 28.4313 38.6377C28.2961 38.6766 28.1355 38.7336 27.9696 38.7973C27.6315 38.927 27.1955 39.1138 26.7384 39.3267C26.3259 39.5189 25.8924 39.6936 25.5327 39.8184C25.3524 39.881 25.2008 39.9275 25.0859 39.9572C25.0043 39.9783 24.9646 39.9847 24.9568 39.9863M28.7873 38.5712C28.823 38.5692 28.8638 38.5685 28.9079 38.5708L28.9102 38.5709C28.9636 38.5735 29.1963 38.5851 29.4322 38.7431C29.4589 38.761 29.4856 38.7807 29.5121 38.8025C29.5128 38.8031 29.5136 38.8037 29.5143 38.8044C29.5838 38.8619 29.6395 38.9236 29.6842 38.9846C29.7016 39.0085 29.7174 39.0323 29.7316 39.0556C29.8278 39.2137 29.854 39.3538 29.8601 39.3861L29.8608 39.3898C29.8787 39.4828 29.8797 39.5585 29.8796 39.5913C29.8794 39.6633 29.872 39.7242 29.8683 39.7524C29.8597 39.8181 29.8463 39.8877 29.8341 39.947C29.8286 39.9737 29.8224 40.0023 29.8157 40.0327M28.7873 38.5712L27.8828 39.5147C27.8838 39.5038 27.8848 39.4961 27.8852 39.4927C27.8857 39.4893 27.8857 39.4892 27.885 39.4933C27.8843 39.4972 27.8829 39.5049 27.8805 39.5172L27.4366 39.9803L27.7085 39.9863C27.535 40.0617 27.3504 40.1448 27.1607 40.2332C26.2768 40.645 25.3006 40.9838 24.9911 40.986C24.302 40.9911 24.2809 41.2384 24.9501 41.9755C24.9222 41.9854 24.9027 41.9897 24.8955 41.991M24.9568 39.9863C24.7509 39.9891 24.4473 40.0087 24.1671 40.1369C24.0023 40.2123 23.7952 40.3479 23.6432 40.5864C23.4847 40.835 23.4463 41.1008 23.4656 41.3241C23.4981 41.6991 23.6972 42.0027 23.816 42.1692C23.9604 42.3716 24.1504 42.5884 24.3639 42.8139L24.364 42.8139L24.4007 42.8527M24.9568 39.9863C24.966 39.9862 24.9749 39.9861 24.9837 39.986M24.9568 39.9863C24.9559 39.9865 24.9554 39.9866 24.9554 39.9867C24.9554 39.987 24.9655 39.9862 24.9837 39.986M24.4007 42.8527L24.1987 43.0842L24.1986 43.0843L23.3989 44.0011L22.7978 44.6901L23.4304 45.3503L24.2025 46.1561L24.6263 46.5984M24.4007 42.8527L24.7704 42.4291L24.7708 42.4286L24.9984 42.1678L25.0234 42.1895L25.7519 42.8253M24.4007 42.8527L25.0258 43.5128L25.7519 42.8253M24.6263 46.5984L23.9625 50.4974L23.9625 50.4975C23.7553 51.7152 23.5922 52.8011 23.4969 53.5712C23.4498 53.9513 23.4165 54.2757 23.4048 54.5057C23.3998 54.6035 23.3944 54.7523 23.4117 54.8903C23.4167 54.9298 23.4264 54.9936 23.4477 55.0677C23.4636 55.1232 23.5123 55.283 23.644 55.4429C23.8076 55.6415 24.1405 55.8708 24.586 55.7981C24.9235 55.743 25.1186 55.5389 25.1731 55.4795C25.2646 55.3796 25.3174 55.2806 25.3298 55.2577C25.3523 55.2162 25.3706 55.1772 25.3837 55.1478C25.4105 55.088 25.4372 55.021 25.4621 54.9554C25.513 54.8215 25.575 54.6447 25.6453 54.4362C25.7867 54.0167 25.9732 53.4339 26.1909 52.7334C26.627 51.3306 27.1946 49.4352 27.7891 47.3845M24.6263 46.5984L24.7108 46.1021L25.6966 46.27M24.6263 46.5984L24.9746 46.9618L25.6966 46.27M27.7891 47.3845C28.3835 45.3344 28.9122 43.4584 29.2853 42.0865C29.4715 41.4016 29.6204 40.8372 29.7196 40.4378C29.7582 40.2822 29.7909 40.1451 29.8157 40.0327M27.7891 47.3845L26.8287 47.106M27.7891 47.3845C27.7891 47.3845 27.7891 47.3845 27.7891 47.3844L26.8287 47.106M29.8157 40.0327L29.7101 40.0304L28.7946 40.0102M28.7946 40.0102L24.8947 41.9912C24.895 41.9911 24.8952 41.9911 24.8955 41.991M28.7946 40.0102C28.7596 40.1565 28.7143 40.3373 28.6598 40.5489C28.7223 40.5622 28.7737 40.5665 28.807 40.5682C28.8895 40.5724 28.9495 40.5639 28.9658 40.5616C29.0035 40.5561 29.0155 40.5508 28.9842 40.5598C28.9302 40.5754 28.8312 40.6088 28.686 40.6646C28.6657 40.6723 28.6449 40.6804 28.6235 40.6888C28.2766 42.0209 27.6101 44.4108 26.8287 47.106M28.7946 40.0102L24.9602 41.9867M24.8955 41.991C24.903 41.99 24.9234 41.9878 24.9602 41.9867M24.8955 41.991L24.9602 41.9867M24.9602 41.9867C25.001 42.0314 25.0443 42.078 25.0901 42.1264L25.7519 42.8253M25.7519 42.8253L24.9522 43.7417L24.1525 44.6584L24.9245 45.4642L25.6966 46.27M25.6966 46.27L25.2323 48.9971C25.0622 49.571 24.8982 50.1186 24.7434 50.6303C24.5775 51.1786 24.4222 51.6857 24.2811 52.1397C24.0651 52.8344 23.884 53.3999 23.75 53.7975C23.6826 53.9975 23.63 54.1465 23.5925 54.2451C23.5733 54.2957 23.5623 54.3216 23.5586 54.3301C23.5564 54.3348 23.5611 54.3237 23.5719 54.3039C23.5725 54.3027 23.6154 54.219 23.6988 54.128C23.7452 54.0774 23.933 53.8782 24.2637 53.8242C24.3374 53.8122 24.4079 53.8086 24.475 53.8118C24.4136 54.325 24.3876 54.6686 24.4054 54.7757C24.411 54.8098 24.4211 54.8199 24.436 54.8037C24.4743 54.7619 24.5954 54.4296 24.7778 53.8763C24.9599 53.9473 25.0998 54.0646 25.1877 54.1713C25.314 54.3247 25.3581 54.4743 25.3701 54.5159C25.3874 54.5762 25.3938 54.6225 25.3961 54.641C25.3992 54.6655 25.3997 54.6804 25.3999 54.6804C25.4 54.6804 25.3996 54.6591 25.4022 54.6076C25.4101 54.4527 25.4359 54.1869 25.4817 53.8169C25.5721 53.0868 25.73 52.0328 25.9341 50.833L26.2081 49.2239C26.4083 48.5482 26.6167 47.8371 26.8287 47.106M24.9837 39.986H24.9839H24.9837ZM9.50694 21.1701L9.58057 22.0904L9.79109 24.7219C9.79109 24.7219 9.7911 24.7219 9.7911 24.722C10.2237 30.1213 11.7037 33.8668 14.3071 36.5833L15.9898 38.3386L16.2585 38.619C16.3018 38.623 16.3366 38.6282 16.3599 38.6319C16.5289 38.6584 16.7157 38.7133 16.8827 38.7688C17.2351 38.886 17.6932 39.0722 18.1783 39.2964L18.1786 39.2965C18.6145 39.498 19.0692 39.6808 19.4444 39.8114C19.6325 39.8768 19.7905 39.9256 19.91 39.9567C19.9953 39.979 20.0362 39.9857 20.0438 39.9873C20.292 39.9914 20.5959 40.0317 20.8778 40.1837C21.214 40.3649 21.5062 40.708 21.5462 41.1857C21.5802 41.5914 21.415 41.9229 21.2773 42.129C21.1294 42.3504 20.9338 42.547 20.7251 42.7189L20.725 42.719C20.6607 42.772 20.6407 42.8094 20.6354 42.821C20.631 42.8306 20.629 42.8383 20.6303 42.8542C20.6333 42.8912 20.6687 43.0525 20.9248 43.2825L20.9249 43.2825L21.5742 43.8656L22.3456 44.5584L21.6255 45.3042L20.8243 46.1341L20.8241 46.1342L20.3741 46.6006L21.0375 50.4974L21.0375 50.4975C21.2447 51.7152 21.4078 52.8011 21.5031 53.5712C21.5502 53.9513 21.5835 54.2757 21.5952 54.5057C21.6002 54.6035 21.6056 54.7523 21.5883 54.8903C21.5833 54.9298 21.5736 54.9936 21.5523 55.0677C21.5364 55.1232 21.4877 55.283 21.356 55.4429C21.1924 55.6415 20.8595 55.8708 20.414 55.7981C20.0765 55.743 19.8814 55.5389 19.8269 55.4794M9.50694 21.1701L20.564 54.8037M9.50694 21.1701H8.58375M9.50694 21.1701H8.58375M19.8269 55.4794L20.564 54.8037M19.8269 55.4794C19.827 55.4796 19.8272 55.4798 19.8273 55.4799L20.564 54.8037M19.8269 55.4794C19.7263 55.3697 19.6698 55.2563 19.6603 55.2372L19.6593 55.2351C19.639 55.1951 19.6224 55.1573 19.6107 55.1296C19.5867 55.0727 19.5619 55.0073 19.5381 54.942C19.4896 54.8086 19.4287 54.6297 19.3589 54.4175C19.2184 53.9908 19.0315 53.3992 18.8152 52.7005C18.3823 51.3017 17.8263 49.4563 17.2776 47.6048C16.7289 45.7532 16.1865 43.8917 15.7808 42.4605C15.5781 41.7456 15.4085 41.1341 15.289 40.6835C15.2295 40.459 15.1807 40.2682 15.1462 40.122C15.1391 40.092 15.1323 40.0626 15.126 40.034M20.564 54.8037C20.5322 54.769 20.413 54.4289 20.2328 53.8722C20.0455 53.9427 19.9019 54.0625 19.8123 54.1713C19.686 54.3247 19.6419 54.4743 19.6299 54.5159C19.6126 54.5762 19.6062 54.6225 19.6039 54.641C19.6008 54.6655 19.6003 54.6804 19.6001 54.6804C19.6 54.6804 19.6004 54.6591 19.5978 54.6076C19.5899 54.4527 19.5641 54.1869 19.5183 53.8169C19.4279 53.0868 19.27 52.0328 19.0659 50.833L18.7764 49.133C17.8417 46.0142 16.7978 42.4337 16.3267 40.6923C16.3006 40.6832 16.2756 40.6746 16.2516 40.6667C16.1883 40.6456 16.1376 40.6303 16.0993 40.62C16.0584 40.6089 16.0438 40.6067 16.0493 40.6076C16.0525 40.6081 16.0707 40.6109 16.0997 40.6123C16.1244 40.6135 16.1871 40.6153 16.2703 40.6015C16.2788 40.6 16.289 40.5982 16.3006 40.5959C16.2378 40.3622 16.1864 40.1653 16.1483 40.0115L15.2899 40.0304L15.126 40.034M15.126 40.034L10.6292 40.1331L10.6291 40.1331C8.36056 40.1829 7.26413 40.2187 6.52106 40.3406C5.86452 40.4484 5.50922 40.6171 4.70913 41.0569M15.126 40.034L4.70913 41.0569M20.211 45.3295L20.1047 45.4396L19.3034 46.27L20.211 45.3295ZM20.211 45.3295L20.2379 45.3537L20.906 44.6096L20.2778 44.0031L20.1866 43.9151L20.1636 43.9389C19.5005 43.2832 19.4504 42.5159 20.0411 41.9884C20.0422 41.9886 20.0433 41.9887 20.0442 41.9888M20.211 45.3295L17.2679 39.9868C17.4234 40.0525 17.5883 40.1253 17.7589 40.2042C18.6869 40.6332 19.6994 40.9854 20.0089 40.9869C20.6987 40.9908 20.7344 41.4157 20.0893 41.9471C20.0729 41.9606 20.0569 41.9743 20.0413 41.9882C20.0424 41.9884 20.0434 41.9886 20.0442 41.9888M20.0442 41.9888C20.0478 41.9894 20.0498 41.9896 20.0498 41.9896C20.0499 41.9895 20.0481 41.9892 20.0442 41.9888ZM4.70913 41.0569C3.04422 41.9724 1.80732 43.518 1.32175 45.2529L4.70913 41.0569ZM8.58375 21.1701H7.03543C6.57253 21.1701 6.31284 21.1407 6.15804 21.0959C6.05463 21.066 6.04416 21.0443 6.04058 21.0369C6.04023 21.0362 6.03994 21.0356 6.03964 21.0351C6.0092 20.9897 5.93917 20.846 5.88926 20.4621C5.84041 20.0865 5.82143 19.5769 5.82143 18.868C5.82143 17.6759 5.87003 17.0834 5.94795 16.7902M8.58375 21.1701L5.94795 16.7902M5.94795 16.7902C6.15809 16.7872 6.44486 16.7591 6.73404 16.6122C7.06349 16.4449 7.27878 16.1854 7.42391 15.9193C7.66728 15.4731 7.80894 14.8092 7.96132 14.0133L5.94795 16.7902ZM20.525 53.8118C20.5921 53.8086 20.6626 53.8122 20.7363 53.8242C21.0659 53.878 21.2536 54.0761 21.3007 54.1275L20.525 53.8118ZM32.7063 24.922L32.7063 24.922L32.9133 22.2473L32.9966 21.1701H31.9162H22.5H13.0838H12.0034L12.0867 22.2473L12.2937 24.922L12.2937 24.922C12.6823 29.938 14.5706 33.979 17.3136 36.2347C18.6928 37.3689 20.2942 38.0527 22.0058 38.1446C23.72 38.2366 25.4723 37.7309 27.1429 36.607C30.4312 34.3948 32.2959 30.2183 32.7063 24.922Z" stroke="white" stroke-width="2"/>
</svg>
