<svg width="59" height="36" viewBox="0 0 59 36" fill="none" xmlns="http://www.w3.org/2000/svg">
<path d="M57.0959 17.9196H49.4831C48.4334 17.9196 47.5799 18.7731 47.5799 19.8228V21.726H43.0226C42.4567 21.726 41.9093 21.5606 41.4391 21.2465L34.2338 16.4429C34.8606 15.5299 35.2091 14.4454 35.2091 13.3005C35.2091 12.4405 35.0056 11.5781 34.6209 10.8091L29.4995 0.566406L24.3782 10.8091C23.9935 11.5781 23.7899 12.4395 23.7899 13.3005C23.7899 13.3823 23.8081 13.4622 23.8108 13.544C23.2133 14.2256 22.8383 15.1075 22.8383 16.0828V16.3551C22.8383 17.6533 23.4837 18.8586 24.5626 19.5784L30.8605 23.7765L29.9409 24.696C29.4024 25.2355 28.6859 25.5324 27.9225 25.5324H19.5412L18.052 23.2969C16.7775 21.3854 15.9393 19.268 15.5615 17.0005C15.2827 15.3273 13.8488 14.1132 12.1528 14.1132H12.0195C10.1144 14.1132 8.56438 15.6633 8.56438 17.5692C8.56438 17.8889 8.60898 18.2081 8.69773 18.5181L9.49507 21.3092L6.21094 18.0241C5.52977 17.3439 4.6237 16.968 3.6131 16.968C2.64756 16.968 1.74057 17.3448 1.05707 18.026C0.3759 18.7095 0 19.6174 0 20.6308C0 21.5917 0.374041 22.494 1.05057 23.1715L8.57274 30.6927C9.50529 31.6253 10.6818 32.2553 11.9758 32.5142L24.0014 34.9187C24.4312 35.0047 24.8712 35.0483 25.307 35.0483H47.8452C48.1756 35.6147 48.7829 35.9999 49.484 35.9999H57.0968C58.1464 35.9999 59 35.1464 59 34.0967V19.8228C58.9991 18.7731 58.1464 17.9196 57.0959 17.9196ZM29.4995 4.82165L32.9184 11.6599C33.1716 12.1663 33.3059 12.7341 33.3059 13.3005C33.3059 14.0625 33.0573 14.7735 32.6368 15.3789L28.8602 12.861C28.2217 12.4344 27.4783 12.21 26.7121 12.21C26.4124 12.21 26.1234 12.2518 25.8428 12.3164C25.9055 12.092 25.9756 11.8685 26.0807 11.6599L29.4995 4.82165ZM10.5275 17.9967C10.4876 17.8569 10.4676 17.7133 10.4676 17.5692C10.4676 16.7129 11.1641 16.0164 12.0195 16.0164H12.1528C12.9149 16.0164 13.5593 16.5619 13.6839 17.3132C14.1067 19.8474 15.043 22.2162 16.4676 24.3526L17.2542 25.5324H14.9003C14.1378 25.5324 13.4213 25.2355 12.881 24.696L12.2662 24.0813L10.5275 17.9967ZM24.374 33.0527L12.3499 30.6481C11.4257 30.4637 10.5856 30.0134 9.91929 29.3471L2.39712 21.8259C2.0793 21.5081 1.9032 21.082 1.9032 20.5829C1.9032 20.1262 2.08116 19.6955 2.40362 19.3725C3.01835 18.7587 4.18601 18.6923 4.86439 19.3707L11.5344 26.0425C12.4344 26.9398 13.6286 27.4356 14.8994 27.4356H27.9225C29.1933 27.4356 30.3884 26.9398 31.2875 26.0416L31.9385 25.3906L33.3542 29.6394L35.1599 29.0372L33.1535 23.0182L25.6188 17.9949C25.07 17.6283 24.7415 17.0163 24.7415 16.3551V16.0828C24.7415 14.9965 25.6258 14.1132 26.7112 14.1132C27.1015 14.1132 27.4792 14.2275 27.8036 14.4445L40.382 22.83C41.1673 23.3522 42.0798 23.6292 43.0226 23.6292H47.5799V33.1451H25.307C24.9948 33.1451 24.6807 33.1145 24.374 33.0527ZM55.1927 34.0967V30.2904H53.2895V34.0967H49.4831V19.8228H53.2895V28.3872H55.1927V19.8228H57.0959L57.0968 34.0967H55.1927Z" fill="#152536"/>
</svg>
