<svg width="55" height="49" viewBox="0 0 55 49" fill="none" xmlns="http://www.w3.org/2000/svg">
<path d="M47.1914 8.08724H37.8663V4.10371C37.925 2.28593 36.4989 0.764662 34.6811 0.705956C34.5885 0.702985 34.4958 0.703834 34.4033 0.708644H20.5967C18.7804 0.614006 17.2312 2.00966 17.1364 3.82588C17.1316 3.91839 17.1306 4.01105 17.1337 4.10371V8.06461H7.80864C4.20988 8.06461 0 10.113 0 15.8733V40.4874C0 46.2477 4.20988 48.2961 7.80864 48.2961H47.1914C50.7901 48.2961 55 46.2477 55 40.4874V15.8959C55 10.1356 50.8014 8.08724 47.1914 8.08724ZM19.3971 4.10371C19.3971 3.77552 19.3971 2.8928 20.608 2.8928H34.4033C35.6142 2.8928 35.6142 3.7642 35.6142 4.10371V8.06461H19.3971V4.10371ZM52.7366 40.4874C52.7366 45.4895 48.8663 46.0327 47.1914 46.0327H7.80864C6.14506 46.0327 2.26337 45.4895 2.26337 40.4874V15.8959C2.26337 10.8938 6.13375 10.3506 7.80864 10.3506H47.1914C48.8549 10.3506 52.7366 10.8938 52.7366 15.8959V40.4874Z" fill="#152536"/>
</svg>
