<svg width="60" height="51" viewBox="0 0 60 51" fill="none" xmlns="http://www.w3.org/2000/svg">
<path fill-rule="evenodd" clip-rule="evenodd" d="M20.5928 0.088057C20.306 0.22781 19.9866 0.766495 16.1583 7.56762C15.6398 8.48872 14.7149 10.1259 14.103 11.2058C12.5818 13.8908 12.0857 14.7685 7.93477 22.1204C5.94422 25.646 4.28645 28.6956 4.25075 28.8975C4.19967 29.1863 4.25384 29.3276 4.50503 29.5616L4.82404 29.8588H20.9927H37.1613L37.488 29.6194C37.977 29.2611 37.9047 28.9048 37.0309 27.3681C36.5998 26.6099 35.8531 25.288 35.3714 24.4304C31.2775 17.14 29.0369 13.1598 28.6421 12.4763C28.3852 12.0316 27.7538 10.9142 27.2389 9.99308C23.9904 4.18259 21.7973 0.33557 21.6645 0.214874C21.4176 -0.00942346 20.9148 -0.0690208 20.5928 0.088057ZM22.0137 4.30479C22.5404 5.24171 23.2366 6.47616 23.5608 7.04787C24.1505 8.0877 25.465 10.4262 28.2032 15.306C29.0052 16.7353 29.8694 18.2685 30.1237 18.7132C31.5304 21.1729 35.3351 27.9925 35.3351 28.054C35.3351 28.0938 28.8911 28.1263 21.0151 28.1263C13.1391 28.1263 6.69506 28.0928 6.69506 28.0518C6.69506 28.0108 6.99436 27.4522 7.36023 26.8102C7.7261 26.1683 8.36151 25.0454 8.77214 24.3149C9.18277 23.5844 10.9963 20.3619 12.8021 17.154C18.8881 6.34264 20.0484 4.27892 20.5134 3.43855C20.7683 2.97806 20.9947 2.60119 21.0165 2.60119C21.0384 2.60119 21.4872 3.36786 22.0137 4.30479ZM26.2843 5.02665C26.1308 5.16964 26.0364 5.41161 26.0364 5.66189C26.0364 5.91218 26.1308 6.15415 26.2843 6.29713C26.5263 6.52259 26.6976 6.52813 33.3513 6.52813H40.1704V20.8997V35.2713L21.0151 35.2685L1.85974 35.2657V20.9547V6.64363H8.60303C14.8983 6.64363 15.3646 6.62988 15.6205 6.43689C15.9643 6.17759 15.9953 5.46277 15.677 5.1351C15.4662 4.9182 15.224 4.91115 7.98671 4.91115H0.513909L0.257016 5.21549L0 5.51983V25.0864V44.6531L0.304378 44.9365C0.598217 45.2104 0.667398 45.2201 2.33397 45.2201H4.05944L4.14325 45.911C4.38861 47.9312 5.73928 49.728 7.63336 50.5536C9.26188 51.2635 11.4611 51.115 12.995 50.1914C14.5885 49.2319 15.7458 47.3081 15.7458 45.6187V45.2201H16.5395H17.3333L17.4224 45.9355C17.6758 47.9696 18.9966 49.7183 20.921 50.5675C21.7133 50.9172 21.8369 50.9373 23.1907 50.9373C24.6011 50.9373 24.637 50.9306 25.5854 50.4941C26.7381 49.9637 27.6697 49.1399 28.2332 48.1526C28.6829 47.3648 29.0119 46.3106 29.0119 45.6578V45.2201H36.7609H44.5098V45.7156C44.5098 47.3345 45.6741 49.2559 47.2062 50.1653C48.2691 50.7962 49.2434 51.0273 50.5924 50.9684C51.6382 50.9228 51.8876 50.8675 52.7131 50.4976C54.6529 49.6284 56.0266 47.6742 56.0372 45.7687L56.0402 45.2201H57.5762C59.6569 45.2201 59.6683 45.2113 59.7828 43.527C59.8297 42.8384 59.9058 38.039 59.9521 32.8618C60.0336 23.7184 60.0291 23.4321 59.7952 22.8712C59.356 21.8172 55.0748 15.1658 54.5418 14.709C53.6332 13.9305 53.5394 13.92 47.4633 13.92H42.0301V9.66218C42.0301 5.52953 42.0226 5.39532 41.7731 5.09999L41.5162 4.79566H34.0242C26.6976 4.79566 26.5268 4.80074 26.2843 5.02665ZM19.8045 7.59649C19.473 7.83107 19.3466 8.29468 19.4783 8.79386C19.5433 9.04057 19.6298 9.94399 19.6703 10.8016C19.7989 13.5156 19.4017 14.7572 17.8593 16.461C16.3723 18.104 15.8653 19.1656 15.681 21.0232C15.5833 22.0069 15.829 23.2111 16.3064 24.0887C17.302 25.9193 19.8588 27.1278 21.9668 26.7647C23.1619 26.5588 24.4028 25.9314 25.3915 25.0329C26.4487 24.0723 26.9707 23.1354 27.1575 21.8629C27.4891 19.6059 26.3917 16.0524 24.0385 11.7621C22.2047 8.41872 20.7146 6.9527 19.8045 7.59649ZM23.1973 14.0314C25.9394 19.5246 26.1674 22.3921 23.9906 24.0058C22.6909 24.9693 21.4458 25.2892 20.3012 24.9538C19.2799 24.6546 18.4899 24.0378 17.9988 23.1563C17.5872 22.4176 17.583 22.3948 17.6321 21.1387C17.6937 19.5587 17.8694 19.185 19.3104 17.5688C19.882 16.9277 20.4838 16.1609 20.6478 15.8649C21.1198 15.013 21.4409 13.7442 21.5298 12.3811L21.6119 11.1222L21.9012 11.5682C22.0602 11.8136 22.6436 12.922 23.1973 14.0314ZM53.237 15.9913C53.6526 16.2306 53.6996 16.2989 56.454 20.682L58.2719 23.5748V27.0055V30.4363H50.151H42.0301V23.1021V15.768H47.4397C52.57 15.768 52.8693 15.7795 53.237 15.9913ZM44.467 19.0977C44.2834 19.2867 44.2618 19.7848 44.2618 23.8247V28.3406L44.5941 28.584C44.92 28.8229 45.0112 28.8268 49.3631 28.7945C53.4281 28.7643 53.8184 28.7442 54.0211 28.5554C54.2181 28.3719 54.2424 28.1061 54.2424 26.1299V23.9106L52.8389 21.5719C52.067 20.2857 51.3516 19.1552 51.2494 19.0598C51.0934 18.9146 50.544 18.8865 47.8677 18.8865C44.9295 18.8865 44.6557 18.9034 44.467 19.0977ZM50.1307 20.6216C50.1616 20.6518 50.695 21.5378 51.3159 22.5904L52.4447 24.5041V25.7955V27.0868H49.2211H45.9976V23.8722C45.9976 22.104 46.0221 20.6345 46.0521 20.6066C46.1261 20.5376 50.0594 20.5522 50.1307 20.6216ZM58.1479 33.7569V35.2872H50.089H42.0301V33.805C42.0301 32.9897 42.0534 32.3011 42.0818 32.2747C42.1102 32.2482 45.7367 32.2265 50.1407 32.2265H58.1479V33.7569ZM58.1479 40.3114V43.4876H57.0998H56.0518L55.7941 42.9449C55.4093 42.1348 54.6356 41.2655 53.8312 40.7398C50.9074 38.8293 46.8465 39.8784 45.3423 42.9329L45.0692 43.4876H36.977H28.8847L28.5513 42.8317C28.0426 41.8307 26.9337 40.7989 25.8112 40.2821C24.8826 39.8545 24.8537 39.8494 23.3772 39.8494C21.9286 39.8494 21.8564 39.8614 21.0151 40.2438C19.9435 40.7309 18.8144 41.7594 18.2464 42.7657L17.839 43.4876H16.6855H15.5319L15.1354 42.7374C14.1572 40.8865 12.2501 39.7917 10.0039 39.7917C7.77446 39.7917 5.89538 40.9051 4.88455 42.825L4.53566 43.4876H3.19776H1.85974V40.3114V37.1352H30.0038H58.1479V40.3114ZM11.7126 41.8061C12.4727 42.1526 13.2379 42.8953 13.6633 43.6999C13.8965 44.1409 13.948 44.4268 13.948 45.2796C13.948 46.224 13.91 46.3929 13.5389 47.0957C12.0789 49.8608 8.06049 49.8356 6.4869 47.0514C6.17111 46.4925 6.13727 46.3214 6.13727 45.2778C6.13714 44.2947 6.17942 44.049 6.42143 43.6268C6.99399 42.6278 8.10413 41.7489 9.0919 41.5126C9.80393 41.3422 10.9851 41.4746 11.7126 41.8061ZM24.8259 41.7298C25.6271 42.0599 26.4234 42.7834 26.8507 43.5696C27.1806 44.1767 27.2142 44.345 27.2141 45.3933C27.2141 46.4224 27.178 46.6113 26.8839 47.1258C26.1939 48.3325 25.0407 49.0343 23.6037 49.1217C21.2195 49.2668 19.3258 47.5657 19.3258 45.2789C19.3258 43.6119 20.5174 42.0908 22.2331 41.5679C22.9162 41.3597 24.1084 41.4342 24.8259 41.7298ZM51.9781 41.7298C52.782 42.0611 53.6195 42.8216 54.023 43.5867C54.3287 44.167 54.3664 44.3649 54.3663 45.3933C54.3663 46.422 54.3301 46.6115 54.0365 47.1258C53.5758 47.9329 53.0067 48.4341 52.1009 48.8307C51.4063 49.1349 51.2208 49.1667 50.3651 49.1284C48.7947 49.0583 47.5405 48.2749 46.8816 46.9526C45.3204 43.8197 48.6843 40.3725 51.9781 41.7298Z" fill="white"/>
</svg>
