<svg width="52" height="61" viewBox="0 0 52 61" fill="none" xmlns="http://www.w3.org/2000/svg">
<path d="M3.94987 35.2291L3.94989 35.2292C5.73498 42.7927 9.06313 50.1011 12.3345 53.8489L12.3345 53.8489C14.2725 56.0694 16.2205 57.5918 18.4014 58.5674C20.5837 59.5437 23.0609 60 26.0963 60C29.9201 60 33.2475 59.0676 36.1234 57.2108C39.0055 55.35 41.4894 52.525 43.5619 48.6584C47.7219 40.8974 50.1586 29.0644 50.8576 12.8979C50.9958 9.70142 51.0309 6.89766 50.9737 4.81689C50.9451 3.77429 50.8937 2.92978 50.8235 2.3149C50.7882 2.00621 50.7503 1.77394 50.7133 1.61196C50.6953 1.53315 50.681 1.48748 50.674 1.46628C50.6349 1.41337 50.6061 1.38248 50.587 1.36484C50.5759 1.35455 50.5688 1.34944 50.5657 1.34732L50.5626 1.34541L50.5618 1.34502L50.5602 1.34443C50.5592 1.34409 50.5573 1.3435 50.5543 1.34278C50.5484 1.34137 50.5365 1.339 50.5166 1.33752C50.4756 1.33444 50.4028 1.33526 50.286 1.35476C49.7523 1.44388 48.8484 1.81107 47.1422 2.64346C44.6076 3.8804 40.8539 4.82543 37.7667 5.01953L3.94987 35.2291ZM3.94987 35.2291C2.83537 30.5089 1.88841 22.8988 1.38539 16.0156C1.13432 12.5801 0.995494 9.34762 1.00011 6.76935C1.00242 5.47929 1.04066 4.36588 1.11646 3.47905C1.19468 2.56399 1.30658 1.97931 1.41695 1.69008L1.41708 1.68975M3.94987 35.2291L1.41708 1.68975M1.41708 1.68975C1.4985 1.47615 1.5586 1.32634 1.61409 1.21119M1.41708 1.68975L1.61409 1.21119M1.61409 1.21119C1.62478 1.18902 1.63447 1.16991 1.64315 1.15353M1.61409 1.21119L1.64315 1.15353M1.64315 1.15353C1.85838 1.18814 2.23789 1.31183 2.91945 1.61389C3.61139 1.92055 4.52129 2.36705 5.75423 2.9771C11.7146 5.92652 18.2554 5.97118 23.3748 2.95309L26.3754 1.18484L29.0066 2.99101C29.0066 2.99106 29.0067 2.99111 29.0068 2.99116C30.3965 3.94563 31.4833 4.56448 32.8279 4.87126C34.1406 5.17076 35.6246 5.15449 37.7665 5.01954L1.64315 1.15353Z" stroke="white" stroke-width="2"/>
</svg>
