<svg width="65" height="71" viewBox="0 0 65 71" fill="none" xmlns="http://www.w3.org/2000/svg">
<path d="M48.5784 30.7353V17.2988C48.5784 16.9142 48.4007 16.5588 48.1493 16.2777L33.085 0.458809C32.8039 0.163048 32.4041 0 32.0049 0H8.12083C3.7115 0 0.189453 3.59572 0.189453 8.00559V53.1687C0.189453 57.5786 3.7115 61.1153 8.12083 61.1153H26.9737C30.5396 67.0343 37.0215 71 44.4052 71C55.6219 71 64.7818 61.8845 64.7818 50.6532C64.797 40.8421 57.7529 32.6442 48.5784 30.7353ZM33.4848 5.19424L43.5916 15.8335H37.0361C35.0828 15.8335 33.4848 14.2209 33.4848 12.2676V5.19424ZM8.12083 58.1555C5.3539 58.1555 3.14923 55.9357 3.14923 53.1687V8.00559C3.14923 5.22349 5.3539 2.95978 8.12083 2.95978H30.525V12.2676C30.525 15.8633 33.4404 18.7933 37.0361 18.7933H45.6186V30.3502C45.1749 30.3356 44.8196 30.2911 44.435 30.2911C39.2705 30.2911 34.5205 32.2743 30.9394 35.3819H12.1461C11.332 35.3819 10.6662 36.0476 10.6662 36.8613C10.6662 37.6754 11.332 38.3411 12.1461 38.3411H28.1871C27.1362 39.821 26.263 41.3009 25.5827 42.9287H12.1461C11.332 42.9287 10.6662 43.5944 10.6662 44.4086C10.6662 45.2222 11.332 45.8885 12.1461 45.8885H24.6206C24.2506 47.3684 24.0583 49.0108 24.0583 50.6532C24.0583 53.3166 24.5762 55.9509 25.5084 58.1707H8.12083V58.1555ZM44.4204 68.0554C34.8314 68.0554 27.0328 60.2567 27.0328 50.6678C27.0328 41.0788 34.8163 33.2802 44.4204 33.2802C54.0239 33.2802 61.8074 41.0788 61.8074 50.6678C61.8074 60.2567 54.0093 68.0554 44.4204 68.0554Z" fill="#269EB7"/>
<path d="M12.1461 30.9276H27.1363C27.9504 30.9276 28.6161 30.2613 28.6161 29.4477C28.6161 28.6335 27.9504 27.9678 27.1363 27.9678H12.1461C11.332 27.9678 10.6663 28.6335 10.6663 29.4477C10.6663 30.2613 11.332 30.9276 12.1461 30.9276Z" fill="#269EB7"/>
<path d="M51.9964 50.3569L45.9149 56.9124V40.7533C45.9149 39.9392 45.2486 39.2734 44.435 39.2734C43.6208 39.2734 42.9551 39.9392 42.9551 40.7533V56.9124L36.8286 50.3569C36.2663 49.7654 35.3195 49.721 34.7274 50.2832C34.1353 50.8455 34.0909 51.7777 34.6537 52.3698L43.3104 61.6776C43.5916 61.9734 43.9762 62.151 44.3905 62.151C44.8049 62.151 45.1895 61.9734 45.4707 61.6776L54.1425 52.3698C54.7048 51.7777 54.675 50.8309 54.083 50.2832C53.4763 49.721 52.5592 49.7654 51.9964 50.3569Z" fill="#269EB7"/>
</svg>
