<svg width="30" height="30" viewBox="0 0 30 30" fill="none" xmlns="http://www.w3.org/2000/svg">
<path d="M28.125 23.4375L26.7994 22.1119L24.375 24.5363V16.875H22.5V24.5363L20.0756 22.1119L18.75 23.4375L23.4375 28.125L28.125 23.4375Z" fill="#269EB7"/>
<path d="M16.875 26.25H7.5V3.74995H15V9.37495C15.0015 9.87178 15.1995 10.3478 15.5508 10.6991C15.9021 11.0504 16.3782 11.2485 16.875 11.25H22.5V14.0625H24.375V9.37495C24.3783 9.25174 24.3549 9.12928 24.3063 9.01599C24.2578 8.9027 24.1853 8.80128 24.0938 8.7187L17.5313 2.1562C17.4487 2.06465 17.3473 1.99209 17.234 1.94354C17.1207 1.89498 16.9982 1.87158 16.875 1.87495H7.5C7.00318 1.87644 6.52712 2.07446 6.17581 2.42577C5.8245 2.77708 5.62648 3.25313 5.625 3.74995V26.25C5.62648 26.7468 5.8245 27.2228 6.17581 27.5741C6.52712 27.9254 7.00318 28.1235 7.5 28.125H16.875V26.25ZM16.875 4.12495L22.125 9.37495H16.875V4.12495Z" fill="#269EB7"/>
</svg>
