<svg width="21" height="27" viewBox="0 0 21 27" fill="none" xmlns="http://www.w3.org/2000/svg">
<path d="M20.2025 7.17324L14.108 1.07871C13.9381 0.908789 13.7087 0.8125 13.468 0.8125H1.4375C0.93623 0.8125 0.53125 1.21748 0.53125 1.71875V25.2812C0.53125 25.7825 0.93623 26.1875 1.4375 26.1875H19.5625C20.0638 26.1875 20.4688 25.7825 20.4688 25.2812V7.81611C20.4688 7.57539 20.3725 7.34316 20.2025 7.17324ZM18.3787 8.23242H13.0488V2.90254L18.3787 8.23242ZM18.4297 24.1484H2.57031V2.85156H11.123V8.96875C11.123 9.28421 11.2484 9.58675 11.4714 9.80982C11.6945 10.0329 11.997 10.1582 12.3125 10.1582H18.4297V24.1484ZM10.956 12.3672H10.044C9.88828 12.3672 9.75234 12.472 9.71553 12.6249L8.30801 18.2578L7.00244 12.6306C6.96562 12.4776 6.82969 12.3672 6.67109 12.3672H5.66855C5.61646 12.3673 5.56508 12.3793 5.51837 12.4024C5.47166 12.4254 5.43087 12.4589 5.39913 12.5002C5.3674 12.5415 5.34557 12.5896 5.33532 12.6406C5.32508 12.6917 5.32669 12.7445 5.34004 12.7948L7.44141 20.6112C7.48105 20.7585 7.61699 20.8633 7.76992 20.8633H8.67617C8.8291 20.8633 8.96504 20.7613 9.00469 20.6112L10.5 15.0321L11.9953 20.6112C12.035 20.7585 12.1709 20.8633 12.3238 20.8633H13.2244C13.3773 20.8633 13.5133 20.7613 13.5529 20.6112L15.66 12.7948C15.6732 12.7445 15.6747 12.6918 15.6644 12.6407C15.6541 12.5897 15.6323 12.5417 15.6006 12.5004C15.5689 12.4592 15.5281 12.4257 15.4815 12.4026C15.4348 12.3795 15.3835 12.3674 15.3314 12.3672H14.3232C14.1646 12.3672 14.0287 12.4776 13.9919 12.6306L12.6948 18.2691L11.2845 12.6249C11.2477 12.472 11.1117 12.3672 10.956 12.3672Z" fill="#269EB7"/>
</svg>
