<svg width="34" height="25" viewBox="0 0 34 25" fill="none" xmlns="http://www.w3.org/2000/svg">
<path d="M33.25 11.9529C33.25 11.8713 33.25 11.7785 33.2463 11.6709C33.2426 11.3703 33.2352 11.0326 33.2277 10.6727C33.198 9.6373 33.1461 8.60566 33.0645 7.6334C32.9531 6.29375 32.7898 5.17676 32.5672 4.33809C32.3322 3.46286 31.8717 2.66463 31.2315 2.02319C30.5914 1.38175 29.7941 0.919555 28.9193 0.682812C27.8691 0.400781 25.8133 0.226367 22.9187 0.11875C21.542 0.0667967 20.0687 0.0333982 18.5955 0.0148435C18.0797 0.00742165 17.601 0.00371094 17.1705 0H16.0795C15.649 0.00371094 15.1703 0.00742165 14.6545 0.0148435C13.1813 0.0333982 11.708 0.0667967 10.3313 0.11875C7.43672 0.230078 5.37715 0.404492 4.33066 0.682812C3.45563 0.918974 2.65803 1.38097 2.0178 2.0225C1.37757 2.66404 0.917196 3.46257 0.682813 4.33809C0.456445 5.17676 0.296875 6.29375 0.185547 7.6334C0.103906 8.60566 0.0519531 9.6373 0.0222656 10.6727C0.0111328 11.0326 0.00742182 11.3703 0.00371088 11.6709C0.00371088 11.7785 0 11.8713 0 11.9529V12.1607C0 12.2424 -5.65778e-08 12.3352 0.00371088 12.4428C0.00742182 12.7434 0.0148437 13.0811 0.0222656 13.441C0.0519531 14.4764 0.103906 15.508 0.185547 16.4803C0.296875 17.8199 0.460156 18.9369 0.682813 19.7756C1.15781 21.5531 2.55312 22.9559 4.33066 23.4309C5.37715 23.7129 7.43672 23.8873 10.3313 23.9949C11.708 24.0469 13.1813 24.0803 14.6545 24.0988C15.1703 24.1062 15.649 24.11 16.0795 24.1137H17.1705C17.601 24.11 18.0797 24.1062 18.5955 24.0988C20.0687 24.0803 21.542 24.0469 22.9187 23.9949C25.8133 23.8836 27.8729 23.7092 28.9193 23.4309C30.6969 22.9559 32.0922 21.5568 32.5672 19.7756C32.7936 18.9369 32.9531 17.8199 33.0645 16.4803C33.1461 15.508 33.198 14.4764 33.2277 13.441C33.2389 13.0811 33.2426 12.7434 33.2463 12.4428C33.2463 12.3352 33.25 12.2424 33.25 12.1607V11.9529ZM30.5781 12.1459C30.5781 12.2238 30.5781 12.3092 30.5744 12.4094C30.5707 12.6988 30.5633 13.018 30.5559 13.3631C30.5299 14.3502 30.4779 15.3373 30.4 16.2539C30.2998 17.4488 30.1588 18.4285 29.9844 19.0854C29.7543 19.9426 29.0789 20.6217 28.2254 20.848C27.4461 21.0559 25.483 21.2228 22.8148 21.323C21.4641 21.375 20.0094 21.4084 18.5584 21.427C18.05 21.4344 17.5787 21.4381 17.1557 21.4381H16.0943L14.6916 21.427C13.2406 21.4084 11.7896 21.375 10.4352 21.323C7.76699 21.2191 5.8002 21.0559 5.02461 20.848C4.17109 20.618 3.4957 19.9426 3.26562 19.0854C3.09121 18.4285 2.9502 17.4488 2.85 16.2539C2.77207 15.3373 2.72383 14.3502 2.69414 13.3631C2.68301 13.018 2.6793 12.6951 2.67559 12.4094C2.67559 12.3092 2.67188 12.2201 2.67188 12.1459V11.9678C2.67188 11.8898 2.67188 11.8045 2.67559 11.7043C2.6793 11.4148 2.68672 11.0957 2.69414 10.7506C2.72012 9.76348 2.77207 8.77637 2.85 7.85976C2.9502 6.66484 3.09121 5.68516 3.26562 5.02832C3.4957 4.17109 4.17109 3.49199 5.02461 3.26562C5.80391 3.05781 7.76699 2.89082 10.4352 2.79062C11.7859 2.73867 13.2406 2.70527 14.6916 2.68672C15.2 2.6793 15.6713 2.67559 16.0943 2.67559H17.1557L18.5584 2.68672C20.0094 2.70527 21.4604 2.73867 22.8148 2.79062C25.483 2.89453 27.4498 3.05781 28.2254 3.26562C29.0789 3.4957 29.7543 4.17109 29.9844 5.02832C30.1588 5.68516 30.2998 6.66484 30.4 7.85976C30.4779 8.77637 30.5262 9.76348 30.5559 10.7506C30.567 11.0957 30.5707 11.4186 30.5744 11.7043C30.5744 11.8045 30.5781 11.8936 30.5781 11.9678V12.1459ZM13.3223 17.0295L21.9316 12.0197L13.3223 7.08418V17.0295Z" fill="#269EB7"/>
</svg>
