<svg width="29" height="29" viewBox="0 0 29 29" fill="none" xmlns="http://www.w3.org/2000/svg">
<path d="M24.2025 8.17324L18.108 2.07871C17.9381 1.90879 17.7087 1.8125 17.468 1.8125H5.4375C4.93623 1.8125 4.53125 2.21748 4.53125 2.71875V26.2812C4.53125 26.7825 4.93623 27.1875 5.4375 27.1875H23.5625C24.0638 27.1875 24.4688 26.7825 24.4688 26.2812V8.81611C24.4688 8.57539 24.3725 8.34316 24.2025 8.17324ZM22.3787 9.23242H17.0488V3.90254L22.3787 9.23242ZM22.4297 25.1484H6.57031V3.85156H15.123V9.96875C15.123 10.2842 15.2484 10.5868 15.4714 10.8098C15.6945 11.0329 15.997 11.1582 16.3125 11.1582H22.4297V25.1484ZM14.956 13.3672H14.044C13.8883 13.3672 13.7523 13.472 13.7155 13.6249L12.308 19.2578L11.0024 13.6306C10.9656 13.4776 10.8297 13.3672 10.6711 13.3672H9.66855C9.61646 13.3673 9.56508 13.3793 9.51837 13.4024C9.47166 13.4254 9.43087 13.4589 9.39913 13.5002C9.3674 13.5415 9.34557 13.5896 9.33532 13.6406C9.32508 13.6917 9.32669 13.7445 9.34004 13.7948L11.4414 21.6112C11.4811 21.7585 11.617 21.8633 11.7699 21.8633H12.6762C12.8291 21.8633 12.965 21.7613 13.0047 21.6112L14.5 16.0321L15.9953 21.6112C16.035 21.7585 16.1709 21.8633 16.3238 21.8633H17.2244C17.3773 21.8633 17.5133 21.7613 17.5529 21.6112L19.66 13.7948C19.6732 13.7445 19.6747 13.6918 19.6644 13.6407C19.6541 13.5897 19.6323 13.5417 19.6006 13.5004C19.5689 13.4592 19.5281 13.4257 19.4815 13.4026C19.4348 13.3795 19.3835 13.3674 19.3314 13.3672H18.3232C18.1646 13.3672 18.0287 13.4776 17.9919 13.6306L16.6948 19.2691L15.2845 13.6249C15.2477 13.472 15.1117 13.3672 14.956 13.3672Z" fill="#269EB7"/>
</svg>
