<svg width="39" height="39" viewBox="0 0 39 39" fill="none" xmlns="http://www.w3.org/2000/svg">
<g clip-path="url(#clip0_2_632)">
<path d="M37.8582 18.3574C37.2272 18.3574 36.7157 18.869 36.7157 19.5C36.7157 28.9922 28.9931 36.7147 19.5009 36.7147C10.0087 36.7147 2.2862 28.9922 2.2862 19.5C2.2862 10.0077 10.0087 2.28521 19.5009 2.28521C22.3954 2.28521 25.2109 3.00389 27.7243 4.3733L26.2959 5.80175C25.9691 6.12852 25.8714 6.6199 26.0482 7.04692C26.225 7.47386 26.6416 7.75227 27.1038 7.75227H32.5708C33.2018 7.75227 33.7134 7.2407 33.7134 6.6097V1.14264C33.7134 0.680511 33.435 0.263929 33.008 0.0870593C32.5809 -0.089887 32.0896 0.00791715 31.7629 0.334769L29.4002 2.69738C26.4075 0.930429 23.005 0.000147648 19.5009 0.000147648C14.2923 0.000147648 9.39535 2.02852 5.71231 5.71148C2.02927 9.3946 0.000976562 14.2914 0.000976562 19.5C0.000976562 24.7086 2.02927 29.6055 5.71231 33.2885C9.39543 36.9716 14.2923 39 19.5009 39C24.7095 39 29.6063 36.9716 33.2893 33.2885C36.9724 29.6055 39.0007 24.7086 39.0007 19.5C39.0008 18.869 38.4893 18.3574 37.8582 18.3574Z" fill="white"/>
<path d="M26.843 18.3573H20.6427V12.157C20.6427 11.526 20.1311 11.0144 19.5001 11.0144C18.8691 11.0144 18.3575 11.526 18.3575 12.157V19.4999C18.3575 20.1309 18.8691 20.6425 19.5001 20.6425H26.843C27.474 20.6425 27.9855 20.1309 27.9855 19.4999C27.9855 18.8689 27.474 18.3573 26.843 18.3573Z" fill="white"/>
</g>
<defs>
<clipPath id="clip0_2_632">
<rect width="39" height="39" fill="white"/>
</clipPath>
</defs>
</svg>
