<svg width="71" height="71" viewBox="0 0 71 71" fill="none" xmlns="http://www.w3.org/2000/svg">
<g clip-path="url(#clip0_2_517)">
<path d="M51.5784 30.7353V17.2988C51.5784 16.9142 51.4007 16.5588 51.1493 16.2777L36.085 0.458809C35.8039 0.163048 35.4041 0 35.0049 0H11.1208C6.7115 0 3.18945 3.59572 3.18945 8.00559V53.1687C3.18945 57.5786 6.7115 61.1153 11.1208 61.1153H29.9737C33.5396 67.0343 40.0215 71 47.4052 71C58.6219 71 67.7818 61.8845 67.7818 50.6532C67.797 40.8421 60.7529 32.6442 51.5784 30.7353ZM36.4848 5.19424L46.5916 15.8335H40.0361C38.0828 15.8335 36.4848 14.2209 36.4848 12.2676V5.19424ZM11.1208 58.1555C8.3539 58.1555 6.14923 55.9357 6.14923 53.1687V8.00559C6.14923 5.22349 8.3539 2.95978 11.1208 2.95978H33.525V12.2676C33.525 15.8633 36.4404 18.7933 40.0361 18.7933H48.6186V30.3502C48.1749 30.3356 47.8196 30.2911 47.435 30.2911C42.2705 30.2911 37.5205 32.2743 33.9394 35.3819H15.1461C14.332 35.3819 13.6662 36.0476 13.6662 36.8613C13.6662 37.6754 14.332 38.3411 15.1461 38.3411H31.1871C30.1362 39.821 29.263 41.3009 28.5827 42.9287H15.1461C14.332 42.9287 13.6662 43.5944 13.6662 44.4086C13.6662 45.2222 14.332 45.8885 15.1461 45.8885H27.6206C27.2506 47.3684 27.0583 49.0108 27.0583 50.6532C27.0583 53.3166 27.5762 55.9509 28.5084 58.1707H11.1208V58.1555ZM47.4204 68.0554C37.8314 68.0554 30.0328 60.2567 30.0328 50.6678C30.0328 41.0788 37.8163 33.2802 47.4204 33.2802C57.0239 33.2802 64.8074 41.0788 64.8074 50.6678C64.8074 60.2567 57.0093 68.0554 47.4204 68.0554Z" fill="#269EB7"/>
<path d="M15.1461 30.9276H30.1363C30.9504 30.9276 31.6161 30.2613 31.6161 29.4477C31.6161 28.6335 30.9504 27.9678 30.1363 27.9678H15.1461C14.332 27.9678 13.6663 28.6335 13.6663 29.4477C13.6663 30.2613 14.332 30.9276 15.1461 30.9276Z" fill="#269EB7"/>
<path d="M54.9964 50.3569L48.9149 56.9124V40.7533C48.9149 39.9392 48.2486 39.2734 47.435 39.2734C46.6208 39.2734 45.9551 39.9392 45.9551 40.7533V56.9124L39.8286 50.3569C39.2663 49.7654 38.3195 49.721 37.7274 50.2832C37.1353 50.8455 37.0909 51.7777 37.6537 52.3698L46.3104 61.6776C46.5916 61.9734 46.9762 62.151 47.3905 62.151C47.8049 62.151 48.1895 61.9734 48.4707 61.6776L57.1425 52.3698C57.7048 51.7777 57.675 50.8309 57.083 50.2832C56.4763 49.721 55.5592 49.7654 54.9964 50.3569Z" fill="#269EB7"/>
</g>
<defs>
<clipPath id="clip0_2_517">
<rect width="71" height="71" fill="white"/>
</clipPath>
</defs>
</svg>
