<svg width="75" height="57" viewBox="0 0 75 57" fill="none" xmlns="http://www.w3.org/2000/svg">
<path d="M71.6473 41.3966L67.1099 40.1003C66.9141 40.0443 66.7772 39.863 66.7772 39.6592V38.1447C67.1464 37.8889 67.4985 37.6027 67.8277 37.2832C69.4229 35.7352 70.3014 33.6588 70.3014 31.4363V29.3464L70.7401 28.4691C71.2216 27.506 71.476 26.4277 71.476 25.351V19.6894C71.476 19.0827 70.9841 18.5908 70.3774 18.5908H59.8052C55.9608 18.5908 52.8331 21.7185 52.8331 25.5629V25.6283C52.8331 26.5236 53.0448 27.4203 53.4451 28.221L54.0078 29.3463V31.1407C54.0078 33.9845 55.4092 36.5362 57.5319 38.0716L57.5322 39.6589C57.5322 39.9037 57.5322 40.005 56.625 40.2643L54.411 40.8968L48.0066 38.568C48.0296 38.2658 47.9276 37.9585 47.7072 37.7269L45.6606 35.5768V31.9674C45.877 31.7892 46.0903 31.6061 46.297 31.4124C48.8788 28.9925 50.3594 25.5759 50.3594 22.0387V19.1562C51.139 17.4598 51.5341 15.6646 51.5341 13.8158V2.06926C51.5341 1.46252 51.0422 0.970627 50.4354 0.970627H33.9898C28.2022 0.970627 23.4937 5.67922 23.4937 11.4667V13.8161C23.4937 15.6649 23.8888 17.4601 24.6684 19.1565V21.6366C24.6684 25.7435 26.4945 29.4434 29.3672 31.8826V35.577L27.3207 37.7271C27.1002 37.9587 26.9982 38.266 27.0212 38.5682L20.2617 41.026C19.7719 41.2042 19.3167 41.4454 18.9035 41.7377L17.8421 41.207C21.0018 39.8316 22.0027 37.8973 22.0507 37.8012C22.2054 37.492 22.2054 37.1278 22.0507 36.8186C21.2587 35.2345 21.1627 32.331 21.0857 29.9981C21.0601 29.2215 21.0357 28.4877 20.9893 27.8344C20.6147 22.5648 16.6087 18.5908 11.6707 18.5908C6.73271 18.5908 2.72651 22.5646 2.3521 27.8344C2.30566 28.4879 2.28135 29.2216 2.25571 29.9984C2.17866 32.3312 2.08257 35.2343 1.29067 36.8184C1.13599 37.1277 1.13599 37.4918 1.29067 37.801C1.33872 37.8971 2.3376 39.8275 5.50356 41.2045L2.55527 42.6785C0.979102 43.4672 0 45.0514 0 46.8135V54.93C0 55.5368 0.491895 56.0287 1.09863 56.0287C1.70537 56.0287 2.19727 55.5368 2.19727 54.93V46.8135C2.19727 45.8889 2.71099 45.0576 3.53789 44.6441L7.20923 42.8085L8.48628 44.0221C9.37925 44.8707 10.5248 45.2947 11.6707 45.2947C12.8164 45.2947 13.9625 44.8704 14.8551 44.0221L16.132 42.8086L17.3291 43.4071C16.7654 44.309 16.4455 45.3667 16.4455 46.4745V54.9303C16.4455 55.5371 16.9374 56.029 17.5441 56.029C18.1509 56.029 18.6428 55.5371 18.6428 54.9303V46.4745C18.6428 44.9663 19.5951 43.6067 21.0126 43.0912L28.1394 40.4997L31.1061 44.9501C31.4854 45.519 32.0931 45.8839 32.7735 45.9513C32.8494 45.9588 32.9249 45.9624 33.0001 45.9624C33.6004 45.9624 34.1754 45.7261 34.6052 45.2965L36.4151 43.4865V54.9305C36.4151 55.5372 36.907 56.0291 37.5138 56.0291C38.1205 56.0291 38.6124 55.5372 38.6124 54.9305V43.4865L40.4224 45.2965C40.852 45.7263 41.427 45.9626 42.0274 45.9626C42.1025 45.9626 42.1781 45.9589 42.2539 45.9514C42.9344 45.884 43.5422 45.5192 43.9214 44.9502L46.8883 40.5L54.0149 43.0915C55.4323 43.6069 56.3848 44.9666 56.3848 46.4748V54.9306C56.3848 55.5374 56.8767 56.0293 57.4834 56.0293C58.0901 56.0293 58.582 55.5374 58.582 54.9306V46.4748C58.582 44.9473 57.9751 43.5147 56.9571 42.4551L57.2285 42.3777C57.5023 42.2994 57.8758 42.1923 58.2508 42.0085L61.0559 44.8135V54.9306C61.0559 55.5374 61.5478 56.0293 62.1545 56.0293C62.7612 56.0293 63.2531 55.5374 63.2531 54.9306V44.8135L66.0387 42.028C66.1868 42.1033 66.3423 42.1669 66.5061 42.2136L71.0436 43.51C72.0792 43.8059 72.8027 44.7649 72.8027 45.8422V54.9306C72.8027 55.5374 73.2946 56.0293 73.9014 56.0293C74.5081 56.0293 75 55.5374 75 54.9306V45.8422C75 43.7887 73.6213 41.9608 71.6473 41.3966ZM7.0481 39.4562C4.99307 38.7167 3.96226 37.7309 3.52222 37.1925C3.82222 36.4083 4.01675 35.51 4.14844 34.5618C4.7543 36.0145 5.76899 37.2547 7.0481 38.1394V39.4562ZM13.3418 42.4295C12.4047 43.3198 10.9368 43.3197 10 42.4294L8.97832 41.4585C9.15073 41.1355 9.24551 40.7693 9.24551 40.3856V39.2146C10.0119 39.4541 10.8267 39.5833 11.671 39.5833C12.5143 39.5833 13.3286 39.4535 14.0963 39.2153L14.0962 40.3855C14.0962 40.7693 14.1908 41.1356 14.3634 41.4588L13.3418 42.4295ZM11.6713 37.3861C8.39062 37.3861 5.72183 34.7171 5.72183 31.4366C5.72183 30.8299 5.22993 30.338 4.62319 30.338C4.56167 30.338 4.50161 30.3443 4.44287 30.3541C4.44609 30.2596 4.44917 30.165 4.45239 30.0714C4.47686 29.3159 4.50044 28.6024 4.54395 27.9904C4.68428 26.0164 5.4731 24.1973 6.76509 22.8681C8.06865 21.5269 9.81094 20.7883 11.671 20.7883C13.5311 20.7883 15.2732 21.5269 16.5769 22.8681C17.8689 24.1973 18.6577 26.0164 18.798 27.9904C18.8414 28.6023 18.8651 29.3156 18.89 30.0709C18.8922 30.1358 18.8944 30.2016 18.8966 30.2669C17.7013 28.4253 15.8553 27.0681 13.4701 26.3017C11.2666 25.5938 9.37134 25.6376 9.29136 25.6396C9.00366 25.6477 8.73061 25.7681 8.53096 25.9752L6.54873 28.031C6.12759 28.4678 6.14019 29.1633 6.577 29.5844C7.01382 30.0056 7.70933 29.9928 8.13047 29.5562L9.77988 27.8457C11.2003 27.9151 15.7702 28.4465 17.5475 32.3602C17.1003 35.2442 14.6215 37.3861 11.6713 37.3861ZM16.2933 39.4598L16.2935 38.1495C17.5715 37.2696 18.5877 36.0318 19.194 34.5681C19.3257 35.5141 19.5201 36.4103 19.8195 37.1928C19.3819 37.726 18.3463 38.7207 16.2933 39.4598ZM26.8657 21.6365V18.9107C26.8657 18.7453 26.8283 18.582 26.7564 18.433C26.0495 16.9691 25.691 15.4157 25.691 13.8161V11.4668C25.691 6.89079 29.4139 3.16804 33.9898 3.16804H49.3368V13.8163C49.3368 15.4159 48.9784 16.9692 48.2714 18.4332C48.1995 18.5821 48.1622 18.7455 48.1622 18.9109V22.039C48.1622 25.0143 46.9661 27.7739 44.7943 29.8096C44.5232 30.0636 44.2418 30.3018 43.9509 30.5237C43.9444 30.5281 43.9383 30.5329 43.932 30.5375C41.8975 32.0821 39.4055 32.8329 36.803 32.6643C31.2306 32.3035 26.8657 27.4595 26.8657 21.6365ZM33.0516 43.7426C33.0439 43.7502 33.0262 43.7682 32.9903 43.7644C32.9546 43.7609 32.9405 43.74 32.9345 43.7309L29.5178 38.6057L30.6173 37.4504L35.8006 40.9934L33.0516 43.7426ZM37.5139 39.5029L31.5645 35.4362V33.3854C33.1039 34.2176 34.8275 34.7381 36.6608 34.8567C36.9504 34.8755 37.2382 34.8847 37.5252 34.8847C39.6259 34.8847 41.6477 34.3825 43.4634 33.4294V35.4362L37.5139 39.5029ZM42.0933 43.7312C42.0873 43.7402 42.0732 43.7612 42.0375 43.7647C42.0016 43.7693 41.984 43.7504 41.9763 43.7429L39.2272 40.9938L44.4105 37.4506L45.5102 38.606L42.0933 43.7312ZM62.1545 42.8042L59.6613 40.3112C59.7048 40.1136 59.7294 39.8972 59.7293 39.6586L59.7292 39.195C60.421 39.422 61.1502 39.5568 61.9047 39.5794C61.9894 39.582 62.0733 39.5832 62.1577 39.5832C62.9915 39.5832 63.8054 39.4572 64.58 39.2168V39.6592C64.58 39.8783 64.6075 40.0931 64.6594 40.2995L62.1545 42.8042ZM66.2975 35.7065C65.1331 36.8364 63.5949 37.4332 61.9708 37.3831C58.7915 37.2878 56.205 34.4874 56.205 31.141V29.0871C56.205 28.9165 56.1653 28.7483 56.089 28.5958L55.4104 27.2385C55.1618 26.7412 55.0304 26.1845 55.0304 25.6285V25.563C55.0304 22.9301 57.1724 20.7882 59.8052 20.7882H69.2788V25.3512C69.2788 26.0886 69.1044 26.827 68.7747 27.4866L68.2201 28.5958C68.1438 28.7485 68.1041 28.9165 68.1041 29.0871V31.4364C68.1041 33.0595 67.4625 34.5759 66.2975 35.7065Z" fill="#269EB7"/>
</svg>
