<svg width="66" height="64" viewBox="0 0 66 64" fill="none" xmlns="http://www.w3.org/2000/svg">
<path d="M4.25854 22.6615C3.92573 23.6867 3.30495 24.7288 2.64792 25.8324C1.51933 27.7279 0.352295 29.6879 0.352295 32.0001C0.352295 34.3123 1.51933 36.2723 2.64792 38.1679C3.30495 39.2715 3.92558 40.3138 4.25854 41.3388C4.61276 42.4298 4.73292 43.6792 4.86026 45.002C5.06839 47.1652 5.2837 49.4023 6.58651 51.1924C7.90245 53.0007 9.97229 53.8962 11.9739 54.7621C13.1849 55.2862 14.3289 55.781 15.2407 56.4446C16.1351 57.0956 16.9476 58.0216 17.8078 59.0023C19.2548 60.6518 20.751 62.3573 22.9092 63.0581C23.6426 63.2962 24.3896 63.3892 25.142 63.3892C26.5101 63.3892 27.8967 63.0818 29.2534 62.7812C30.5723 62.4888 31.8181 62.2127 32.9999 62.2127C34.1818 62.2127 35.4276 62.4888 36.7465 62.7812C38.8496 63.2473 41.0238 63.7293 43.0907 63.0581C45.2487 62.3573 46.7449 60.6518 48.192 59.0023C49.0521 58.0218 49.8648 57.0956 50.759 56.4446C51.6709 55.781 52.8148 55.2862 54.0259 54.7621C56.0274 53.896 58.0973 53.0007 59.4132 51.1924C60.716 49.4023 60.9312 47.1654 61.1395 45.0021C61.2668 43.6793 61.3871 42.4298 61.7413 41.339C62.0742 40.3138 62.6948 39.2715 63.352 38.1679C64.4806 36.2724 65.6476 34.3124 65.6476 32.0002C65.6476 29.6882 64.4806 27.7281 63.352 25.8326C62.6949 24.729 62.0743 23.6867 61.7413 22.6615C61.3871 21.5707 61.2668 20.3212 61.1395 18.9984C60.9314 16.8351 60.716 14.5982 59.4132 12.8081C58.0973 10.9998 56.0274 10.1043 54.0259 9.23837C52.8148 8.71431 51.6709 8.21947 50.759 7.55588C49.8646 6.90494 49.0521 5.97884 48.192 4.99822C46.7449 3.34869 45.2487 1.64322 43.0907 0.942438C41.0237 0.271344 38.8495 0.753219 36.7465 1.21931C35.4276 1.51166 34.1818 1.78775 32.9999 1.78775C31.8181 1.78775 30.5723 1.51166 29.2534 1.21931C27.1504 0.753219 24.9759 0.271344 22.9092 0.942438C20.751 1.64306 19.2548 3.34869 17.8078 4.99822C16.9476 5.97869 16.1351 6.90494 15.2407 7.55588C14.3289 8.21947 13.1849 8.71447 11.9739 9.23837C9.97229 10.1043 7.90245 10.9998 6.58651 12.8081C5.2837 14.5982 5.06854 16.8351 4.86026 18.9984C4.73292 20.321 4.61276 21.5704 4.25854 22.6615ZM7.19323 19.2227C7.37948 17.2874 7.55542 15.4596 8.48151 14.187C9.42073 12.8965 11.1129 12.1643 12.9046 11.3892C14.1796 10.8376 15.4981 10.2671 16.6199 9.45056C17.7251 8.64634 18.6629 7.57744 19.5698 6.54369C20.8648 5.06744 22.0881 3.67306 23.6331 3.1715C25.0923 2.69791 26.8671 3.09103 28.7464 3.50744C30.1304 3.81416 31.5617 4.13134 33.0001 4.13134C34.4385 4.13134 35.8698 3.81416 37.2538 3.50744C39.1328 3.09088 40.9074 2.69744 42.3671 3.1715C43.9121 3.67306 45.1354 5.06744 46.4304 6.54369C47.3373 7.57744 48.2751 8.64634 49.3803 9.45056C50.5021 10.2671 51.8206 10.8376 53.0956 11.3892C54.8871 12.1643 56.5793 12.8963 57.5187 14.187C58.4448 15.4596 58.6207 17.2874 58.807 19.2227C58.9407 20.6129 59.0792 22.0504 59.5126 23.3852C59.9265 24.6601 60.6443 25.8656 61.3385 27.0315C62.3495 28.7293 63.3043 30.3329 63.3043 32.0001C63.3043 33.6673 62.3495 35.271 61.3385 36.9687C60.6443 38.1345 59.9265 39.3401 59.5126 40.6149C59.0792 41.9498 58.9407 43.3873 58.807 44.7774C58.6207 46.7127 58.4448 48.5407 57.5187 49.8132C56.5795 51.1037 54.8873 51.8359 53.0956 52.611C51.8206 53.1626 50.5021 53.7331 49.3803 54.5496C48.2751 55.3538 47.3373 56.4229 46.4304 57.4565C45.1354 58.9327 43.9121 60.327 42.3671 60.8287C40.9078 61.3026 39.1329 60.9091 37.2538 60.4927C35.8698 60.186 34.4385 59.8688 33.0001 59.8688C31.5617 59.8688 30.1304 60.186 28.7464 60.4927C26.8674 60.9091 25.0924 61.3026 23.6331 60.8287C22.0881 60.3271 20.8648 58.9327 19.5698 57.4565C18.6629 56.4227 17.7251 55.3538 16.6199 54.5496C15.4981 53.7331 14.1796 53.1627 12.9046 52.611C11.1131 51.8359 9.42089 51.1038 8.48151 49.8132C7.55542 48.5406 7.37948 46.7126 7.19323 44.7774C7.05948 43.3873 6.9212 41.9499 6.48776 40.6151C6.07386 39.3402 5.35604 38.1348 4.66183 36.9688C3.65089 35.271 2.69604 33.6674 2.69604 32.0001C2.69604 30.3329 3.65089 28.7293 4.66183 27.0315C5.35589 25.8656 6.07386 24.6599 6.48776 23.3852C6.92104 22.0504 7.05948 20.6129 7.19323 19.2227Z" fill="#269EB7"/>
</svg>
