<svg width="33" height="44" viewBox="0 0 33 44" fill="none" xmlns="http://www.w3.org/2000/svg">
<path d="M30.9194 34.8387H29.6584C29.1261 32.2291 26.814 30.258 24.0484 30.258H20.6129V26.4731C20.6129 23.8221 21.1419 21.2421 22.1853 18.8075L22.2893 18.5671C23.4562 15.8418 24.0484 12.9582 24.0484 9.99461V8.49998C24.0484 6.31254 23.1839 4.26992 21.6149 2.74677C20.0459 1.22473 18.0022 0.41395 15.7862 0.4872C11.5019 0.616925 8.01613 4.33982 8.01613 8.78738V9.99461C8.01613 12.957 8.60828 15.8418 9.77637 18.5682L9.87813 18.8042C10.9226 21.241 11.4516 23.821 11.4516 26.4731V30.258H8.01613C5.25164 30.258 2.93839 32.2291 2.40607 34.8387H1.14516C0.511632 34.8387 0 35.352 0 35.9838V42.8548C0 43.4867 0.511632 44 1.14516 44H30.9194C31.5529 44 32.0645 43.4867 32.0645 42.8548V35.9838C32.0645 35.352 31.5529 34.8387 30.9194 34.8387ZM10.3065 9.99461V8.78738C10.3065 5.56494 12.7958 2.86811 15.8561 2.7764C17.4212 2.73614 18.8985 3.30313 20.0196 4.39014C21.1408 5.47771 21.7581 6.93824 21.7581 8.49998V9.99461C21.7581 12.6456 21.2291 15.2256 20.1857 17.6601L20.0817 17.9017C19.0187 20.3799 18.459 22.9945 18.3628 25.6774H13.7017C13.6044 22.9957 13.0447 20.3799 11.9817 17.8995L11.8799 17.6635C10.8354 15.2267 10.3065 12.6467 10.3065 9.99461ZM13.7419 27.9677H18.3226V30.258H13.7419V27.9677ZM8.01613 32.5484H24.0484C25.5391 32.5484 26.7989 33.509 27.2731 34.8387H4.79145C5.26562 33.509 6.52541 32.5484 8.01613 32.5484ZM29.7742 41.7097H2.29032V37.129H29.7742V41.7097Z" fill="#269EB7"/>
</svg>
