<svg width="46" height="61" viewBox="0 0 46 61" fill="none" xmlns="http://www.w3.org/2000/svg">
<path d="M44.7188 0.03125H1.04688C0.777515 0.03125 0.519186 0.138253 0.32872 0.32872C0.138253 0.519186 0.03125 0.777515 0.03125 1.04688V42.6875H2.0625V2.0625H43.7031V58.9375H2.0625V44.7188H0.03125V59.9531C0.03125 60.2225 0.138253 60.4808 0.32872 60.6713C0.519186 60.8617 0.777515 60.9688 1.04688 60.9688H44.7188C44.9881 60.9688 45.2464 60.8617 45.4369 60.6713C45.6274 60.4808 45.7344 60.2225 45.7344 59.9531V1.04688C45.7344 0.777515 45.6274 0.519186 45.4369 0.32872C45.2464 0.138253 44.9881 0.03125 44.7188 0.03125Z" fill="#269EB7"/>
</svg>
