<svg width="185" height="42" viewBox="0 0 185 42" fill="none" xmlns="http://www.w3.org/2000/svg">
<rect x="0.5" y="0.5" width="184" height="41" rx="3.5" fill="#ECF0F3"/>
<g clip-path="url(#clip0_2_678)">
<path d="M36.3409 19.121V13.8221C36.3409 13.6704 36.2708 13.5302 36.1717 13.4194L30.2308 7.18094C30.12 7.0643 29.9623 7 29.8049 7H20.3858C18.6469 7 17.2579 8.41803 17.2579 10.1571V27.968C17.2579 29.7071 18.6469 31.1018 20.3858 31.1018H27.8207C29.227 33.4361 31.7832 35 34.6951 35C39.1186 35 42.731 31.4052 42.731 26.9759C42.737 23.1068 39.959 19.8738 36.3409 19.121ZM30.3885 9.04843L34.3743 13.2442H31.789C31.0187 13.2442 30.3885 12.6082 30.3885 11.8379V9.04843ZM20.3858 29.9346C19.2946 29.9346 18.4252 29.0591 18.4252 27.968V10.1571C18.4252 9.05997 19.2946 8.16724 20.3858 8.16724H29.2213V11.8379C29.2213 13.256 30.371 14.4114 31.789 14.4114H35.1736V18.9691C34.9987 18.9633 34.8585 18.9458 34.7069 18.9458C32.6702 18.9458 30.7969 19.7279 29.3847 20.9534H21.9732C21.6522 20.9534 21.3896 21.216 21.3896 21.5368C21.3896 21.8579 21.6522 22.1205 21.9732 22.1205H28.2993C27.8848 22.7041 27.5405 23.2877 27.2722 23.9296H21.9732C21.6522 23.9296 21.3896 24.1922 21.3896 24.5132C21.3896 24.8341 21.6522 25.0969 21.9732 25.0969H26.8928C26.7469 25.6805 26.671 26.3282 26.671 26.9759C26.671 28.0263 26.8752 29.0651 27.2429 29.9406H20.3858V29.9346ZM34.7011 33.8387C30.9196 33.8387 27.844 30.7632 27.844 26.9817C27.844 23.2001 30.9136 20.1246 34.7011 20.1246C38.4884 20.1246 41.558 23.2001 41.558 26.9817C41.558 30.7632 38.4827 33.8387 34.7011 33.8387Z" fill="#269EB7"/>
<path d="M21.9733 19.1968H27.8849C28.2059 19.1968 28.4685 18.934 28.4685 18.6132C28.4685 18.2921 28.2059 18.0295 27.8849 18.0295H21.9733C21.6522 18.0295 21.3896 18.2921 21.3896 18.6132C21.3896 18.934 21.6522 19.1968 21.9733 19.1968Z" fill="#269EB7"/>
<path d="M37.6888 26.859L35.2905 29.4442V23.0717C35.2905 22.7506 35.0277 22.488 34.7069 22.488C34.3858 22.488 34.1232 22.7506 34.1232 23.0717V29.4442L31.7072 26.859C31.4854 26.6257 31.112 26.6082 30.8785 26.8299C30.645 27.0517 30.6275 27.4193 30.8495 27.6528L34.2634 31.3235C34.3742 31.4401 34.5259 31.5102 34.6893 31.5102C34.8528 31.5102 35.0044 31.4401 35.1153 31.3235L38.5352 27.6528C38.7569 27.4193 38.7452 27.0459 38.5117 26.8299C38.2724 26.6082 37.9108 26.6257 37.6888 26.859Z" fill="#269EB7"/>
</g>
<path d="M55.4048 18.7898C55.0469 16.2045 53.0582 14.7045 50.4787 14.7045C47.4389 14.7045 45.1491 16.9205 45.1491 20.6818C45.1491 24.4375 47.4105 26.6591 50.4787 26.6591C53.2457 26.6591 55.081 24.8693 55.4048 22.6477L53.2798 22.6364C53.0128 24 51.8991 24.767 50.5071 24.767C48.6207 24.767 47.2685 23.3523 47.2685 20.6818C47.2685 18.0568 48.6094 16.5966 50.5128 16.5966C51.9276 16.5966 53.0355 17.3977 53.2798 18.7898H55.4048ZM57.2443 26.5H59.3011V23.2102H60.3068L62.6989 26.5H65.1875L61.9205 22.0568L65.1534 17.7727H62.6761L60.0511 21.2955H59.3011V17.7727H57.2443V26.5ZM68.8651 26.6761C70.2344 26.6761 71.0526 26.0341 71.4276 25.3011H71.4957V26.5H73.473V20.6591C73.473 18.3523 71.5923 17.6591 69.9276 17.6591C68.0923 17.6591 66.6832 18.4773 66.2287 20.0682L68.1491 20.3409C68.3537 19.7443 68.9332 19.233 69.9389 19.233C70.8935 19.233 71.4162 19.7216 71.4162 20.5795V20.6136C71.4162 21.2045 70.7969 21.233 69.2571 21.3977C67.5639 21.5795 65.9446 22.0852 65.9446 24.0511C65.9446 25.767 67.2003 26.6761 68.8651 26.6761ZM69.3991 25.1648C68.5412 25.1648 67.9276 24.7727 67.9276 24.017C67.9276 23.2273 68.6151 22.8977 69.5355 22.767C70.0753 22.6932 71.1548 22.5568 71.4219 22.3409V23.3693C71.4219 24.3409 70.6378 25.1648 69.3991 25.1648ZM82.831 17.7727H80.8537V22.0341C80.3537 22.1591 79.8594 22.2273 79.3196 22.2273C78.1037 22.2273 77.5071 21.7955 77.5071 20.6705V17.7614H75.5412V20.6705C75.5412 22.8977 76.9901 23.9148 79.3196 23.9148C79.831 23.9148 80.3651 23.8466 80.8537 23.733V26.5H82.831V17.7727ZM87.4119 26.6761C88.7812 26.6761 89.5994 26.0341 89.9744 25.3011H90.0426V26.5H92.0199V20.6591C92.0199 18.3523 90.1392 17.6591 88.4744 17.6591C86.6392 17.6591 85.2301 18.4773 84.7756 20.0682L86.696 20.3409C86.9006 19.7443 87.4801 19.233 88.4858 19.233C89.4403 19.233 89.9631 19.7216 89.9631 20.5795V20.6136C89.9631 21.2045 89.3438 21.233 87.804 21.3977C86.1108 21.5795 84.4915 22.0852 84.4915 24.0511C84.4915 25.767 85.7472 26.6761 87.4119 26.6761ZM87.946 25.1648C87.0881 25.1648 86.4744 24.7727 86.4744 24.017C86.4744 23.2273 87.1619 22.8977 88.0824 22.767C88.6222 22.6932 89.7017 22.5568 89.9688 22.3409V23.3693C89.9688 24.3409 89.1847 25.1648 87.946 25.1648ZM93.1108 19.4602H95.9347V26.5H97.9233V19.4602H100.747V17.7727H93.1108V19.4602ZM104.368 20.6136V17.7727H102.385V26.5H106.351C108.572 26.5 109.851 25.2727 109.857 23.5568C109.851 21.7955 108.572 20.6136 106.351 20.6136H104.368ZM104.368 22.3011H106.351C107.243 22.3011 107.885 22.8295 107.885 23.5852C107.885 24.3068 107.243 24.8125 106.351 24.8125H104.368V22.3011ZM115.105 24.108C115.156 25.7273 116.639 26.6705 118.656 26.6705C120.724 26.6705 122.219 25.6875 122.219 24.0795C122.219 22.9034 121.418 22.0966 120.384 22.0341V21.9432C121.384 21.6761 122.02 21.0511 122.02 20.108C122.02 18.6364 120.747 17.6591 118.702 17.6591C116.793 17.6591 115.355 18.6477 115.327 20.1705H117.355C117.378 19.5852 117.98 19.1761 118.798 19.1761C119.616 19.1761 120.111 19.6136 120.111 20.2614C120.111 20.858 119.656 21.3011 118.804 21.3011H117.469V22.7614H118.804C119.662 22.7614 120.224 23.2443 120.224 23.9489C120.224 24.7443 119.526 25.1307 118.645 25.1307C117.776 25.1307 117.185 24.7557 117.145 24.108H115.105ZM126.349 26.6761C127.719 26.6761 128.537 26.0341 128.912 25.3011H128.98V26.5H130.957V20.6591C130.957 18.3523 129.077 17.6591 127.412 17.6591C125.577 17.6591 124.168 18.4773 123.713 20.0682L125.634 20.3409C125.838 19.7443 126.418 19.233 127.423 19.233C128.378 19.233 128.901 19.7216 128.901 20.5795V20.6136C128.901 21.2045 128.281 21.233 126.741 21.3977C125.048 21.5795 123.429 22.0852 123.429 24.0511C123.429 25.767 124.685 26.6761 126.349 26.6761ZM126.884 25.1648C126.026 25.1648 125.412 24.7727 125.412 24.017C125.412 23.2273 126.099 22.8977 127.02 22.767C127.56 22.6932 128.639 22.5568 128.906 22.3409V23.3693C128.906 24.3409 128.122 25.1648 126.884 25.1648ZM138.185 26.5H140.111V17.7727H136.321C134.185 17.7727 132.861 18.8693 132.866 20.5455C132.861 21.6477 133.463 22.483 134.503 22.9091L132.548 26.5H134.571L136.361 23.2159H138.185V26.5ZM138.185 21.7159H136.253C135.349 21.7159 134.849 21.2443 134.855 20.5909C134.849 19.9375 135.378 19.4432 136.321 19.4432H138.185V21.7159ZM142.182 26.5H146.409C148.455 26.5 149.625 25.5739 149.625 24.1307C149.625 22.9091 148.676 22.0568 147.307 21.9375C148.472 21.7216 149.199 21.1023 149.199 20.1193C149.199 18.6477 147.909 17.7727 145.847 17.7727H142.182V26.5ZM144.108 24.8807V22.7159H146.409C147.165 22.7159 147.625 23.1534 147.625 23.875C147.625 24.5 147.165 24.8807 146.409 24.8807H144.108ZM144.108 21.3864V19.4205H145.847C146.705 19.4205 147.227 19.7841 147.227 20.3807C147.227 21.0057 146.722 21.3864 145.886 21.3864H144.108ZM151.322 26.5H153.379V23.2102H154.385L156.777 26.5H159.266L155.999 22.0568L159.232 17.7727H156.754L154.129 21.2955H153.379V17.7727H151.322V26.5ZM161.804 29.7727C163.406 29.7727 164.332 28.9489 164.827 27.5568L168.332 17.7841L166.134 17.7727L164.116 24.3636H164.026L162.014 17.7727H159.832L162.997 26.6818L162.821 27.1534C162.44 28.1477 161.838 28.2159 160.94 27.9545L160.463 29.5568C160.741 29.6705 161.241 29.7727 161.804 29.7727Z" fill="#269EB7"/>
<rect x="0.5" y="0.5" width="184" height="41" rx="3.5" stroke="#269EB7"/>
<defs>
<clipPath id="clip0_2_678">
<rect width="28" height="28" fill="white" transform="translate(16 7)"/>
</clipPath>
</defs>
</svg>
