<svg width="126" height="42" viewBox="0 0 126 42" fill="none" xmlns="http://www.w3.org/2000/svg">
<path d="M10.1515 2.34766C10.2368 2.3698 10.2996 2.42013 10.3399 2.49866C10.3921 2.57054 10.4087 2.64292 10.3898 2.7158C10.378 2.76135 10.333 2.83719 10.2549 2.94332L5.80503 8.45389C5.2818 9.1057 4.81771 9.58811 4.41276 9.90112C4.01965 10.2075 3.58739 10.3919 3.11599 10.4543C2.65406 10.5191 2.07243 10.4605 1.37111 10.2785L0.617656 10.0829C0.522882 10.0583 0.445861 10.0043 0.386594 9.92086C0.339168 9.83076 0.327278 9.74016 0.350923 9.64907L0.726877 8.20059C0.752886 8.10038 0.807337 8.027 0.89023 7.98045C0.9826 7.93636 1.07617 7.92661 1.17095 7.95121L1.71116 8.09142C1.986 8.16276 2.23712 8.1696 2.46452 8.11193C2.69428 8.04516 2.92282 7.90515 3.15014 7.69189L1.25606 0.490979C1.24657 0.44962 1.24773 0.406165 1.25955 0.360616C1.27847 0.287736 1.32937 0.228021 1.41226 0.181471C1.49516 0.134921 1.58399 0.123945 1.67876 0.148543L3.64058 0.657735C3.82065 0.704472 3.93324 0.835794 3.97836 1.0517L5.03951 5.44021L7.78826 2.04057C7.91374 1.86894 8.08072 1.81018 8.28923 1.8643L10.1515 2.34766Z" fill="white"/>
<path d="M7.96004 14.0306C7.85579 14.0036 7.77403 13.9483 7.71476 13.8649C7.66497 13.7839 7.65308 13.6933 7.67909 13.5931L8.56577 10.1768C8.59178 10.0766 8.64623 10.0033 8.72913 9.9567C8.8215 9.91261 8.91981 9.9041 9.02406 9.93116L9.27995 9.99757C9.70643 10.1083 10.1066 9.81347 10.4806 9.1132C10.864 8.41538 11.2307 7.39234 11.5807 6.04407L12.3007 3.27011C12.3267 3.1699 12.3811 3.09652 12.464 3.04997C12.5564 3.00588 12.65 2.99613 12.7447 3.02073L19.4263 4.75493C19.5305 4.78199 19.6075 4.83601 19.6573 4.917C19.7071 4.99799 19.719 5.08859 19.693 5.1888L17.8664 12.2262L18.5346 12.3996C18.6388 12.4267 18.7159 12.4807 18.7657 12.5617C18.8249 12.6451 18.8416 12.737 18.8155 12.8372L17.9289 16.2534C17.9028 16.3536 17.8437 16.4258 17.7513 16.4698C17.6684 16.5164 17.5748 16.5261 17.4706 16.4991L15.6367 16.0231C15.5419 15.9985 15.4649 15.9445 15.4056 15.861C15.3559 15.78 15.344 15.6894 15.37 15.5892L15.7778 14.0178L10.6459 12.6858L10.238 14.2572C10.212 14.3574 10.1575 14.4308 10.0746 14.4774C9.99173 14.5239 9.89816 14.5337 9.79391 14.5066L7.96004 14.0306ZM15.3218 11.5657L16.6695 6.37308L14.2954 5.75689L13.9727 7.00039C13.4927 8.8497 12.9331 10.1095 12.2937 10.7798L15.3218 11.5657Z" fill="white"/>
<path d="M23.536 16.1773C22.1997 15.8304 21.2293 15.2431 20.6248 14.4153C20.0202 13.5874 19.8527 12.557 20.1222 11.324C20.1813 11.0573 20.2782 10.6644 20.413 10.1451C20.5501 9.61672 20.6577 9.22167 20.7357 8.95994C21.0952 7.76973 21.7475 6.95208 22.6925 6.50699C23.6494 6.05524 24.7818 5.9991 26.0896 6.33856C27.3975 6.67802 28.3596 7.27779 28.976 8.13788C29.5948 8.98885 29.767 10.0205 29.4928 11.2329C29.3746 11.7662 29.2813 12.1649 29.2127 12.4291C29.1465 12.6842 29.0353 13.0734 28.8792 13.5969C28.515 14.8053 27.8675 15.6242 26.9367 16.0535C26.0059 16.4829 24.8723 16.5241 23.536 16.1773ZM24.0467 14.2095C24.568 14.3448 25.0193 14.3015 25.4006 14.0796C25.7913 13.8601 26.0766 13.4431 26.2563 12.8286C26.4124 12.3051 26.5189 11.9341 26.5756 11.7154C26.6371 11.4786 26.7245 11.1026 26.838 10.5875C26.9798 9.96316 26.9334 9.46006 26.6987 9.07825C26.4639 8.69645 26.0907 8.43913 25.5789 8.3063C25.0671 8.17347 24.6159 8.21678 24.2251 8.43623C23.8438 8.65814 23.5585 9.07515 23.3693 9.68724C23.2936 9.93986 23.1919 10.3121 23.0642 10.8041C22.9389 11.2869 22.8467 11.6616 22.7876 11.9283C22.6553 12.5551 22.7017 13.0582 22.927 13.4376C23.1522 13.8169 23.5255 14.0742 24.0467 14.2095Z" fill="white"/>
<path d="M33.3865 18.734C32.0312 18.3822 31.0513 17.7924 30.4468 16.9646C29.8541 16.1301 29.6902 15.1055 29.9549 13.8906C30.0093 13.6422 30.1086 13.2402 30.2528 12.6845C30.3994 12.1196 30.5105 11.7109 30.5862 11.4583C30.941 10.2863 31.5897 9.48233 32.5324 9.04634C33.4774 8.60125 34.6133 8.55089 35.9401 8.89527C36.7741 9.11174 37.4874 9.44271 38.0799 9.8882C38.6747 10.3246 39.0967 10.8425 39.3457 11.4419C39.6066 12.0347 39.6555 12.6649 39.4923 13.3323L39.4852 13.3597C39.4663 13.4325 39.4166 13.4877 39.3361 13.5251C39.2674 13.5559 39.1951 13.5615 39.1193 13.5418L37.2002 13.0437C37.077 13.0117 36.9881 12.9643 36.9336 12.9016C36.8814 12.8297 36.8494 12.7193 36.8375 12.5703C36.8254 12.0713 36.7008 11.6938 36.4638 11.4378C36.2291 11.1727 35.8796 10.9799 35.4152 10.8593C34.2969 10.5691 33.5627 11.0203 33.2127 12.2129C33.1393 12.4564 33.0365 12.8333 32.9041 13.3434C32.7717 13.8536 32.6759 14.242 32.6168 14.5086C32.3426 15.721 32.7647 16.4723 33.883 16.7625C34.3474 16.8831 34.7513 16.8858 35.0948 16.7708C35.4406 16.6466 35.7283 16.3761 35.9579 15.9592C36.0312 15.8324 36.107 15.7548 36.1852 15.7265C36.2657 15.6891 36.3723 15.6876 36.505 15.722L38.4242 16.2201C38.5095 16.2423 38.5734 16.288 38.6161 16.3575C38.6683 16.4293 38.679 16.505 38.6482 16.5846C38.4661 17.2471 38.1158 17.7785 37.5972 18.1787C37.0904 18.5723 36.4698 18.8196 35.7355 18.9207C35.0035 19.0127 34.2205 18.9504 33.3865 18.734Z" fill="white"/>
<path d="M41.5841 20.7158C41.4893 20.6912 41.4123 20.6372 41.353 20.5537C41.3056 20.4636 41.2937 20.373 41.3173 20.2819L43.1545 13.2035L40.6241 12.5468C40.5293 12.5222 40.4523 12.4681 40.393 12.3847C40.3456 12.2946 40.3337 12.204 40.3574 12.1129L40.7369 10.6508C40.7629 10.5505 40.8173 10.4772 40.9002 10.4306C40.9926 10.3865 41.0862 10.3768 41.1809 10.4014L48.8292 12.3865C48.9334 12.4135 49.0104 12.4676 49.0602 12.5486C49.11 12.6295 49.1219 12.7201 49.0959 12.8204L48.7164 14.2825C48.6904 14.3827 48.6359 14.4561 48.553 14.5026C48.4701 14.5492 48.3766 14.5589 48.2723 14.5319L45.7419 13.8751L43.9047 20.9535C43.881 21.0446 43.8266 21.118 43.7413 21.1736C43.6584 21.2202 43.5648 21.2299 43.4606 21.2029L41.5841 20.7158Z" fill="white"/>
<path d="M51.7398 23.4976C50.4035 23.1508 49.4331 22.5634 48.8286 21.7356C48.2241 20.9078 48.0566 19.8773 48.326 18.6443C48.3851 18.3777 48.482 17.9847 48.6168 17.4654C48.754 16.9371 48.8615 16.542 48.9396 16.2803C49.2991 15.0901 49.9514 14.2724 50.8964 13.8273C51.8532 13.3756 52.9856 13.3194 54.2935 13.6589C55.6014 13.9984 56.5635 14.5981 57.1799 15.4582C57.7986 16.3092 57.9709 17.3409 57.6967 18.5532C57.5785 19.0865 57.4851 19.4852 57.4165 19.7494C57.3503 20.0045 57.2392 20.3938 57.0831 20.9172C56.7189 22.1257 56.0713 22.9445 55.1405 23.3739C54.2097 23.8032 53.0762 23.8445 51.7398 23.4976ZM52.2506 21.5299C52.7718 21.6652 53.2231 21.6219 53.6044 21.3999C53.9952 21.1805 54.2804 20.7635 54.4602 20.1489C54.6163 19.6255 54.7227 19.2544 54.7795 19.0358C54.8409 18.7989 54.9284 18.423 55.0419 17.9079C55.1837 17.2835 55.1372 16.7804 54.9025 16.3986C54.6678 16.0168 54.2945 15.7595 53.7828 15.6266C53.271 15.4938 52.8197 15.5371 52.4289 15.7566C52.0476 15.9785 51.7624 16.3955 51.5731 17.0076C51.4975 17.2602 51.3958 17.6325 51.2681 18.1244C51.1428 18.6072 51.0506 18.982 50.9915 19.2486C50.8591 19.8755 50.9056 20.3786 51.1308 20.7579C51.3561 21.1373 51.7293 21.3946 52.2506 21.5299Z" fill="white"/>
<path d="M57.9012 24.9509C57.8064 24.9263 57.7294 24.8723 57.6701 24.7889C57.6227 24.6988 57.6108 24.6082 57.6345 24.5171L59.9398 15.6349C59.9659 15.5347 60.0203 15.4613 60.1032 15.4148C60.1956 15.3707 60.2891 15.3609 60.3839 15.3855L64.7198 16.5109C65.914 16.8209 66.7386 17.2877 67.1938 17.9115C67.6608 18.5286 67.782 19.2699 67.5574 20.1353C67.4391 20.5908 67.2154 20.946 66.8863 21.2009C66.5689 21.4491 66.2397 21.6068 65.8986 21.6738C66.2423 21.9478 66.4971 22.3105 66.6632 22.762C66.8292 23.2135 66.8508 23.6761 66.7278 24.1498C66.4914 25.0608 65.9942 25.6902 65.2363 26.038C64.4784 26.3858 63.5213 26.4096 62.365 26.1095L57.9012 24.9509ZM63.4495 20.236C63.8286 20.3344 64.1413 20.3183 64.3876 20.1877C64.6363 20.0481 64.8008 19.8234 64.8812 19.5137C64.9592 19.213 64.9224 18.9458 64.7707 18.7119C64.6189 18.4781 64.3535 18.312 63.9744 18.2136L62.1263 17.7339L61.6014 19.7563L63.4495 20.236ZM62.5418 24.2593C62.9304 24.3602 63.262 24.3296 63.5367 24.1675C63.8115 24.0054 63.989 23.7695 64.0694 23.4598C64.1545 23.1318 64.1153 22.8348 63.9517 22.5687C63.7905 22.2935 63.5156 22.1055 63.127 22.0046L61.151 21.4917L60.5658 23.7464L62.5418 24.2593Z" fill="white"/>
<path d="M67.6264 27.4751C67.5316 27.4505 67.4546 27.3965 67.3954 27.3131C67.3479 27.223 67.336 27.1324 67.3597 27.0413L69.6651 18.1591C69.6911 18.0589 69.7455 17.9855 69.8284 17.939C69.9208 17.8949 70.0144 17.8851 70.1091 17.9097L76.748 19.6329C76.8523 19.6599 76.9293 19.7139 76.9791 19.7949C77.0289 19.8759 77.0408 19.9665 77.0148 20.0667L76.6814 21.3512C76.6577 21.4423 76.6033 21.5157 76.518 21.5714C76.4351 21.6179 76.3415 21.6277 76.2373 21.6006L71.7024 20.4236L71.2236 22.2683L75.4457 23.3642C75.55 23.3912 75.6258 23.4498 75.6732 23.5399C75.723 23.6209 75.7349 23.7115 75.7089 23.8117L75.4003 25.0006C75.3767 25.0917 75.3223 25.165 75.237 25.2207C75.1541 25.2672 75.0605 25.277 74.9563 25.2499L70.7341 24.1541L70.2411 26.0535L74.8898 27.26C74.994 27.2871 75.071 27.3411 75.1208 27.4221C75.1706 27.5031 75.1825 27.5937 75.1565 27.6939L74.8231 28.9784C74.7995 29.0695 74.745 29.1429 74.6598 29.1986C74.5769 29.2451 74.4833 29.2548 74.379 29.2278L67.6264 27.4751Z" fill="white"/>
<path d="M76.4215 29.7579C76.3267 29.7333 76.2497 29.6793 76.1904 29.5958C76.143 29.5057 76.1311 29.4151 76.1548 29.324L78.4601 20.4419C78.4861 20.3417 78.5406 20.2683 78.6235 20.2217C78.7159 20.1776 78.8094 20.1679 78.9042 20.1925L82.8847 21.2256C84.0978 21.5405 84.9805 22.0565 85.5329 22.7735C86.0947 23.493 86.242 24.3675 85.9748 25.3969C85.71 26.4172 85.1643 27.0972 84.3376 27.4369C83.5134 27.7675 82.49 27.7741 81.2674 27.4568L79.5757 27.0177L78.7989 30.0103C78.7729 30.1106 78.7137 30.1827 78.6214 30.2268C78.5385 30.2733 78.4449 30.2831 78.3407 30.256L76.4215 29.7579ZM81.6858 25.5526C82.1028 25.6609 82.4557 25.6455 82.7447 25.5066C83.036 25.3586 83.2337 25.0841 83.3377 24.6833C83.4347 24.3098 83.3978 23.9842 83.2271 23.7065C83.0682 23.4222 82.7661 23.2222 82.3206 23.1066L80.6573 22.6749L80.0225 25.1209L81.6858 25.5526Z" fill="white"/>
<path d="M85.7441 32.1776C85.6493 32.153 85.5723 32.099 85.513 32.0155C85.4656 31.9254 85.4537 31.8348 85.4774 31.7437L87.7827 22.8616C87.8088 22.7614 87.8632 22.688 87.9461 22.6414C88.0385 22.5973 88.132 22.5876 88.2268 22.6122L94.8657 24.3353C94.97 24.3624 95.047 24.4164 95.0968 24.4974C95.1466 24.5784 95.1584 24.669 95.1324 24.7692L94.799 26.0537C94.7754 26.1448 94.721 26.2182 94.6357 26.2738C94.5528 26.3204 94.4592 26.3301 94.355 26.3031L89.8201 25.126L89.3412 26.9708L93.5634 28.0666C93.6677 28.0937 93.7435 28.1523 93.7909 28.2424C93.8407 28.3234 93.8526 28.414 93.8266 28.5142L93.518 29.703C93.4944 29.7941 93.4399 29.8675 93.3547 29.9232C93.2718 29.9697 93.1782 29.9795 93.074 29.9524L88.8518 28.8565L88.3588 30.7559L93.0075 31.9625C93.1117 31.9896 93.1887 32.0436 93.2385 32.1246C93.2883 32.2056 93.3002 32.2962 93.2742 32.3964L92.9408 33.6809C92.9172 33.772 92.8627 33.8454 92.7774 33.901C92.6945 33.9476 92.601 33.9573 92.4967 33.9303L85.7441 32.1776Z" fill="white"/>
<path d="M94.5392 34.4604C94.4349 34.4333 94.3579 34.3793 94.3081 34.2983C94.2583 34.2173 94.2464 34.1267 94.2724 34.0265L96.5778 25.1443C96.6038 25.0441 96.6583 24.9708 96.7412 24.9242C96.8335 24.8801 96.9271 24.8704 97.0219 24.895L98.8558 25.3709C98.96 25.398 99.037 25.452 99.0868 25.533C99.1461 25.6165 99.1627 25.7083 99.1367 25.8085L98.2819 29.1017L101.779 30.0094L102.634 26.7162C102.66 26.616 102.714 26.5426 102.797 26.4961C102.88 26.4495 102.974 26.4398 103.078 26.4668L104.912 26.9428C105.016 26.9699 105.093 27.0239 105.143 27.1049C105.193 27.1859 105.205 27.2765 105.179 27.3767L102.873 36.2588C102.847 36.359 102.793 36.4324 102.71 36.479C102.627 36.5255 102.533 36.5353 102.429 36.5082L100.595 36.0322C100.491 36.0052 100.414 35.9511 100.364 35.8702C100.314 35.7892 100.302 35.6986 100.328 35.5984L101.212 32.1958L97.7145 31.2881L96.8313 34.6907C96.8053 34.7909 96.7461 34.863 96.6538 34.9071C96.5709 34.9537 96.4773 34.9634 96.373 34.9364L94.5392 34.4604Z" fill="white"/>
<path d="M104.847 37.1359C104.743 37.1088 104.666 37.0548 104.616 36.9738C104.569 36.8837 104.558 36.7886 104.584 36.6884L106.886 27.8199C106.912 27.7197 106.967 27.6463 107.049 27.5997C107.142 27.5556 107.235 27.5459 107.33 27.5705L109.164 28.0465C109.268 28.0735 109.345 28.1276 109.395 28.2085C109.454 28.292 109.471 28.3838 109.445 28.484L108.019 33.9773L113.504 29.4499C113.662 29.3064 113.846 29.2616 114.054 29.3158L115.703 29.7438C115.808 29.7708 115.885 29.8249 115.934 29.9059C115.984 29.9868 115.996 30.0774 115.97 30.1777L113.665 39.0598C113.641 39.1509 113.587 39.2243 113.501 39.28C113.419 39.3265 113.325 39.3363 113.221 39.3092L111.387 38.8332C111.283 38.8062 111.201 38.7509 111.142 38.6675C111.092 38.5865 111.08 38.4959 111.106 38.3957L112.482 33.0937L107.047 37.4297C106.879 37.5709 106.696 37.6156 106.497 37.5639L104.847 37.1359Z" fill="white"/>
<path d="M115.642 39.9375C115.547 39.913 115.47 39.8589 115.411 39.7755C115.363 39.6854 115.351 39.5948 115.375 39.5037L117.68 30.6215C117.706 30.5213 117.761 30.4479 117.844 30.4014C117.936 30.3573 118.03 30.3475 118.124 30.3721L124.763 32.0953C124.868 32.1223 124.945 32.1764 124.994 32.2573C125.044 32.3383 125.056 32.4289 125.03 32.5291L124.697 33.8136C124.673 33.9047 124.619 33.9781 124.533 34.0338C124.45 34.0803 124.357 34.0901 124.253 34.063L119.718 32.886L119.239 34.7307L123.461 35.8266C123.565 35.8537 123.641 35.9122 123.688 36.0023C123.738 36.0833 123.75 36.1739 123.724 36.2741L123.416 37.463C123.392 37.5541 123.338 37.6275 123.252 37.6831C123.169 37.7297 123.076 37.7394 122.972 37.7123L118.749 36.6165L118.256 38.5159L122.905 39.7225C123.009 39.7495 123.086 39.8035 123.136 39.8845C123.186 39.9655 123.198 40.0561 123.172 40.1563L122.838 41.4408C122.815 41.5319 122.76 41.6053 122.675 41.661C122.592 41.7075 122.499 41.7173 122.394 41.6902L115.642 39.9375Z" fill="white"/>
</svg>
