<svg id="search" viewBox="0 0 20 19" fill="currentcolor" xmlns="http://www.w3.org/2000/svg">
<path id="Vector" fill-rule="evenodd" clip-rule="evenodd" d="M13.0519 12.4C13.168 12.2896 13.3058 12.202 13.4576 12.1423C13.6093 12.0825 13.772 12.0518 13.9362 12.0518C14.1005 12.0518 14.2632 12.0825 14.4149 12.1423C14.5667 12.202 14.7045 12.2896 14.8206 12.4L19.633 16.972C19.8676 17.1947 19.9994 17.4967 19.9995 17.8117C19.9996 18.1268 19.868 18.4289 19.6337 18.6517C19.3993 18.8746 19.0813 18.9998 18.7497 18.9999C18.4182 19 18.1001 18.875 17.8656 18.6523L13.0531 14.0804C12.9369 13.9701 12.8447 13.8391 12.7818 13.695C12.7189 13.5508 12.6865 13.3963 12.6865 13.2402C12.6865 13.0842 12.7189 12.9296 12.7818 12.7855C12.8447 12.6413 12.9369 12.5103 13.0531 12.4H13.0519Z" fill="currentcolor"/>
<path id="Vector_2" fill-rule="evenodd" clip-rule="evenodd" d="M8.12488 14.2502C9.0277 14.2502 9.92169 14.0813 10.7558 13.7531C11.5899 13.4248 12.3478 12.9437 12.9862 12.3373C13.6246 11.7308 14.131 11.0107 14.4765 10.2183C14.8219 9.4259 14.9998 8.57659 14.9998 7.71888C14.9998 6.86117 14.8219 6.01186 14.4765 5.21944C14.131 4.42702 13.6246 3.707 12.9862 3.10051C12.3478 2.49402 11.5899 2.01292 10.7558 1.68469C9.92169 1.35646 9.0277 1.18752 8.12488 1.18752C6.30154 1.18752 4.55288 1.87564 3.26359 3.10051C1.9743 4.32538 1.24998 5.98666 1.24998 7.71888C1.24998 9.45111 1.9743 11.1124 3.26359 12.3373C4.55288 13.5621 6.30154 14.2502 8.12488 14.2502ZM16.2498 7.71888C16.2498 9.76606 15.3937 11.7294 13.87 13.177C12.3463 14.6245 10.2797 15.4378 8.12488 15.4378C5.97003 15.4378 3.90343 14.6245 2.37972 13.177C0.856011 11.7294 0 9.76606 0 7.71888C0 5.67171 0.856011 3.70838 2.37972 2.26081C3.90343 0.813237 5.97003 0 8.12488 0C10.2797 0 12.3463 0.813237 13.87 2.26081C15.3937 3.70838 16.2498 5.67171 16.2498 7.71888Z" fill="currentcolor"/>
</svg>