<svg width="71" height="62" viewBox="0 0 71 62" fill="none" xmlns="http://www.w3.org/2000/svg">
<path d="M66.2543 61.5939C66.452 61.8242 66.7402 61.9563 67.0441 61.9563H69.5743C69.9389 61.9563 70.2769 61.7657 70.4654 61.4537C70.6539 61.1416 70.6653 60.7538 70.4957 60.4315L66.2673 52.3896C66.1584 52.1832 66.1297 51.9449 66.1855 51.7185L68.0527 44.1803C68.0527 44.1798 68.0533 44.1793 68.0533 44.1787L68.0543 44.1755C68.0554 44.1706 68.056 44.1657 68.0571 44.1614C68.0625 44.137 68.0673 44.1132 68.0717 44.0893C68.0728 44.0817 68.0733 44.0742 68.0744 44.0666C68.0744 44.0655 68.0749 44.065 68.0749 44.0639C68.0755 44.0585 68.0766 44.053 68.0771 44.0476C68.0793 44.0297 68.0809 44.0113 68.0825 43.9929C68.0831 43.9859 68.0831 43.9783 68.0831 43.9712C68.0841 43.9485 68.0852 43.9263 68.0847 43.9041V41.9448C68.0847 41.3701 67.6188 40.9042 67.0441 40.9042C66.4694 40.9042 66.0035 41.3701 66.0035 41.9448V42.3744L61.4804 40.5207L61.5725 34.599L62.1657 34.9597C62.6564 35.2582 63.2967 35.1017 63.5952 34.6104C63.8936 34.1196 63.7376 33.4793 63.2463 33.1808L61.091 31.871C61.0828 31.8662 61.0747 31.8607 61.066 31.8559L54.2695 27.7261C53.1726 27.0598 52.4906 25.9098 52.3823 24.678L62.7583 30.3131C62.8146 30.3467 62.8699 30.3809 62.9284 30.4112L63.1044 30.5011L64.5821 31.3039C65.4586 31.78 66.003 32.6955 66.003 33.6933V37.7657C66.003 38.3404 66.4694 38.8063 67.0441 38.8063C67.6188 38.8063 68.0847 38.3404 68.0847 37.7657V33.6933C68.0847 32.5574 67.6827 31.4827 66.9834 30.6365C67.3984 30.3489 67.7391 29.9611 67.9758 29.499L69.0857 27.3312C69.4649 26.5912 69.5331 25.7484 69.2775 24.9569C69.0223 24.1655 68.4742 23.5209 67.7342 23.1423L66.8762 22.7024C65.3486 21.9202 63.4695 22.5264 62.6868 24.054L61.5769 26.2218C61.4268 26.5148 61.3271 26.8236 61.2757 27.1394L53.0447 22.6689C53.2056 22.1212 53.0697 21.508 52.6423 21.0839L50.807 19.2476C50.2171 18.6571 49.2589 18.6214 48.6273 19.1652L47.0634 20.5064C46.9914 20.4745 46.9183 20.4436 46.8446 20.4138L46.7178 18.3348C46.6658 17.4903 45.9622 16.8289 45.1166 16.8289H42.5208C41.9288 16.8289 41.4055 17.1572 41.1276 17.6431V14.5441C41.1276 13.581 40.3758 12.7695 39.4159 12.6959L37.371 12.5399C37.1717 11.9088 36.922 11.294 36.624 10.6997L38.0043 9.14023C38.6527 8.40841 38.6185 7.29308 37.9273 6.60134L35.2807 3.95412C34.5998 3.27376 33.4936 3.23096 32.7634 3.85824L31.2066 5.1935C30.6189 4.88744 30.0068 4.62798 29.3773 4.41888L29.2506 2.34206C29.1915 1.36594 28.379 0.601074 27.4007 0.601074H23.6577C22.6951 0.601074 21.8831 1.35294 21.81 2.31335L21.654 4.35767C20.9579 4.57706 20.2835 4.85657 19.6367 5.1935L18.0805 3.85824C17.3492 3.23096 16.2436 3.27322 15.5632 3.95412L12.9166 6.6008C12.2248 7.29253 12.1912 8.40787 12.8391 9.13969L14.2199 10.6992C13.9214 11.2929 13.6717 11.9082 13.4729 12.5393L11.4275 12.6953C10.4676 12.769 9.71573 13.5804 9.71573 14.5436V18.2861C9.71573 19.2644 10.4806 20.0769 11.4562 20.1365L13.5335 20.2627C13.7426 20.8921 14.0016 21.5037 14.3082 22.092L12.9729 23.6488C12.3456 24.3795 12.3879 25.4851 13.0688 26.166L15.7155 28.8127C16.4067 29.5044 17.522 29.538 18.2543 28.8896L19.8139 27.5094C20.4076 27.8073 21.0229 28.057 21.654 28.2564L21.8084 30.279L16.4435 30.851C16.3682 30.8592 16.2918 30.8418 16.2268 30.8034L11.096 27.5153C11.6095 27.0175 11.9572 26.3442 12.0293 25.5783L12.2584 23.1531C12.3364 22.3254 12.0872 21.5172 11.5575 20.8764C11.0272 20.2361 10.2796 19.8402 9.45193 19.7622L8.49206 19.6712C7.66437 19.5926 6.85563 19.8418 6.21535 20.3721C5.57454 20.9024 5.17856 21.6499 5.10056 22.4776L4.87143 24.9022C4.79938 25.666 5.00902 26.4119 5.45753 27.0262C5.31561 27.1459 5.17856 27.2748 5.05235 27.4178L4.57025 27.9644C3.68838 28.9649 3.19653 30.2503 3.1857 31.5839L3.11745 39.7981L0.431219 60.6346C0.39276 60.9315 0.484305 61.2305 0.682021 61.4553C0.879195 61.6795 1.16412 61.8085 1.46313 61.8085H4.15748C4.60113 61.8085 4.99656 61.5268 5.14119 61.1075L11.8299 41.7189L18.0512 48.191C18.3995 48.5442 18.4634 49.0864 18.2067 49.5095C18.1791 49.5555 18.1547 49.6037 18.1346 49.653L13.9934 59.7278H13.448L15.2794 51.576C15.4701 51.0126 15.3774 50.3967 15.0264 49.9114C14.9999 49.8756 14.9717 49.841 14.9414 49.809L13.0227 47.7706C12.6289 47.3525 11.9702 47.3324 11.5521 47.7262C11.1333 48.12 11.1133 48.7787 11.5071 49.1974L13.2622 51.0614L11.1322 60.5404C11.0629 60.8486 11.1377 61.172 11.3348 61.419C11.5326 61.6655 11.8316 61.809 12.1474 61.809H14.6906C15.1126 61.809 15.4928 61.5544 15.6532 61.1644L20.0322 50.5116C20.7299 49.2841 20.5305 47.7414 19.5425 46.7393L12.4469 39.3577L12.5033 35.1369L14.6115 36.3091C15.0649 36.561 15.5762 36.6606 16.0903 36.5967L21.4043 35.9429C23.551 35.6791 25.2399 34.0622 25.6608 32.013H27.4013C28.379 32.013 29.1915 31.2481 29.2511 30.272L29.3773 28.1952C29.9429 28.0066 30.4948 27.7775 31.03 27.5088L32.5348 28.8408V29.4118C32.5348 30.2574 33.1957 30.9605 34.0407 31.013L36.1181 31.1398C36.1484 31.2129 36.1793 31.286 36.2113 31.3586L34.8684 32.9235C34.3278 33.5562 34.3652 34.5123 34.9529 35.1L36.7909 36.9396C37.39 37.5349 38.3542 37.5625 38.9858 37.003L40.5442 35.6238C40.6174 35.6547 40.691 35.6845 40.7652 35.7132L40.9218 37.7641C40.9825 38.5972 41.685 39.2494 42.5208 39.2494H45.1166C45.9622 39.2494 46.6653 38.5885 46.7178 37.7435L46.8446 35.6661C46.8782 35.6526 46.9118 35.6385 46.9453 35.6244L48.5027 37.003C49.1343 37.5625 50.0985 37.5349 50.7014 36.9369L52.5356 35.1011C53.1238 34.5128 53.1612 33.5562 52.6195 32.9225L51.2778 31.3586C51.3097 31.2866 51.3411 31.2134 51.3709 31.1398L53.4494 31.013C53.932 30.9832 54.354 30.74 54.6275 30.3792L59.5103 33.3461L59.3933 40.8701L53.549 48.9949C53.0913 49.6308 52.8833 50.4119 52.9635 51.1963L53.9835 61.023C54.0387 61.5533 54.4856 61.9563 55.0186 61.9563H57.4048C57.9475 61.9563 58.3999 61.5387 58.4421 60.997L59.0596 53.148C59.0667 53.0602 59.0845 52.9752 59.1111 52.8934C59.2503 53.3067 59.4681 53.694 59.7595 54.0325L66.2543 61.5939ZM63.3655 27.9574C63.281 27.6952 63.3037 27.4157 63.4294 27.1703L64.5393 25.003C64.7988 24.4971 65.4212 24.2961 65.9271 24.555L66.7852 24.9943C67.0306 25.12 67.212 25.3334 67.2965 25.5956C67.381 25.8578 67.3588 26.1373 67.2331 26.3821L66.1232 28.55C65.9976 28.7953 65.7841 28.9768 65.522 29.0613C65.2592 29.1458 64.9803 29.1236 64.7349 28.9979L64.0789 28.6621L63.768 28.4931C63.5784 28.3647 63.437 28.1789 63.3655 27.9574ZM40.8497 19.2595L40.7652 20.3656C40.6504 20.41 40.5366 20.4572 40.4245 20.5064L39.878 20.0373C40.2853 19.8965 40.6271 19.6186 40.8497 19.2595ZM6.94392 25.0978L7.17306 22.6732C7.19906 22.3991 7.33015 22.151 7.54194 21.9755C7.72883 21.8211 7.9585 21.7388 8.19793 21.7388C8.23043 21.7388 8.26347 21.7404 8.29651 21.7437L9.25638 21.8341C9.53048 21.8601 9.77857 21.9912 9.95408 22.2036C10.1296 22.4154 10.2119 22.6835 10.1865 22.9576L9.95733 25.3827C9.90858 25.9 9.48281 26.2922 8.97742 26.315C8.52456 26.172 8.05546 26.121 7.59395 26.1541C7.17685 25.9899 6.90005 25.5653 6.94392 25.0978ZM3.41591 59.7273H2.64672L5.07456 40.8983L9.93403 40.8327L3.41591 59.7273ZM21.1502 33.8774L15.8357 34.5313C15.762 34.5405 15.6884 34.5264 15.6228 34.4901L12.0082 32.4804C11.9968 32.4739 11.9854 32.4674 11.974 32.4615L9.52073 31.0975C9.01804 30.8175 8.38481 30.9989 8.1053 31.5011C7.82633 32.0032 8.00725 32.637 8.5094 32.9165L10.4373 33.9885L10.3739 38.7445L5.20727 38.8144L5.2674 31.6013C5.2739 30.7682 5.58104 29.9654 6.13193 29.3408L6.61404 28.7943C6.85563 28.5196 7.1671 28.3425 7.49915 28.2677C7.55874 28.2769 7.61778 28.2878 7.67845 28.2937L8.54948 28.3761C8.62261 28.4091 8.69465 28.4481 8.76453 28.4931L15.1136 32.5617C15.1185 32.5649 15.1229 32.5676 15.1277 32.5709C15.5844 32.8526 16.1299 32.9766 16.6645 32.9203L23.4269 32.1998C23.0234 33.0925 22.1762 33.7512 21.1502 33.8774ZM30.653 25.348C29.8535 25.8117 28.9998 26.166 28.1152 26.4016C27.6819 26.517 27.3709 26.8967 27.3439 27.3442L27.1868 29.9318H23.8695L23.6739 27.3734C23.6398 26.926 23.3229 26.5511 22.8879 26.4428C21.9454 26.2077 21.0381 25.8394 20.1903 25.348C19.8025 25.1227 19.3144 25.1715 18.9786 25.4688L17.0356 27.1892L14.69 24.8437L16.3612 22.8958C16.6537 22.5556 16.6943 22.066 16.4635 21.6819C15.9608 20.8461 15.5784 19.9436 15.3276 19.0006C15.2122 18.5672 14.8325 18.2563 14.3851 18.2292L11.7974 18.0716V14.7548L14.3558 14.5593C14.8033 14.5251 15.1781 14.2083 15.2864 13.7733C15.521 12.8313 15.8893 11.9234 16.3812 11.0757C16.606 10.6878 16.5578 10.1998 16.2604 9.86392L14.54 7.92089L16.8855 5.57539L18.8334 7.24649C19.1736 7.539 19.6627 7.58017 20.0473 7.34887C20.9314 6.81747 21.8869 6.4215 22.8879 6.17178C23.3235 6.06345 23.6398 5.6886 23.6739 5.24117L23.8695 2.68278H27.1868L27.3439 5.27042C27.3709 5.71785 27.6819 6.09757 28.1152 6.21295C29.0588 6.46429 29.9607 6.84618 30.7971 7.34887C31.1812 7.58017 31.6703 7.539 32.011 7.24703L33.9584 5.57593L36.3039 7.92089L34.584 9.86392C34.2867 10.1998 34.2379 10.6878 34.4627 11.0757C34.9546 11.924 35.3229 12.8313 35.5575 13.7733C35.6658 14.2088 36.0412 14.5257 36.4881 14.5598L39.047 14.7548V18.0716L36.4594 18.2292C36.0114 18.2563 35.6322 18.5672 35.5168 19.0006C35.2655 19.9442 34.8836 20.8461 34.3809 21.6819C34.1496 22.0665 34.1908 22.5556 34.4827 22.8958L36.1539 24.8437L33.8083 27.1892L31.8653 25.4688C31.5295 25.1715 31.0409 25.1227 30.653 25.348ZM50.5589 29.1041C50.1261 29.1306 49.7545 29.4232 49.6272 29.8375C49.5026 30.2449 49.3347 30.6392 49.13 31.0098C48.9187 31.3906 48.9669 31.8618 49.2502 32.1923L50.7512 33.9414L49.5465 35.1472L47.8099 33.6099C47.4838 33.3211 47.0125 33.2659 46.629 33.4717C46.2867 33.6543 45.921 33.8065 45.5424 33.9224C45.128 34.0497 44.8355 34.4208 44.8089 34.8541L44.6675 37.1682H42.9639L42.7879 34.8677C42.7549 34.4343 42.4553 34.067 42.0377 33.9468C41.6249 33.8282 41.2284 33.6684 40.8595 33.4712C40.476 33.2664 40.0047 33.3217 39.6792 33.6099L37.942 35.1472L36.7373 33.9414L38.2388 32.1923C38.5221 31.8618 38.5698 31.3906 38.3591 31.0098C38.1538 30.6392 37.9864 30.2449 37.8618 29.8381C37.7345 29.4232 37.3629 29.1306 36.9301 29.1041L34.9296 28.9822C34.9984 28.9302 35.0656 28.875 35.1279 28.8127C35.1279 28.8127 38.3022 25.1747 38.3157 25.1492C38.5172 24.7663 38.4609 24.2983 38.1743 23.9743L37.4171 23.119L37.4089 23.1093C37.4035 23.1033 37.3981 23.0968 37.3927 23.0908L37.3748 23.0708L36.649 22.2247L37.8407 21.0319L39.5903 22.534C39.9207 22.8178 40.3926 22.866 40.7734 22.6542C41.1672 22.4354 41.5929 22.2593 42.0387 22.131C42.4558 22.0102 42.7549 21.6434 42.7879 21.2101L42.9639 18.9101H44.6675L44.8089 21.2253C44.8355 21.6586 45.1274 22.0297 45.5424 22.157C45.9497 22.2821 46.3441 22.4495 46.7146 22.6548C47.0954 22.8655 47.5667 22.8178 47.8965 22.534L49.6478 21.0319L50.8357 22.2209C50.7279 22.3119 50.6386 22.4235 50.5752 22.5508L49.3147 23.9743C49.026 24.3004 48.9707 24.7706 49.176 25.1547C49.3726 25.523 49.5335 25.9201 49.6538 26.3361C49.7751 26.7526 50.1413 27.05 50.5736 27.0836L50.9657 27.1134C51.3319 27.8241 51.8384 28.4644 52.4668 28.9882L50.5589 29.1041ZM67.8518 59.8752H67.5219L61.338 52.6762C61.1137 52.4151 60.9983 52.0819 61.0135 51.738L61.4041 42.7384L65.8177 44.5476L64.1656 51.2179C63.9868 51.9395 64.0789 52.7 64.425 53.3581L67.8518 59.8752ZM58.0039 50.8832C57.4124 51.4292 57.0505 52.1735 56.9844 52.9822L56.4422 59.8752H55.9568L55.0338 50.9834C55.0056 50.7077 55.0782 50.433 55.2386 50.2104L59.2373 44.6511L59.0071 49.9547L58.0039 50.8832Z" fill="#269EB7"/>
</svg>
