<svg width="39" height="53" viewBox="0 0 39 53" fill="none" xmlns="http://www.w3.org/2000/svg">
<path d="M37.4516 41.9032H35.9243C35.2795 38.7423 32.4789 36.3548 29.129 36.3548H24.9677V31.7702C24.9677 28.5592 25.6085 25.4341 26.8723 22.4852L26.9983 22.194C28.4118 18.8928 29.129 15.4 29.129 11.8104V9.99996C29.129 7.35039 28.0819 4.87624 26.1814 3.03129C24.281 1.1877 21.8055 0.205622 19.1213 0.294347C13.9319 0.451479 9.70968 4.9609 9.70968 10.3481V11.8104C9.70968 15.3987 10.4269 18.8928 11.8418 22.1953L11.9651 22.4811C13.2302 25.4328 13.871 28.5578 13.871 31.7702V36.3548H9.70968C6.36114 36.3548 3.55918 38.7423 2.91439 41.9032H1.3871C0.619723 41.9032 0 42.525 0 43.2903V51.6129C0 52.3782 0.619723 53 1.3871 53H37.4516C38.219 53 38.8387 52.3782 38.8387 51.6129V43.2903C38.8387 42.525 38.219 41.9032 37.4516 41.9032ZM12.4839 11.8104V10.3481C12.4839 6.44485 15.4992 3.17826 19.206 3.06719C21.1017 3.01842 22.8912 3.7052 24.2491 5.02186C25.6071 6.33919 26.3548 8.10828 26.3548 9.99996V11.8104C26.3548 15.0214 25.7141 18.1464 24.4503 21.0954L24.3243 21.388C23.0368 24.3897 22.3588 27.5568 22.2423 30.8064H16.5964C16.4785 27.5581 15.8006 24.3897 14.513 21.3853L14.3898 21.0994C13.1246 18.1478 12.4839 15.0228 12.4839 11.8104ZM16.6452 33.5806H22.1935V36.3548H16.6452V33.5806ZM9.70968 39.129H29.129C30.9347 39.129 32.4606 40.2926 33.035 41.9032H5.80373C6.37807 40.2926 7.90401 39.129 9.70968 39.129ZM36.0645 50.2258H2.77419V44.6774H36.0645V50.2258Z" fill="#269EB7"/>
</svg>
