<svg width="57" height="55" viewBox="0 0 57 55" fill="none" xmlns="http://www.w3.org/2000/svg">
<path d="M56.3792 0.161721C55.9954 -0.0573026 55.5234 -0.0536112 55.1432 0.171319L32.5943 13.5052C32.0094 13.8511 31.8156 14.6056 32.1615 15.1905C32.5072 15.7754 33.2617 15.9692 33.8468 15.6234L50.0253 6.05665L19.8904 37.3245L4.90226 32.739L24.4624 21.1726C25.0474 20.8266 25.2412 20.0721 24.8953 19.4871C24.5495 18.9023 23.7949 18.7082 23.2099 19.0542L1.24863 32.0405C0.829044 32.2886 0.595378 32.761 0.653087 33.2452C0.710796 33.7294 1.04881 34.1337 1.51491 34.2763L19.4144 39.7524L27.3112 54.1259C27.3194 54.1408 27.3279 54.1533 27.3367 54.1645C27.4684 54.3843 27.6659 54.5638 27.9123 54.6674C28.0665 54.7323 28.2285 54.7639 28.3895 54.7639C28.7048 54.7639 29.0153 54.6426 29.2497 54.4133L38.3298 45.5392L55.4094 50.7645C55.5276 50.8006 55.6488 50.8184 55.7693 50.8184C56.0297 50.8184 56.2869 50.7357 56.5012 50.5771C56.8149 50.345 56.9999 49.978 56.9999 49.5879V1.23051C56.9999 0.788645 56.763 0.380621 56.3792 0.161721ZM27.3783 40.5108C27.2358 40.7166 27.1594 40.961 27.1594 41.2114V48.7383L21.7671 38.9235L45.6284 14.1652L27.3783 40.5108ZM29.6203 50.6103V42.8747L35.6484 44.719L29.6203 50.6103ZM54.539 47.9247L30.3604 40.5276L54.539 5.62377V47.9247Z" fill="#269EB7"/>
</svg>
