<svg width="70" height="65" viewBox="0 0 70 65" fill="none" xmlns="http://www.w3.org/2000/svg">
<path fill-rule="evenodd" clip-rule="evenodd" d="M15.0163 0.214624C11.1751 1.49516 8.71906 4.78247 8.71149 8.65319C8.70295 13.0122 11.7236 16.5689 16.1029 17.3569C21.2029 18.2746 26.1751 13.974 26.1751 8.64538C26.1751 5.3567 24.0821 2.14383 20.9856 0.679244C19.826 0.130805 19.4489 0.0528477 17.7332 0.00732362C16.5083 -0.0251099 15.5063 0.0512841 15.0163 0.214624ZM20.2561 2.69891C21.5485 3.32023 22.7919 4.60624 23.4184 5.96942C24.1711 7.60809 24.1574 9.73854 23.3826 11.429C21.4269 15.6971 15.8515 16.6221 12.6768 13.2052C11.5431 11.9849 11.0038 10.7506 10.8872 9.10902C10.6758 6.13452 12.5713 3.29248 15.3842 2.36579C16.6144 1.96056 19.0692 2.1284 20.2561 2.69891ZM27.2453 3.80966C27.3907 4.10528 27.6003 4.58865 27.7109 4.88427L27.9119 5.42157H45.6738H63.4356V26.9136V48.4057H47.0371H30.6386V49.4774V50.5491L48.8006 50.6008L66.9626 50.6526L67.4507 51.2241C67.844 51.6844 67.9174 51.9314 67.8279 52.4941C67.5916 53.9811 69.0358 53.8764 48.7622 53.8764H30.6386V55.0487V56.221H48.289C60.3908 56.221 66.2523 56.1534 66.9347 56.0061C68.1237 55.7494 69.0088 55.0257 69.6366 53.7965C70.2097 52.6746 70.0987 51.261 69.3477 50.1184C68.7791 49.2533 67.2294 48.4108 66.2011 48.4077L65.5704 48.4057V25.839V3.27236H46.2758H26.981L27.2453 3.80966ZM5.74888 21.069C3.68111 21.5596 1.61897 23.2508 0.642045 25.2572L0.0732387 26.4252L0.0142426 39.4181C-0.0268993 48.4534 0.020065 52.6352 0.168525 53.1471C0.778861 55.2521 3.11599 56.4959 5.35726 55.9082C5.93033 55.7578 6.43878 55.6349 6.48691 55.6349C6.53504 55.6349 6.57444 57.6069 6.57444 60.0171C6.57444 63.7403 6.62023 64.4452 6.87931 64.7063C7.25793 65.0873 7.74349 65.098 8.23544 64.7362C8.59291 64.473 8.61504 64.1338 8.6684 58.083L8.72449 51.7073L7.60104 51.7661C6.60587 51.8183 6.47042 51.8749 6.41569 52.263C6.38153 52.5037 6.09102 52.9654 5.77003 53.2887C4.78787 54.2773 3.04283 54.038 2.4094 52.8276C2.11927 52.2735 2.09463 51.015 2.14858 39.5158L2.20796 26.816L2.74028 25.9043C3.45405 24.6818 4.69724 23.6463 5.87347 23.2946C6.48517 23.1119 7.66179 23.007 9.08409 23.0085L11.329 23.0109L12.2675 24.0882C14.9623 27.1815 19.3672 27.0227 21.8169 23.7439L22.3683 23.006H25.0607C26.6428 23.006 27.9279 23.0951 28.177 23.2221C28.4101 23.3409 30.5229 25.3633 32.8721 27.7161L37.1433 31.994L40.7317 28.3661C42.7054 26.3707 44.556 24.6122 44.8442 24.4583C45.7774 23.9598 46.7039 24.0968 47.4446 24.8426C47.9731 25.3746 48.1045 25.661 48.1045 26.2816C48.1045 26.746 47.9578 27.2431 47.7383 27.5223C46.8205 28.6901 38.2787 37.13 37.8475 37.2951C36.7481 37.716 36.366 37.4254 31.1722 32.2226L26.1751 27.2167V45.7243C26.1751 63.9713 26.1805 64.2372 26.5632 64.6225C27.0303 65.0927 27.3084 65.1111 27.8784 64.709L28.3098 64.405V48.59C28.3098 39.8917 28.3744 32.7751 28.4532 32.7751C28.532 32.7751 29.9949 34.1655 31.7038 35.8645C34.3782 38.5237 34.9544 39.0033 35.8401 39.3071C37.0732 39.7301 38.1357 39.6147 39.2745 38.9338C39.7014 38.6786 42.2454 36.2434 44.9278 33.5221C50.2625 28.1102 50.3488 27.9859 50.2013 25.9336C50.0484 23.8035 48.4767 22.2211 46.361 22.0672C44.4168 21.9255 44.0636 22.1446 40.487 25.7101L37.236 28.9509L33.5977 25.3066C31.0791 22.784 29.6906 21.5398 29.086 21.264C28.3109 20.9101 27.8153 20.8648 24.6761 20.8611L21.1392 20.8568L20.8617 21.3941C20.1326 22.8059 18.1964 24.1652 16.9022 24.174C15.5802 24.183 13.9122 23.0507 12.9505 21.4918L12.5588 20.8568L9.51802 20.8763C7.84576 20.8873 6.14963 20.9738 5.74888 21.069ZM6.87931 29.9559C6.51854 30.3194 6.4776 31.2318 6.80731 31.5637C7.20806 31.9672 8.08892 31.8428 8.41883 31.3361C9.10233 30.2857 7.75338 29.0761 6.87931 29.9559ZM6.80731 34.3773C6.4776 34.7092 6.51854 35.6216 6.87931 35.9851C7.75338 36.8649 9.10233 35.6553 8.41883 34.6049C8.08892 34.0982 7.20806 33.9738 6.80731 34.3773ZM7.00584 38.7454C6.53058 39.0805 6.42132 39.9673 6.80731 40.356C7.52749 41.081 8.99579 40.1272 8.52441 39.2403C8.34742 38.9072 7.75203 38.4412 7.50362 38.4412C7.46694 38.4412 7.24299 38.5782 7.00584 38.7454ZM6.91405 43.146C6.69379 43.2752 6.57444 43.5837 6.57444 44.0235C6.57444 44.5575 6.67768 44.7491 7.0596 44.9244C7.66023 45.1999 8.50364 44.8755 8.53799 44.3556C8.61659 43.173 7.84654 42.5993 6.91405 43.146ZM6.80731 47.6633C6.40113 48.0722 6.53058 48.954 7.0466 49.2943C7.59076 49.6532 8.16636 49.4524 8.52441 48.7789C8.99579 47.8921 7.52749 46.9382 6.80731 47.6633ZM14.4642 57.7507C14.194 58.0512 14.143 58.5949 14.143 61.1699C14.143 63.9713 14.176 64.2649 14.5311 64.6225C14.9982 65.0927 15.2763 65.1111 15.8463 64.709C16.2529 64.4224 16.2777 64.2645 16.2777 61.9737V59.5425H17.4421H18.6065V61.9545C18.6065 64.0432 18.654 64.4099 18.9614 64.6899C19.433 65.1195 19.8809 65.0978 20.3531 64.6225C20.7073 64.2659 20.7412 63.9712 20.7412 61.2468C20.7412 57.196 20.9091 57.3933 17.4611 57.3933C15.1153 57.3933 14.7458 57.4375 14.4642 57.7507Z" fill="#269EB7"/>
</svg>
