<svg width="68" height="68" viewBox="0 0 68 68" fill="none" xmlns="http://www.w3.org/2000/svg">
<path d="M62.4503 54.3321L53.7419 51.8204V49.6124C54.9014 48.6817 55.8182 47.4628 56.3864 46.0645H57.0323C59.4518 46.0645 61.4194 44.097 61.4194 41.6774V34C61.4194 28.2826 57.7483 23.4195 52.6452 21.6067V6.58065C53.8549 6.58065 54.8387 5.59687 54.8387 4.3871V2.19355C54.8387 0.983777 53.8549 0 52.6452 0H2.19355C0.983777 0 0 0.983777 0 2.19355V4.3871C0 5.59687 0.983777 6.58065 2.19355 6.58065V36.1936C2.19355 39.2172 4.65379 41.6774 7.67742 41.6774H35.0968C35.0968 44.097 37.0643 46.0645 39.4839 46.0645H40.1297C40.6979 47.4628 41.6148 48.6817 42.7742 49.6124V51.8204L34.0659 54.3332C30.7986 55.2741 28.5161 58.3079 28.5161 61.7091V68H68V61.7091C68 58.3079 65.7176 55.2741 62.4503 54.3321ZM55.4706 54.602L53.3023 59.6623L49.9 56.9412L52.9633 53.878L55.4706 54.602ZM57.0323 43.871H56.9567C57.0017 43.5111 57.0323 43.1459 57.0323 42.7742V39.4839C58.242 39.4839 59.2258 40.4676 59.2258 41.6774C59.2258 42.8872 58.242 43.871 57.0323 43.871ZM2.19355 2.19355H52.6452L52.6462 4.3871H2.19355V2.19355ZM7.67742 39.4839C5.86356 39.4839 4.3871 38.0074 4.3871 36.1936V6.58065H50.4516V21.0374C49.7367 20.9164 49.0073 20.8387 48.2581 20.8387C45.8594 20.8387 43.6166 21.4947 41.6774 22.6199V8.77419H13.1613V28.5161H36.3087C35.5386 30.1875 35.0968 32.041 35.0968 34V39.4839H7.67742ZM37.5897 26.3226H15.3548V10.9677H39.4839V24.2179C38.7796 24.8509 38.1445 25.5536 37.5897 26.3226ZM39.4839 43.871C38.2741 43.871 37.2903 42.8872 37.2903 41.6774C37.2903 40.4676 38.2741 39.4839 39.4839 39.4839V42.7742C39.4839 43.1459 39.5144 43.5111 39.5594 43.871H39.4839ZM39.7704 37.2903H39.4839C38.6811 37.2903 37.9383 37.5227 37.2903 37.9003V34C37.2903 27.9522 42.2103 23.0323 48.2581 23.0323C54.3059 23.0323 59.2258 27.9522 59.2258 34V37.9003C58.5778 37.5227 57.835 37.2903 57.0323 37.2903H56.7458C56.086 35.3817 54.2903 34 52.1605 34C51.6351 34 51.1173 34.0846 50.6192 34.2501L48.2581 35.0373L45.8958 34.2501C45.3988 34.0846 44.8799 34 44.3546 34C42.2247 34 40.4302 35.3817 39.7704 37.2903ZM41.6774 42.7742V38.8707C41.6774 37.3948 42.8786 36.1936 44.3546 36.1936C44.6432 36.1936 44.927 36.2396 45.2012 36.3306L48.2581 37.3498L51.3149 36.3306C51.588 36.2396 51.8719 36.1936 52.1616 36.1936C53.6375 36.1936 54.8387 37.3948 54.8387 38.8707V42.7742C54.8387 46.4035 51.8874 49.3548 48.2581 49.3548C44.6287 49.3548 41.6774 46.4035 41.6774 42.7742ZM48.2581 51.5484C49.4218 51.5484 50.5319 51.316 51.5484 50.9025V52.191L48.2581 55.4814L44.9677 52.191V50.9025C45.9842 51.316 47.0943 51.5484 48.2581 51.5484ZM43.5529 53.878L46.6161 56.9412L43.2139 59.6623L41.0455 54.602L43.5529 53.878ZM65.8064 65.8064H61.4194V59.2258H59.2258V65.8064H37.2903V59.2258H35.0968V65.8064H30.7097V61.7091C30.7097 59.2794 32.3393 57.1137 34.6732 56.44L38.921 55.2147L42.3335 63.1764L48.2581 58.437L54.1816 63.1764L57.594 55.2147L61.8414 56.44C64.1768 57.1137 65.8064 59.2794 65.8064 61.7091V65.8064Z" fill="#269EB7"/>
</svg>
