<svg width="53" height="73" viewBox="0 0 53 73" fill="none" xmlns="http://www.w3.org/2000/svg">
<path d="M52.5922 14.276L47.4516 9.13533V1.3871C47.4516 0.621755 46.8319 0 46.0645 0H1.67738C0.910007 0 0.290283 0.621755 0.290283 1.3871V65.1936C0.290283 65.9589 0.910007 66.5807 1.67738 66.5807H5.83867V70.7419C5.83867 71.5073 6.4584 72.129 7.22577 72.129H51.6129C52.3802 72.129 53 71.5073 53 70.7419V15.2581C53 14.874 52.8449 14.5273 52.5922 14.276ZM44.6774 10.284L48.2643 13.871H44.6774V10.284ZM5.83867 6.93548V63.8065H3.06448V2.77419H44.6774V6.36114L44.2724 5.95612C44.0211 5.70349 43.6743 5.54839 43.2903 5.54839H7.22577C6.4584 5.54839 5.83867 6.17014 5.83867 6.93548ZM50.2258 69.3548H8.61287V8.32258H41.9032V15.2581C41.9032 16.0234 42.5229 16.6452 43.2903 16.6452H50.2258V69.3548Z" fill="#269EB7"/>
</svg>
