<svg width="88" height="66" viewBox="0 0 88 66" fill="none" xmlns="http://www.w3.org/2000/svg">
<path d="M84.0661 48.1322L78.7423 46.6111C78.5125 46.5454 78.352 46.3326 78.352 46.0936V44.3165C78.7851 44.0165 79.1983 43.6806 79.5845 43.3057C81.4562 41.4894 82.4869 39.0531 82.4869 36.4454V33.9932L83.0017 32.9639C83.5667 31.8338 83.8652 30.5686 83.8652 29.3053V22.6624C83.8652 21.9505 83.288 21.3733 82.5761 21.3733H70.1714C65.6607 21.3733 61.9908 25.0432 61.9908 29.5539V29.6307C61.9908 30.6812 62.2392 31.7332 62.7089 32.6727L63.3691 33.993V36.0985C63.3691 39.4353 65.0134 42.4292 67.5041 44.2308L67.5044 46.0932C67.5044 46.3804 67.5044 46.4994 66.44 46.8036L63.8423 47.5457L56.3277 44.8133C56.3547 44.4587 56.2351 44.0981 55.9764 43.8264L53.5752 41.3036V37.0686C53.829 36.8594 54.0793 36.6446 54.3218 36.4173C57.3511 33.578 59.0884 29.5692 59.0884 25.4189V22.0367C60.0031 20.0463 60.4667 17.9399 60.4667 15.7707V1.98804C60.4667 1.27613 59.8895 0.698975 59.1776 0.698975H39.8814C33.0906 0.698975 27.566 6.22372 27.566 13.0143V15.771C27.566 17.9403 28.0295 20.0466 28.9443 22.0371V24.9471C28.9443 29.7658 31.0869 34.107 34.4575 36.9691V41.3038L32.0562 43.8265C31.7976 44.0983 31.6779 44.4589 31.7049 44.8134L23.7738 47.6973C23.199 47.9063 22.665 48.1894 22.1801 48.5323L20.9347 47.9096C24.6421 46.2959 25.8165 44.0263 25.8729 43.9135C26.0544 43.5507 26.0544 43.1234 25.8729 42.7606C24.9435 40.9019 24.831 37.4952 24.7405 34.7579C24.7105 33.8466 24.6819 32.9857 24.6275 32.2191C24.188 26.0361 19.4875 21.3733 13.6936 21.3733C7.89972 21.3733 3.19911 26.0359 2.7598 32.2191C2.70531 32.9859 2.67678 33.8468 2.6467 34.7582C2.5563 37.4953 2.44355 40.9017 1.51439 42.7604C1.33289 43.1232 1.33289 43.5505 1.51439 43.9133C1.57077 44.0261 2.74278 46.291 6.45752 47.9067L2.99819 49.6362C1.14881 50.5616 0 52.4205 0 54.4879V64.0114C0 64.7233 0.577156 65.3004 1.28906 65.3004C2.00097 65.3004 2.57812 64.7233 2.57812 64.0114V54.4879C2.57812 53.4031 3.18089 52.4277 4.15112 51.9425L8.45883 49.7887L9.95723 51.2127C11.005 52.2084 12.349 52.7059 13.6936 52.7059C15.0379 52.7059 16.3826 52.208 17.43 51.2127L18.9282 49.7889L20.3328 50.4912C19.6714 51.5494 19.2961 52.7903 19.2961 54.0902V64.0117C19.2961 64.7236 19.8732 65.3008 20.5851 65.3008C21.297 65.3008 21.8742 64.7236 21.8742 64.0117V54.0902C21.8742 52.3206 22.9915 50.7253 24.6548 50.1204L33.0168 47.0798L36.4978 52.3015C36.9428 52.9691 37.6559 53.3972 38.4543 53.4763C38.5433 53.485 38.6318 53.4893 38.7202 53.4893C39.4245 53.4893 40.0991 53.2121 40.6034 52.708L42.7271 50.5843V64.0119C42.7271 64.7238 43.3042 65.3009 44.0162 65.3009C44.7281 65.3009 45.3052 64.7238 45.3052 64.0119V50.5843L47.4289 52.708C47.933 53.2123 48.6076 53.4895 49.3121 53.4895C49.4003 53.4895 49.489 53.4852 49.5779 53.4765C50.3764 53.3974 51.0895 52.9692 51.5345 52.3017L55.0156 47.0801L63.3775 50.1208C65.0406 50.7256 66.1581 52.3209 66.1581 54.0906V64.012C66.1581 64.724 66.7353 65.3011 67.4472 65.3011C68.1591 65.3011 68.7363 64.724 68.7363 64.012V54.0906C68.7363 52.2983 68.0242 50.6173 66.8296 49.3741L67.1481 49.2832C67.4694 49.1914 67.9076 49.0658 68.3476 48.8501L71.6389 52.1413V64.012C71.6389 64.724 72.216 65.3011 72.9279 65.3011C73.6398 65.3011 74.217 64.724 74.217 64.012V52.1413L77.4854 48.873C77.6591 48.9613 77.8417 49.0359 78.0338 49.0907L83.3578 50.6118C84.573 50.959 85.4219 52.0843 85.4219 53.3482V64.012C85.4219 64.724 85.999 65.3011 86.7109 65.3011C87.4228 65.3011 88 64.724 88 64.012V53.3482C88 50.9389 86.3823 48.7941 84.0661 48.1322ZM8.26977 45.8553C5.85853 44.9877 4.64905 43.831 4.13273 43.1994C4.48473 42.2791 4.71298 41.2252 4.8675 40.1127C5.57837 41.8171 6.76895 43.2722 8.26977 44.3104V45.8553ZM15.6544 49.3441C14.5549 50.3887 12.8325 50.3885 11.7334 49.3439L10.5346 48.2047C10.7369 47.8257 10.8481 47.396 10.8481 46.9459V45.5719C11.7473 45.8529 12.7033 46.0045 13.694 46.0045C14.6835 46.0045 15.6389 45.8522 16.5397 45.5728L16.5395 46.9457C16.5395 47.396 16.6506 47.8259 16.853 48.205L15.6544 49.3441ZM13.6943 43.4264C9.845 43.4264 6.71361 40.2948 6.71361 36.4457C6.71361 35.7338 6.13645 35.1566 5.42455 35.1566C5.35236 35.1566 5.28189 35.164 5.21297 35.1755C5.21675 35.0647 5.22036 34.9537 5.22414 34.8438C5.25284 33.9575 5.28052 33.1203 5.33156 32.4022C5.49622 30.086 6.42177 27.9516 7.9377 26.392C9.46722 24.8184 11.5115 23.9518 13.694 23.9518C15.8764 23.9518 17.9205 24.8184 19.4502 26.392C20.9662 27.9516 21.8917 30.086 22.0564 32.4022C22.1073 33.1201 22.1351 33.9571 22.1643 34.8433C22.1669 34.9195 22.1695 34.9966 22.172 35.0733C20.7695 32.9125 18.6036 31.3201 15.8049 30.4208C13.2194 29.5901 10.9957 29.6415 10.9019 29.6439C10.5643 29.6534 10.2439 29.7947 10.0097 30.0377L7.68384 32.4498C7.1897 32.9623 7.20448 33.7784 7.71702 34.2725C8.22955 34.7667 9.04561 34.7517 9.53975 34.2393L11.4751 32.2324C13.1417 32.3138 18.5037 32.9374 20.5891 37.5294C20.0643 40.9132 17.1559 43.4264 13.6943 43.4264ZM19.1175 45.8596L19.1177 44.3222C20.6173 43.2898 21.8096 41.8374 22.521 40.12C22.6755 41.23 22.9035 42.2815 23.2549 43.1997C22.7415 43.8253 21.5263 44.9924 19.1175 45.8596ZM31.5224 24.9469V21.7487C31.5224 21.5546 31.4786 21.363 31.3942 21.1882C30.5647 19.4705 30.1441 17.6479 30.1441 15.771V13.0145C30.1441 7.6453 34.5123 3.27727 39.8814 3.27727H57.8885V15.7712C57.8885 17.6481 57.468 19.4706 56.6385 21.1884C56.5541 21.3632 56.5103 21.5548 56.5103 21.7488V25.4192C56.5103 28.9102 55.1069 32.1481 52.5587 34.5367C52.2405 34.8347 51.9104 35.1142 51.569 35.3746C51.5615 35.3797 51.5542 35.3854 51.5469 35.3907C49.1597 37.2032 46.2358 38.084 43.1822 37.8862C36.6439 37.4629 31.5224 31.7793 31.5224 24.9469ZM38.7805 50.8848C38.7716 50.8937 38.7508 50.9148 38.7087 50.9104C38.6667 50.9062 38.6502 50.8817 38.6432 50.871L34.6342 44.8574L35.9243 43.5019L42.0061 47.659L38.7805 50.8848ZM44.0163 45.9102L37.0356 41.1386V38.7323C38.8419 39.7088 40.8643 40.3194 43.0153 40.4586C43.3551 40.4806 43.6929 40.4915 44.0296 40.4915C46.4944 40.4915 48.8666 39.9023 50.997 38.7839V41.1386L44.0163 45.9102ZM49.3895 50.8713C49.3824 50.882 49.3659 50.9066 49.324 50.9107C49.2819 50.916 49.2613 50.8939 49.2522 50.8851L46.0266 47.6595L52.1084 43.5022L53.3986 44.8578L49.3895 50.8713ZM72.9279 49.7837L70.0026 46.8586C70.0537 46.6267 70.0826 46.3729 70.0824 46.0929L70.0822 45.5489C70.894 45.8153 71.7496 45.9734 72.6349 45.9999C72.7342 46.003 72.8327 46.0044 72.9317 46.0044C73.91 46.0044 74.865 45.8565 75.7738 45.5745V46.0936C75.7738 46.3507 75.8062 46.6027 75.867 46.8448L72.9279 49.7837ZM77.7891 41.4557C76.4228 42.7815 74.618 43.4818 72.7124 43.423C68.982 43.3111 65.9472 40.0253 65.9472 36.0989V33.689C65.9472 33.4888 65.9007 33.2915 65.8111 33.1125L65.0148 31.5199C64.7231 30.9364 64.569 30.2833 64.569 29.6309V29.554C64.569 26.4648 67.0823 23.9516 70.1714 23.9516H81.2871V29.3055C81.2871 30.1707 81.0826 31.0371 80.6957 31.8111L80.0449 33.1125C79.9554 33.2916 79.9088 33.4888 79.9088 33.689V36.4455C79.9088 38.3499 79.156 40.1292 77.7891 41.4557Z" fill="white"/>
</svg>
