<svg width="65" height="65" viewBox="0 0 65 65" fill="none" xmlns="http://www.w3.org/2000/svg">
<path d="M19.9329 3.80859C19.4071 3.80859 18.9808 4.2349 18.9808 4.76074C18.9808 5.28658 19.4071 5.71289 19.9329 5.71289C20.4587 5.71289 20.8851 5.28658 20.8851 4.76074C20.8851 4.2349 20.4587 3.80859 19.9329 3.80859ZM23.7415 3.80859C23.2157 3.80859 22.7894 4.2349 22.7894 4.76074C22.7894 5.28658 23.2157 5.71289 23.7415 5.71289C24.2673 5.71289 24.6937 5.28658 24.6937 4.76074C24.6937 4.2349 24.2673 3.80859 23.7415 3.80859ZM16.1243 3.80859C15.5985 3.80859 15.1722 4.2349 15.1722 4.76074C15.1722 5.28658 15.5985 5.71289 16.1243 5.71289C16.6502 5.71289 17.0765 5.28658 17.0765 4.76074C17.0765 4.2349 16.6502 3.80859 16.1243 3.80859ZM61.0888 3.80859H53.6364V2.47559C53.6364 1.11059 52.5258 0 51.1608 0H13.8392C12.4742 0 11.3636 1.11059 11.3636 2.47559V5.46406H4.76074C2.13561 5.46406 0 7.59967 0 10.2248V46.0789C0 48.704 2.13561 50.8396 4.76074 50.8396H27.0263L26.3011 56.2294H25.2402C24.359 56.2294 23.5793 56.8224 23.3439 57.6712L22.003 62.5063C21.8371 63.1038 21.9574 63.7297 22.3327 64.2233C22.708 64.7169 23.279 65 23.8992 65H41.1008C41.721 65 42.292 64.7169 42.6673 64.2233C43.0426 63.7297 43.1628 63.1038 42.9971 62.5064L41.6561 57.6715C41.4207 56.8224 40.6411 56.2294 39.7598 56.2294H38.6989L37.9737 50.8396H60.2393C62.8644 50.8396 65 48.704 65 46.0789V7.71964C65 5.56309 63.2455 3.80859 61.0888 3.80859ZM13.2679 9.52148H28.6914C29.2174 9.52148 29.6436 9.09518 29.6436 8.56934C29.6436 8.0435 29.2174 7.61719 28.6914 7.61719H13.2679V2.47559C13.2679 2.16062 13.5242 1.9043 13.8392 1.9043H51.1608C51.4758 1.9043 51.7321 2.16062 51.7321 2.47559V3.80859H45.4558C43.3335 3.80859 41.6022 5.50786 41.5474 7.61719H33.1348C32.6088 7.61719 32.1826 8.0435 32.1826 8.56934C32.1826 9.09518 32.6088 9.52148 33.1348 9.52148H41.5448V14.4647C41.5448 16.6212 43.2991 18.3757 45.4558 18.3757H47.3425V20.2027C47.3425 20.7492 47.6687 21.2376 48.1738 21.4468C48.6736 21.6539 49.2527 21.5437 49.6416 21.155L51.7323 19.0643V33.9257C51.7323 34.4515 52.1584 34.8778 52.6844 34.8778C53.2104 34.8778 53.6366 34.4515 53.6366 33.9257V18.3757H59.2871V43.2225H53.6364V38.369C53.6364 37.8432 53.2102 37.4169 52.6843 37.4169C52.1583 37.4169 51.7321 37.8432 51.7321 38.369V43.2223H44.2559V37.5908C44.2559 35.012 42.7053 32.7361 40.306 31.793L37.7336 30.7811C37.0763 30.5226 36.6515 29.8991 36.6515 29.1929V28.1167C38.2501 26.875 39.2817 24.9363 39.2817 22.7599V15.6503C39.2817 13.4436 37.4863 11.6483 35.2798 11.6483H29.7206C27.5139 11.6483 25.7187 13.4437 25.7187 15.6503V22.7599C25.7187 24.9361 26.7503 26.875 28.3489 28.1167V29.1929C28.3489 29.8991 27.924 30.5226 27.2665 30.7811L24.6947 31.7929C22.2951 32.7361 20.7445 35.012 20.7445 37.5908V43.2225H13.2679V9.52148ZM37.5908 39.6373C37.0649 39.6373 36.6387 40.0636 36.6387 40.5895V43.2225H28.3613V40.5895C28.3613 40.0636 27.9351 39.6373 27.4092 39.6373C26.8832 39.6373 26.457 40.0636 26.457 40.5895V43.2225H22.6484V37.5908C22.6484 35.8003 23.7249 34.2201 25.3913 33.5651L27.7334 32.6437C29.0018 33.8877 30.7017 34.5893 32.4999 34.5893C34.298 34.5893 35.9979 33.8877 37.2663 32.6437L39.6087 33.5651C41.2749 34.2201 42.3514 35.8003 42.3514 37.5908V43.2225H38.5428V40.5895C38.543 40.0636 38.1167 39.6373 37.5908 39.6373ZM28.3361 21.3092C29.6748 21.3092 30.9985 21.0845 32.2368 20.6417C32.9537 20.3852 33.6459 20.0561 34.3015 19.6597C34.6437 20.0454 35.1183 20.4534 35.7562 20.7615C36.3353 21.0412 36.8961 21.1623 37.3774 21.2038V22.76C37.3774 25.4494 35.1895 27.6373 32.5001 27.6373C29.8108 27.6373 27.6228 25.4494 27.6228 22.76V21.286C27.8608 21.3001 28.0987 21.3092 28.3361 21.3092ZM27.6227 19.3786V15.6503C27.6227 14.4936 28.5637 13.5526 29.7204 13.5526H35.2795C36.4362 13.5526 37.3772 14.4937 37.3772 15.6503V19.2886C37.1328 19.2529 36.862 19.181 36.5842 19.0468C36.0156 18.7722 35.6654 18.3606 35.4718 18.0638C35.2964 17.7945 35.0148 17.6041 34.6995 17.5414C34.3827 17.4787 34.0486 17.5472 33.7818 17.7298C33.1005 18.197 32.3648 18.5734 31.5953 18.8486C30.3441 19.296 28.985 19.4752 27.6227 19.3786ZM35.6274 31.558C34.7544 32.2814 33.6557 32.685 32.5 32.685C31.3443 32.685 30.2456 32.2814 29.3726 31.558C29.9292 30.9171 30.2529 30.0873 30.2529 29.193V29.1573C30.9566 29.4053 31.7125 29.5416 32.5 29.5416C33.2875 29.5416 34.0434 29.4053 34.7471 29.1573V29.193C34.7471 30.0873 35.0708 30.9171 35.6274 31.558ZM39.7599 58.1337C39.7884 58.1337 39.8135 58.1528 39.821 58.1801V58.1802L41.162 63.0153C41.1741 63.0461 41.1338 63.0993 41.1008 63.0957H23.8992C23.866 63.0991 23.8255 63.0464 23.8381 63.0152L25.1791 58.18C25.1867 58.1527 25.2119 58.1336 25.2402 58.1336H39.7599V58.1337ZM28.2224 56.2294L28.9476 50.8396H36.0523L36.7774 56.2294H28.2224ZM63.0957 46.0789C63.0957 47.654 61.8142 48.9354 60.2393 48.9354H4.76074C3.18576 48.9354 1.9043 47.654 1.9043 46.0789V10.2248C1.9043 8.6497 3.18576 7.36836 4.76074 7.36836H11.3636V9.27266H5.26855C4.46354 9.27266 3.80859 9.92761 3.80859 10.7326V43.6668C3.80859 44.4718 4.46354 45.1268 5.26855 45.1268H59.7314C60.5365 45.1268 61.1914 44.4718 61.1914 43.6668V18.3732C61.886 18.3551 62.5361 18.1561 63.0957 17.8202V46.0789ZM11.3636 11.177V43.2225H5.71289V11.177H11.3636ZM63.0957 14.4647C63.0957 15.5712 62.1955 16.4714 61.0888 16.4714C60.0264 16.4714 53.3834 16.4714 52.3121 16.4714C51.8733 16.4714 51.4607 16.6423 51.1507 16.9526L49.2468 18.8566V18.1141C49.2468 17.2084 48.5099 16.4715 47.6042 16.4715H45.4558C44.3493 16.4715 43.4491 15.5713 43.4491 14.4648V7.71977C43.4491 6.61324 44.3493 5.71302 45.4558 5.71302H61.089C62.1955 5.71289 63.0957 6.61312 63.0957 7.71964V14.4647ZM59.7398 12.0443H46.8048C46.2789 12.0443 45.8527 12.4706 45.8527 12.9964C45.8527 13.5223 46.2789 13.9486 46.8048 13.9486H59.7399C60.2659 13.9486 60.6921 13.5223 60.6921 12.9964C60.6921 12.4706 60.2658 12.0443 59.7398 12.0443ZM59.7398 8.2357H46.8048C46.2789 8.2357 45.8527 8.66201 45.8527 9.18785C45.8527 9.71369 46.2789 10.14 46.8048 10.14H59.7399C60.2659 10.14 60.6921 9.71369 60.6921 9.18785C60.6921 8.66201 60.2658 8.2357 59.7398 8.2357Z" fill="#269EB7"/>
</svg>
