<svg width="97" height="77" viewBox="0 0 97 77" fill="none" xmlns="http://www.w3.org/2000/svg">
<path fill-rule="evenodd" clip-rule="evenodd" d="M35.0492 0.0671358C33.4246 0.614923 33.3441 0.90685 33.3441 6.24801V10.6985L18.6145 10.7513L3.88489 10.804L3.00036 11.2383C2.51404 11.4772 1.77368 12.0425 1.35538 12.495C-0.0916294 14.0596 0.0012004 11.9221 0.0012004 43.6848C0.0012004 63.4837 0.0637184 72.3505 0.208078 73.0214C0.596826 74.8283 2.24541 76.4006 4.15088 76.7821C5.60319 77.0727 91.3968 77.0727 92.8491 76.7821C94.7546 76.4006 96.4032 74.8283 96.7919 73.0214C96.9363 72.3505 96.9988 63.4837 96.9988 43.6848C96.9988 11.9221 97.0916 14.0596 95.6446 12.495C95.2263 12.0425 94.486 11.4772 93.9996 11.2383L93.1151 10.804L78.3855 10.7513L63.6559 10.6985V6.24801C63.6559 2.68352 63.5992 1.67858 63.3717 1.20066C62.791 -0.0189697 63.5648 0.0442881 48.7842 0.00614505C41.3862 -0.0131153 35.2055 0.0144531 35.0492 0.0671358ZM59.2986 7.49955V10.7096H48.5H37.7014V7.49955V4.28949H48.5H59.2986V7.49955ZM92.3298 15.2924C92.6358 15.5154 92.6549 16.1694 92.6028 24.5922L92.5468 33.6521L92.0896 34.7837C91.7772 35.5572 91.2977 36.2477 90.574 36.9656C89.3856 38.1448 88.2779 38.7483 86.7836 39.0308C86.1508 39.1503 80.0865 39.2225 70.6532 39.2225H55.5365L55.4757 35.2099C55.388 29.4282 55.8415 29.7811 48.5 29.7811C41.1585 29.7811 41.612 29.4282 41.5243 35.2099L41.4635 39.2225H26.3468C16.9135 39.2225 10.8492 39.1503 10.2164 39.0308C8.72208 38.7483 7.61437 38.1448 6.42596 36.9656C5.70227 36.2477 5.22278 35.5572 4.91038 34.7837L4.45324 33.6521L4.39716 24.5922C4.34506 16.1694 4.3642 15.5154 4.67016 15.2924C5.15515 14.9391 91.8449 14.9391 92.3298 15.2924ZM51.1523 36.6733V39.2225H48.5H45.8477V36.6733V34.1242H48.5H51.1523V36.6733ZM6.60139 42.3732C8.96439 43.4945 8.1759 43.4469 25.5294 43.517L41.4904 43.5815L41.4915 44.7538C41.494 47.494 42.1796 49.4954 43.598 50.9022C46.3272 53.6094 50.6728 53.6094 53.402 50.9022C54.8204 49.4954 55.506 47.494 55.5085 44.7538L55.5096 43.5815L71.4706 43.517C85.386 43.4609 87.5571 43.4142 88.4094 43.1529C89.5552 42.8017 91.1547 42.0634 92.0258 41.4835L92.6415 41.0737V56.5625C92.6415 70.3916 92.6097 72.0833 92.3439 72.3482C92.0748 72.6161 87.8348 72.6449 48.5 72.6449C9.1652 72.6449 4.92515 72.6161 4.65614 72.3482C4.39034 72.0833 4.35851 70.3916 4.35851 56.5625V41.0737L4.97422 41.4835C5.31296 41.709 6.04498 42.1093 6.60139 42.3732ZM51.1519 45.0289C51.1515 47.4089 50.2821 48.5694 48.5 48.5694C46.7179 48.5694 45.8485 47.4089 45.8481 45.0289L45.8477 43.5655H48.5H51.1523L51.1519 45.0289Z" fill="#269EB7"/>
</svg>
