<svg width="33" height="33" viewBox="0 0 33 33" fill="none" xmlns="http://www.w3.org/2000/svg">
<g clip-path="url(#clip0_2_527)">
<path d="M28.9248 19.1653H25.8311C25.564 19.1653 25.3477 19.3817 25.3477 19.6487C25.3477 19.9156 25.564 20.1321 25.8311 20.1321H28.9248C29.1918 20.1321 29.4082 19.9156 29.4082 19.6487C29.4082 19.3817 29.1918 19.1653 28.9248 19.1653Z" fill="white"/>
<path d="M28.9248 21.1523H25.8311C25.564 21.1523 25.3477 21.3688 25.3477 21.6357C25.3477 21.9027 25.564 22.1191 25.8311 22.1191H28.9248C29.1918 22.1191 29.4082 21.9027 29.4082 21.6357C29.4082 21.3688 29.1918 21.1523 28.9248 21.1523Z" fill="white"/>
<path d="M28.9248 17.1782H25.8311C25.564 17.1782 25.3477 17.3947 25.3477 17.6616C25.3477 17.9286 25.564 18.145 25.8311 18.145H28.9248C29.1918 18.145 29.4082 17.9286 29.4082 17.6616C29.4082 17.3947 29.1918 17.1782 28.9248 17.1782Z" fill="white"/>
<path d="M21.8532 16.5496C21.4221 16.5496 21.0713 16.9003 21.0713 17.3314V17.7895H19.9371C19.506 17.7895 19.1552 18.1403 19.1552 18.5713V18.9847H18.0179C17.5868 18.9847 17.2361 19.3355 17.2361 19.7665V22.0304C17.2361 22.426 17.5579 22.7478 17.9534 22.7478H23.24C23.6355 22.7478 23.9573 22.426 23.9573 22.0304V17.3314C23.9573 16.9003 23.6066 16.5496 23.1755 16.5496H21.8532ZM19.1552 21.781H18.2029V19.9515H19.1552V21.781ZM21.0713 21.781H20.122C20.122 21.1928 20.122 19.356 20.122 18.7563H21.0713V21.781ZM22.9905 21.781H22.0412C22.0412 18.6545 22.038 17.6605 22.038 17.5164H22.9904V21.781H22.9905Z" fill="white"/>
<path d="M1.18883 30.7164H9.35643C9.62346 30.7164 9.83983 30.4999 9.83983 30.233C9.83983 29.966 9.62346 29.7496 9.35643 29.7496H4.38937V23.2555C4.38937 22.9885 4.173 22.7721 3.90597 22.7721C3.63894 22.7721 3.42258 22.9885 3.42258 23.2555V29.7496H1.18883C1.06644 29.7496 0.966793 29.65 0.966793 29.5275V22.6854C0.966793 21.1557 2.05012 20.1529 2.78069 19.8505L5.92393 18.6229L7.79467 20.4936C8.48058 21.1797 9.437 21.6082 10.4844 21.6081C11.494 21.6081 12.4597 21.2077 13.1741 20.4936L15.0185 18.6492V25.0468C15.0185 25.7309 15.575 26.2874 16.2589 26.2874H16.5793V29.7497H11.6123C11.3453 29.7497 11.1289 29.9661 11.1289 30.2331C11.1289 30.5001 11.3453 30.7165 11.6123 30.7165H19.7799C20.4354 30.7165 20.9687 30.1832 20.9687 29.5277V26.2874H22.9751V27.7697C22.3772 27.9719 21.9453 28.5379 21.9453 29.2033C21.9453 30.0377 22.6241 30.7165 23.4585 30.7165C24.2929 30.7165 24.9717 30.0377 24.9717 29.2033C24.9717 28.5379 24.5399 27.9719 23.9419 27.7697V26.2874H30.658C31.342 26.2874 31.8985 25.7309 31.8985 25.0468V20.7767C31.8985 20.5097 31.6821 20.2933 31.4151 20.2933C31.1481 20.2933 30.9317 20.5097 30.9317 20.7767V25.0468C30.9317 25.1978 30.8089 25.3206 30.658 25.3206H20.4853H16.259C16.1081 25.3206 15.9853 25.1978 15.9853 25.0468C15.9853 24.7423 15.9853 14.0497 15.9853 13.7452H30.9317V18.5209C30.9317 18.7878 31.1481 19.0042 31.4151 19.0042C31.6821 19.0042 31.8985 18.7878 31.8985 18.5209V13.7452H31.8988C32.506 13.7452 33 13.2511 33 12.6439V11.7122C33 11.105 32.506 10.611 31.8988 10.611H16.6608C16.5618 10.0839 16.2636 9.61398 15.8399 9.30641C15.8862 9.17776 15.9126 9.03977 15.9126 8.8954V5.77298C15.9126 4.75037 15.0266 3.99968 14.1125 4.06987C13.9988 4.0787 13.8708 4.02044 13.8458 3.89244C13.634 2.80995 12.9539 2.28369 11.7666 2.28369H7.66422C5.89441 2.28369 4.4546 3.7235 4.4546 5.49332V8.48528C4.4546 8.90448 4.61367 9.28721 4.87444 9.57647C4.49862 9.95739 4.27091 10.47 4.27091 10.9979C4.27091 11.9835 5.04015 12.8605 6.12605 12.9829C6.28138 14.0931 6.8768 15.1662 7.83418 15.8804V16.8388C7.29039 17.0513 3.00035 18.7267 2.42439 18.9517C2.42169 18.9528 2.41898 18.9538 2.41627 18.9549C1.25258 19.4339 0 20.8056 0 22.6854V29.5276C0 30.1831 0.533283 30.7164 1.18883 30.7164ZM23.4585 28.6568C23.7598 28.6568 24.005 28.9019 24.005 29.2032C24.005 29.5045 23.7598 29.7496 23.4585 29.7496C23.1572 29.7496 22.9121 29.5045 22.9121 29.2032C22.9121 28.9019 23.1572 28.6568 23.4585 28.6568ZM17.5461 26.2873H20.0019V29.5276C20.0019 29.65 19.9023 29.7496 19.7799 29.7496H17.5462V26.2873H17.5461ZM9.22243 20.3449C9.79916 19.7643 9.58968 19.9752 10.1682 19.3928C10.1689 19.3921 10.1694 19.3914 10.17 19.3908C10.2126 19.3476 10.2529 19.2934 10.2776 19.2534H10.6829C10.7088 19.2958 10.7504 19.3505 10.7924 19.3928L11.7408 20.3476C10.9485 20.7402 10.0138 20.7392 9.22243 20.3449ZM8.80033 16.9543C8.80078 16.942 8.80104 16.9297 8.80104 16.9173V16.4209C9.79825 16.8188 11.0415 16.8834 12.1649 16.4285L12.1654 16.9209C12.1654 16.9302 12.1655 16.9394 12.1659 16.9486C11.6051 17.5053 11.3625 17.7463 10.8182 18.2866H10.1424C9.80219 17.949 9.07393 17.2259 8.80033 16.9543ZM12.5301 19.7703C12.4373 19.6769 11.7264 18.9612 11.6195 18.8536L12.7404 17.7407C13.4219 18.0046 13.3846 17.9901 14.0518 18.2485L12.5301 19.7703ZM15.0186 17.5862L13.1321 16.8556L13.1313 15.8854C13.8585 15.3432 14.411 14.5791 14.6875 13.6942C14.7919 13.7272 14.903 13.7452 15.0182 13.7452H15.0186V17.5862ZM31.8988 11.5777C31.9729 11.5777 32.0332 11.638 32.0332 11.7121V12.6438C32.0332 12.7179 31.9729 12.7782 31.8988 12.7782C31.0865 12.7782 15.8464 12.7782 15.0182 12.7782C14.9442 12.7782 14.8838 12.7179 14.8838 12.6438C14.8838 12.1125 14.8838 12.2274 14.8838 11.7121C14.8838 11.6379 14.9442 11.5776 15.0182 11.5776C16.0147 11.5777 30.9152 11.5777 31.8988 11.5777ZM15.1656 10.0206C15.3922 10.1464 15.5702 10.3608 15.6622 10.6108H15.0182C14.9744 10.6108 14.9134 10.6153 14.8838 10.6189V10.1012C14.9796 10.0861 15.0885 10.0533 15.1656 10.0206ZM6.08493 11.9967C5.6034 11.882 5.2377 11.4821 5.2377 10.9978C5.2377 10.6442 5.45117 10.2882 5.77175 10.0859C5.84794 10.1008 5.92593 10.1107 6.0054 10.1145C6.03189 10.1159 6.05838 10.1165 6.08487 10.1166V11.9967H6.08493ZM6.0859 9.14973C5.72767 9.14973 5.42139 8.85763 5.42139 8.48522V5.49332C5.42139 4.25659 6.4275 3.25048 7.66422 3.25048H11.7666C12.6622 3.25048 12.8084 3.62528 12.897 4.07799C13.0128 4.67057 13.5681 5.08133 14.1867 5.03383C14.5448 5.0065 14.9458 5.31994 14.9458 5.77298V8.8952C14.9458 9.03429 14.8257 9.14973 14.6913 9.14973C14.1765 9.14973 13.7669 8.72453 13.7669 8.22534C13.7669 7.64701 12.9908 7.45661 12.7206 7.96251C12.3291 8.69475 11.5709 9.14966 10.742 9.14966C10.0666 9.14973 6.7624 9.14973 6.0859 9.14973ZM7.05172 12.4015V10.1165H10.742C11.6089 10.1165 12.4382 9.76622 13.0404 9.14728C13.2382 9.50009 13.5463 9.78272 13.9171 9.94984V12.4014C13.9171 14.2852 12.3776 15.7782 10.5402 15.7782C8.43456 15.7783 7.05172 14.1419 7.05172 12.4015ZM8.20962 17.7301C8.94432 18.4596 8.66472 18.182 9.34115 18.8536C8.85041 19.3477 9.02811 19.1688 8.43463 19.7663L6.90722 18.2389L8.20962 17.7301Z" fill="white"/>
</g>
<defs>
<clipPath id="clip0_2_527">
<rect width="33" height="33" fill="white"/>
</clipPath>
</defs>
</svg>
