<svg width="76" height="55" viewBox="0 0 76 55" fill="none" xmlns="http://www.w3.org/2000/svg">
<path d="M76 27.263C76 27.0768 76 26.8652 75.9915 26.6197C75.983 25.9341 75.9661 25.1639 75.9491 24.3429C75.8812 21.9814 75.7625 19.6283 75.5759 17.4107C75.3214 14.3552 74.9482 11.8075 74.4393 9.89458C73.9022 7.89831 72.8495 6.07767 71.3863 4.61462C69.9231 3.15158 68.1008 2.09738 66.1013 1.5574C63.7009 0.914127 59.0018 0.516312 52.3857 0.270852C49.2388 0.152354 45.8714 0.0761768 42.504 0.0338561C41.325 0.0169278 40.2308 0.00846414 39.2469 0H36.7531C35.7692 0.00846414 34.675 0.0169278 33.496 0.0338561C30.1286 0.0761768 26.7612 0.152354 23.6143 0.270852C16.9982 0.524777 12.2906 0.922591 9.89866 1.5574C7.89858 2.09606 6.0755 3.14981 4.61212 4.61306C3.14873 6.07631 2.09645 7.89766 1.56071 9.89458C1.0433 11.8075 0.678571 14.3552 0.424107 17.4107C0.2375 19.6283 0.11875 21.9814 0.0508927 24.3429C0.0254463 25.1639 0.0169642 25.9341 0.00848201 26.6197C0.00848201 26.8652 0 27.0768 0 27.263V27.737C0 27.9232 -1.29321e-07 28.1348 0.00848201 28.3803C0.0169642 29.0659 0.0339284 29.8361 0.0508927 30.6571C0.11875 33.0186 0.2375 35.3717 0.424107 37.5893C0.678571 40.6448 1.05179 43.1925 1.56071 45.1054C2.64643 49.1597 5.83571 52.3592 9.89866 53.4426C12.2906 54.0859 16.9982 54.4837 23.6143 54.7291C26.7612 54.8476 30.1286 54.9238 33.496 54.9661C34.675 54.9831 35.7692 54.9915 36.7531 55H39.2469C40.2308 54.9915 41.325 54.9831 42.504 54.9661C45.8714 54.9238 49.2388 54.8476 52.3857 54.7291C59.0018 54.4752 63.7094 54.0774 66.1013 53.4426C70.1643 52.3592 73.3536 49.1682 74.4393 45.1054C74.9567 43.1925 75.3214 40.6448 75.5759 37.5893C75.7625 35.3717 75.8812 33.0186 75.9491 30.6571C75.9746 29.8361 75.983 29.0659 75.9915 28.3803C75.9915 28.1348 76 27.9232 76 27.737V27.263ZM69.8929 27.7031C69.8929 27.8809 69.8929 28.0756 69.8844 28.3041C69.8759 28.9643 69.8589 29.6922 69.842 30.4794C69.7826 32.7308 69.6638 34.9823 69.4857 37.0729C69.2567 39.7984 68.9344 42.0329 68.5357 43.5311C68.0098 45.4863 66.4661 47.0352 64.5152 47.5516C62.7339 48.0256 58.2469 48.4064 52.1482 48.635C49.0607 48.7535 45.7357 48.8296 42.4192 48.872C41.2571 48.8889 40.1799 48.8974 39.2129 48.8974H36.7871L33.5808 48.872C30.2643 48.8296 26.9478 48.7535 23.8518 48.635C17.7531 48.398 13.2576 48.0256 11.4848 47.5516C9.53393 47.0268 7.99018 45.4863 7.46429 43.5311C7.06563 42.0329 6.7433 39.7984 6.51429 37.0729C6.33616 34.9823 6.22589 32.7308 6.15804 30.4794C6.13259 29.6922 6.12411 28.9558 6.11563 28.3041C6.11563 28.0756 6.10714 27.8724 6.10714 27.7031V27.2969C6.10714 27.1191 6.10714 26.9244 6.11563 26.6959C6.12411 26.0357 6.14107 25.3078 6.15804 24.5206C6.21741 22.2692 6.33616 20.0177 6.51429 17.9271C6.7433 15.2016 7.06563 12.9671 7.46429 11.4689C7.99018 9.5137 9.53393 7.96476 11.4848 7.44845C13.2661 6.97445 17.7531 6.59357 23.8518 6.36503C26.9393 6.24654 30.2643 6.17036 33.5808 6.12804C34.7429 6.11111 35.8201 6.10265 36.7871 6.10265H39.2129L42.4192 6.12804C45.7357 6.17036 49.0522 6.24654 52.1482 6.36503C58.2469 6.60203 62.7424 6.97445 64.5152 7.44845C66.4661 7.97322 68.0098 9.5137 68.5357 11.4689C68.9344 12.9671 69.2567 15.2016 69.4857 17.9271C69.6638 20.0177 69.7741 22.2692 69.842 24.5206C69.8674 25.3078 69.8759 26.0442 69.8844 26.6959C69.8844 26.9244 69.8929 27.1276 69.8929 27.2969V27.7031ZM30.4509 38.8419L50.1295 27.4154L30.4509 16.158V38.8419Z" fill="white"/>
</svg>
