<svg width="35" height="35" viewBox="0 0 35 35" fill="none" xmlns="http://www.w3.org/2000/svg">
<path d="M32.1565 17.4905C32.031 17.4905 31.9107 17.4407 31.822 17.352C31.7333 17.2633 31.6835 17.143 31.6835 17.0176V10.0805C31.6833 9.78437 31.5655 9.50048 31.3562 9.29112C31.1468 9.08175 30.8629 8.96402 30.5668 8.96377H19.968C19.8425 8.96377 19.7222 8.91394 19.6335 8.82524C19.5448 8.73654 19.495 8.61624 19.495 8.4908C19.495 8.36536 19.5448 8.24505 19.6335 8.15635C19.7222 8.06765 19.8425 8.01782 19.968 8.01782H30.5668C31.1137 8.01845 31.638 8.23596 32.0246 8.62265C32.4113 9.00933 32.6288 9.5336 32.6295 10.0805V17.0176C32.6295 17.143 32.5796 17.2633 32.4909 17.352C32.4022 17.4407 32.2819 17.4905 32.1565 17.4905Z" fill="white"/>
<path d="M18.4176 32.8102H17.0271C16.9016 32.8102 16.7813 32.7604 16.6926 32.6717C16.6039 32.583 16.5541 32.4627 16.5541 32.3372C16.5541 32.2118 16.6039 32.0915 16.6926 32.0028C16.7813 31.9141 16.9016 31.8643 17.0271 31.8643H18.4176C18.543 31.8643 18.6633 31.9141 18.752 32.0028C18.8407 32.0915 18.8906 32.2118 18.8906 32.3372C18.8906 32.4627 18.8407 32.583 18.752 32.6717C18.6633 32.7604 18.543 32.8102 18.4176 32.8102Z" fill="white"/>
<path d="M9.01484 32.81H5.65673C4.40777 32.8087 3.21036 32.3119 2.32721 31.4287C1.44406 30.5456 0.9473 29.3482 0.945923 28.0992V5.57624C0.945923 5.4508 0.995754 5.3305 1.08445 5.2418C1.17315 5.1531 1.29346 5.10327 1.4189 5.10327C1.54434 5.10327 1.66464 5.1531 1.75334 5.2418C1.84204 5.3305 1.89187 5.4508 1.89187 5.57624V28.0992C1.893 29.0974 2.29001 30.0543 2.99582 30.7601C3.70162 31.4659 4.65858 31.863 5.65673 31.8641H9.01484C9.14028 31.8641 9.26058 31.9139 9.34928 32.0026C9.43798 32.0913 9.48781 32.2116 9.48781 32.3371C9.48781 32.4625 9.43798 32.5828 9.34928 32.6715C9.26058 32.7602 9.14028 32.81 9.01484 32.81Z" fill="white"/>
<path d="M13.7162 32.8102H12.3304C12.205 32.8102 12.0847 32.7604 11.996 32.6717C11.9073 32.583 11.8574 32.4627 11.8574 32.3372C11.8574 32.2118 11.9073 32.0915 11.996 32.0028C12.0847 31.9141 12.205 31.8643 12.3304 31.8643H13.7162C13.8416 31.8643 13.9619 31.9141 14.0506 32.0028C14.1393 32.0915 14.1892 32.2118 14.1892 32.3372C14.1892 32.4627 14.1393 32.583 14.0506 32.6717C13.9619 32.7604 13.8416 32.8102 13.7162 32.8102Z" fill="white"/>
<path d="M30.5682 32.8103H21.7283C21.6029 32.8103 21.4826 32.7604 21.3939 32.6717C21.3052 32.583 21.2554 32.4627 21.2554 32.3373C21.2554 32.2119 21.3052 32.0916 21.3939 32.0029C21.4826 31.9142 21.6029 31.8643 21.7283 31.8643H30.5682C30.8642 31.8641 31.1479 31.7464 31.3572 31.5371C31.5665 31.3278 31.6842 31.0441 31.6844 30.7481V23.6819C31.6838 23.5564 31.733 23.4359 31.8213 23.3468C31.9095 23.2576 32.0296 23.2072 32.155 23.2065C32.2805 23.2059 32.401 23.2552 32.4902 23.3434C32.5793 23.4317 32.6297 23.5517 32.6304 23.6772V30.7481C32.6297 31.2948 32.4123 31.819 32.0257 32.2056C31.6391 32.5922 31.1149 32.8096 30.5682 32.8103Z" fill="white"/>
<path d="M19.9679 8.9638H4.33383C3.4353 8.9638 2.57357 8.60686 1.93822 7.9715C1.30286 7.33615 0.945923 6.47442 0.945923 5.57589C0.945923 4.67736 1.30286 3.81564 1.93822 3.18028C2.57357 2.54493 3.4353 2.18799 4.33383 2.18799H19.9679C20.0934 2.18799 20.2137 2.23782 20.3024 2.32652C20.3911 2.41522 20.4409 2.53552 20.4409 2.66096V8.49083C20.4409 8.61627 20.3911 8.73657 20.3024 8.82527C20.2137 8.91397 20.0934 8.9638 19.9679 8.9638ZM4.33383 3.13393C3.68618 3.13393 3.06506 3.39121 2.6071 3.84917C2.14915 4.30712 1.89187 4.92825 1.89187 5.57589C1.89187 6.22354 2.14915 6.84466 2.6071 7.30262C3.06506 7.76058 3.68618 8.01785 4.33383 8.01785H19.495V3.13393H4.33383Z" fill="white"/>
<path d="M33.0257 24.1525H26.4779C25.4764 24.1413 24.5197 23.7356 23.8154 23.0234C23.1112 22.3113 22.7162 21.3501 22.7162 20.3486C22.7162 19.347 23.1112 18.3858 23.8154 17.6737C24.5197 16.9615 25.4764 16.5558 26.4779 16.5447H33.0257C33.2983 16.5451 33.5596 16.6535 33.7524 16.8463C33.9452 17.039 34.0536 17.3003 34.054 17.5729V23.1247C34.0535 23.3972 33.945 23.6584 33.7522 23.851C33.5595 24.0437 33.2982 24.1521 33.0257 24.1525ZM26.4779 17.4906C25.7263 17.5003 25.0087 17.8057 24.4807 18.3406C23.9526 18.8755 23.6565 19.5969 23.6565 20.3486C23.6565 21.1002 23.9526 21.8216 24.4807 22.3566C25.0087 22.8915 25.7263 23.1968 26.4779 23.2065H33.0257C33.0475 23.2065 33.0683 23.1979 33.0838 23.1826C33.0992 23.1672 33.1079 23.1464 33.108 23.1247V17.5729C33.108 17.5621 33.1059 17.5514 33.1018 17.5414C33.0976 17.5314 33.0916 17.5224 33.0839 17.5147C33.0763 17.5071 33.0672 17.501 33.0572 17.4969C33.0472 17.4928 33.0365 17.4906 33.0257 17.4906H26.4779Z" fill="white"/>
<path d="M26.8573 22.1133C26.5083 22.1133 26.1672 22.0098 25.877 21.8159C25.5868 21.6221 25.3606 21.3465 25.227 21.0241C25.0934 20.7016 25.0585 20.3469 25.1265 20.0046C25.1946 19.6623 25.3626 19.3478 25.6093 19.101C25.8561 18.8542 26.1705 18.6861 26.5128 18.618C26.855 18.5498 27.2098 18.5847 27.5323 18.7182C27.8548 18.8517 28.1304 19.0778 28.3243 19.3679C28.5183 19.658 28.6219 19.9992 28.622 20.3482C28.6215 20.8161 28.4354 21.2647 28.1046 21.5956C27.7738 21.9265 27.3252 22.1127 26.8573 22.1133ZM26.8573 19.5299C26.6954 19.5299 26.5371 19.578 26.4024 19.6679C26.2678 19.7579 26.1628 19.8858 26.1009 20.0354C26.0389 20.1851 26.0227 20.3497 26.0544 20.5085C26.086 20.6674 26.164 20.8133 26.2786 20.9277C26.3931 21.0422 26.539 21.1202 26.6979 21.1517C26.8567 21.1832 27.0214 21.1669 27.171 21.1049C27.3205 21.0429 27.4484 20.9379 27.5383 20.8032C27.6282 20.6685 27.6761 20.5101 27.676 20.3482C27.6758 20.1312 27.5894 19.9231 27.4359 19.7697C27.2824 19.6163 27.0743 19.5301 26.8573 19.5299Z" fill="white"/>
</svg>
